%TF.GenerationSoftware,KiCad,Pcbnew,(5.1.6)-1*%
%TF.CreationDate,2022-04-15T15:17:14-04:00*%
%TF.ProjectId,MP28167 - Breakout,4d503238-3136-4372-902d-20427265616b,V1.0*%
%TF.SameCoordinates,Original*%
%TF.FileFunction,Copper,L1,Top*%
%TF.FilePolarity,Positive*%
%FSLAX46Y46*%
G04 Gerber Fmt 4.6, Leading zero omitted, Abs format (unit mm)*
G04 Created by KiCad (PCBNEW (5.1.6)-1) date 2022-04-15 15:17:14*
%MOMM*%
%LPD*%
G01*
G04 APERTURE LIST*
%TA.AperFunction,EtchedComponent*%
%ADD10C,0.100000*%
%TD*%
%TA.AperFunction,ComponentPad*%
%ADD11O,1.700000X1.700000*%
%TD*%
%TA.AperFunction,ComponentPad*%
%ADD12R,1.700000X1.700000*%
%TD*%
%TA.AperFunction,ComponentPad*%
%ADD13R,1.727200X1.727200*%
%TD*%
%TA.AperFunction,ComponentPad*%
%ADD14O,1.727200X1.727200*%
%TD*%
%TA.AperFunction,SMDPad,CuDef*%
%ADD15R,5.600000X3.500000*%
%TD*%
%TA.AperFunction,SMDPad,CuDef*%
%ADD16R,5.600000X3.200000*%
%TD*%
%TA.AperFunction,SMDPad,CuDef*%
%ADD17R,0.250000X1.400000*%
%TD*%
%TA.AperFunction,SMDPad,CuDef*%
%ADD18R,0.250000X1.100000*%
%TD*%
%TA.AperFunction,SMDPad,CuDef*%
%ADD19R,1.100000X0.250000*%
%TD*%
%TA.AperFunction,SMDPad,CuDef*%
%ADD20R,1.600000X0.250000*%
%TD*%
%TA.AperFunction,SMDPad,CuDef*%
%ADD21R,1.800000X0.250000*%
%TD*%
%TA.AperFunction,ComponentPad*%
%ADD22C,5.500000*%
%TD*%
%TA.AperFunction,ViaPad*%
%ADD23C,0.800000*%
%TD*%
%TA.AperFunction,ViaPad*%
%ADD24C,0.700000*%
%TD*%
%TA.AperFunction,Conductor*%
%ADD25C,0.250000*%
%TD*%
%TA.AperFunction,Conductor*%
%ADD26C,1.000000*%
%TD*%
%TA.AperFunction,Conductor*%
%ADD27C,0.200000*%
%TD*%
G04 APERTURE END LIST*
D10*
%TO.C,U1*%
G36*
X95875001Y-111700000D02*
G01*
X95625001Y-111700000D01*
X95625001Y-112500000D01*
X95725001Y-112500000D01*
X95875001Y-112350000D01*
X95875001Y-111700000D01*
G37*
X95875001Y-111700000D02*
X95625001Y-111700000D01*
X95625001Y-112500000D01*
X95725001Y-112500000D01*
X95875001Y-112350000D01*
X95875001Y-111700000D01*
%TD*%
%TO.P,C3,1*%
%TO.N,/BB_OC*%
%TA.AperFunction,SMDPad,CuDef*%
G36*
G01*
X88525000Y-111762500D02*
X88525000Y-112237500D01*
G75*
G02*
X88287500Y-112475000I-237500J0D01*
G01*
X87712500Y-112475000D01*
G75*
G02*
X87475000Y-112237500I0J237500D01*
G01*
X87475000Y-111762500D01*
G75*
G02*
X87712500Y-111525000I237500J0D01*
G01*
X88287500Y-111525000D01*
G75*
G02*
X88525000Y-111762500I0J-237500D01*
G01*
G37*
%TD.AperFunction*%
%TO.P,C3,2*%
%TO.N,GNDREF*%
%TA.AperFunction,SMDPad,CuDef*%
G36*
G01*
X86775000Y-111762500D02*
X86775000Y-112237500D01*
G75*
G02*
X86537500Y-112475000I-237500J0D01*
G01*
X85962500Y-112475000D01*
G75*
G02*
X85725000Y-112237500I0J237500D01*
G01*
X85725000Y-111762500D01*
G75*
G02*
X85962500Y-111525000I237500J0D01*
G01*
X86537500Y-111525000D01*
G75*
G02*
X86775000Y-111762500I0J-237500D01*
G01*
G37*
%TD.AperFunction*%
%TD*%
%TO.P,R1,1*%
%TO.N,/BB_OC*%
%TA.AperFunction,SMDPad,CuDef*%
G36*
G01*
X88525000Y-113262500D02*
X88525000Y-113737500D01*
G75*
G02*
X88287500Y-113975000I-237500J0D01*
G01*
X87712500Y-113975000D01*
G75*
G02*
X87475000Y-113737500I0J237500D01*
G01*
X87475000Y-113262500D01*
G75*
G02*
X87712500Y-113025000I237500J0D01*
G01*
X88287500Y-113025000D01*
G75*
G02*
X88525000Y-113262500I0J-237500D01*
G01*
G37*
%TD.AperFunction*%
%TO.P,R1,2*%
%TO.N,GNDREF*%
%TA.AperFunction,SMDPad,CuDef*%
G36*
G01*
X86775000Y-113262500D02*
X86775000Y-113737500D01*
G75*
G02*
X86537500Y-113975000I-237500J0D01*
G01*
X85962500Y-113975000D01*
G75*
G02*
X85725000Y-113737500I0J237500D01*
G01*
X85725000Y-113262500D01*
G75*
G02*
X85962500Y-113025000I237500J0D01*
G01*
X86537500Y-113025000D01*
G75*
G02*
X86775000Y-113262500I0J-237500D01*
G01*
G37*
%TD.AperFunction*%
%TD*%
%TO.P,R2,1*%
%TO.N,Net-(R2-Pad1)*%
%TA.AperFunction,SMDPad,CuDef*%
G36*
G01*
X90275000Y-115262500D02*
X90275000Y-115737500D01*
G75*
G02*
X90037500Y-115975000I-237500J0D01*
G01*
X89462500Y-115975000D01*
G75*
G02*
X89225000Y-115737500I0J237500D01*
G01*
X89225000Y-115262500D01*
G75*
G02*
X89462500Y-115025000I237500J0D01*
G01*
X90037500Y-115025000D01*
G75*
G02*
X90275000Y-115262500I0J-237500D01*
G01*
G37*
%TD.AperFunction*%
%TO.P,R2,2*%
%TO.N,/BB_FB*%
%TA.AperFunction,SMDPad,CuDef*%
G36*
G01*
X88525000Y-115262500D02*
X88525000Y-115737500D01*
G75*
G02*
X88287500Y-115975000I-237500J0D01*
G01*
X87712500Y-115975000D01*
G75*
G02*
X87475000Y-115737500I0J237500D01*
G01*
X87475000Y-115262500D01*
G75*
G02*
X87712500Y-115025000I237500J0D01*
G01*
X88287500Y-115025000D01*
G75*
G02*
X88525000Y-115262500I0J-237500D01*
G01*
G37*
%TD.AperFunction*%
%TD*%
%TO.P,C7,2*%
%TO.N,GNDREF*%
%TA.AperFunction,SMDPad,CuDef*%
G36*
G01*
X94450001Y-103025000D02*
X93549999Y-103025000D01*
G75*
G02*
X93300000Y-102775001I0J249999D01*
G01*
X93300000Y-102124999D01*
G75*
G02*
X93549999Y-101875000I249999J0D01*
G01*
X94450001Y-101875000D01*
G75*
G02*
X94700000Y-102124999I0J-249999D01*
G01*
X94700000Y-102775001D01*
G75*
G02*
X94450001Y-103025000I-249999J0D01*
G01*
G37*
%TD.AperFunction*%
%TO.P,C7,1*%
%TO.N,/BB_VIN_FILT*%
%TA.AperFunction,SMDPad,CuDef*%
G36*
G01*
X94450001Y-105075000D02*
X93549999Y-105075000D01*
G75*
G02*
X93300000Y-104825001I0J249999D01*
G01*
X93300000Y-104174999D01*
G75*
G02*
X93549999Y-103925000I249999J0D01*
G01*
X94450001Y-103925000D01*
G75*
G02*
X94700000Y-104174999I0J-249999D01*
G01*
X94700000Y-104825001D01*
G75*
G02*
X94450001Y-105075000I-249999J0D01*
G01*
G37*
%TD.AperFunction*%
%TD*%
%TO.P,C1,2*%
%TO.N,GNDREF*%
%TA.AperFunction,SMDPad,CuDef*%
G36*
G01*
X85450001Y-100025000D02*
X84549999Y-100025000D01*
G75*
G02*
X84300000Y-99775001I0J249999D01*
G01*
X84300000Y-99124999D01*
G75*
G02*
X84549999Y-98875000I249999J0D01*
G01*
X85450001Y-98875000D01*
G75*
G02*
X85700000Y-99124999I0J-249999D01*
G01*
X85700000Y-99775001D01*
G75*
G02*
X85450001Y-100025000I-249999J0D01*
G01*
G37*
%TD.AperFunction*%
%TO.P,C1,1*%
%TO.N,BB_VIN*%
%TA.AperFunction,SMDPad,CuDef*%
G36*
G01*
X85450001Y-102075000D02*
X84549999Y-102075000D01*
G75*
G02*
X84300000Y-101825001I0J249999D01*
G01*
X84300000Y-101174999D01*
G75*
G02*
X84549999Y-100925000I249999J0D01*
G01*
X85450001Y-100925000D01*
G75*
G02*
X85700000Y-101174999I0J-249999D01*
G01*
X85700000Y-101825001D01*
G75*
G02*
X85450001Y-102075000I-249999J0D01*
G01*
G37*
%TD.AperFunction*%
%TD*%
%TO.P,C2,1*%
%TO.N,/BB_VIN_FILT*%
%TA.AperFunction,SMDPad,CuDef*%
G36*
G01*
X97450001Y-105075000D02*
X96549999Y-105075000D01*
G75*
G02*
X96300000Y-104825001I0J249999D01*
G01*
X96300000Y-104174999D01*
G75*
G02*
X96549999Y-103925000I249999J0D01*
G01*
X97450001Y-103925000D01*
G75*
G02*
X97700000Y-104174999I0J-249999D01*
G01*
X97700000Y-104825001D01*
G75*
G02*
X97450001Y-105075000I-249999J0D01*
G01*
G37*
%TD.AperFunction*%
%TO.P,C2,2*%
%TO.N,GNDREF*%
%TA.AperFunction,SMDPad,CuDef*%
G36*
G01*
X97450001Y-103025000D02*
X96549999Y-103025000D01*
G75*
G02*
X96300000Y-102775001I0J249999D01*
G01*
X96300000Y-102124999D01*
G75*
G02*
X96549999Y-101875000I249999J0D01*
G01*
X97450001Y-101875000D01*
G75*
G02*
X97700000Y-102124999I0J-249999D01*
G01*
X97700000Y-102775001D01*
G75*
G02*
X97450001Y-103025000I-249999J0D01*
G01*
G37*
%TD.AperFunction*%
%TD*%
%TO.P,C4,2*%
%TO.N,GNDREF*%
%TA.AperFunction,SMDPad,CuDef*%
G36*
G01*
X101450001Y-103025000D02*
X100549999Y-103025000D01*
G75*
G02*
X100300000Y-102775001I0J249999D01*
G01*
X100300000Y-102124999D01*
G75*
G02*
X100549999Y-101875000I249999J0D01*
G01*
X101450001Y-101875000D01*
G75*
G02*
X101700000Y-102124999I0J-249999D01*
G01*
X101700000Y-102775001D01*
G75*
G02*
X101450001Y-103025000I-249999J0D01*
G01*
G37*
%TD.AperFunction*%
%TO.P,C4,1*%
%TO.N,/BB_VIN_FILT*%
%TA.AperFunction,SMDPad,CuDef*%
G36*
G01*
X101450001Y-105075000D02*
X100549999Y-105075000D01*
G75*
G02*
X100300000Y-104825001I0J249999D01*
G01*
X100300000Y-104174999D01*
G75*
G02*
X100549999Y-103925000I249999J0D01*
G01*
X101450001Y-103925000D01*
G75*
G02*
X101700000Y-104174999I0J-249999D01*
G01*
X101700000Y-104825001D01*
G75*
G02*
X101450001Y-105075000I-249999J0D01*
G01*
G37*
%TD.AperFunction*%
%TD*%
%TO.P,C5,2*%
%TO.N,GNDREF*%
%TA.AperFunction,SMDPad,CuDef*%
G36*
G01*
X114050000Y-101050000D02*
X114050000Y-99950000D01*
G75*
G02*
X114300000Y-99700000I250000J0D01*
G01*
X117300000Y-99700000D01*
G75*
G02*
X117550000Y-99950000I0J-250000D01*
G01*
X117550000Y-101050000D01*
G75*
G02*
X117300000Y-101300000I-250000J0D01*
G01*
X114300000Y-101300000D01*
G75*
G02*
X114050000Y-101050000I0J250000D01*
G01*
G37*
%TD.AperFunction*%
%TO.P,C5,1*%
%TO.N,/BB_VIN_FILT*%
%TA.AperFunction,SMDPad,CuDef*%
G36*
G01*
X108450000Y-101050000D02*
X108450000Y-99950000D01*
G75*
G02*
X108700000Y-99700000I250000J0D01*
G01*
X111700000Y-99700000D01*
G75*
G02*
X111950000Y-99950000I0J-250000D01*
G01*
X111950000Y-101050000D01*
G75*
G02*
X111700000Y-101300000I-250000J0D01*
G01*
X108700000Y-101300000D01*
G75*
G02*
X108450000Y-101050000I0J250000D01*
G01*
G37*
%TD.AperFunction*%
%TD*%
%TO.P,C6,1*%
%TO.N,/BB_VCC*%
%TA.AperFunction,SMDPad,CuDef*%
G36*
G01*
X92262500Y-116975000D02*
X92737500Y-116975000D01*
G75*
G02*
X92975000Y-117212500I0J-237500D01*
G01*
X92975000Y-117787500D01*
G75*
G02*
X92737500Y-118025000I-237500J0D01*
G01*
X92262500Y-118025000D01*
G75*
G02*
X92025000Y-117787500I0J237500D01*
G01*
X92025000Y-117212500D01*
G75*
G02*
X92262500Y-116975000I237500J0D01*
G01*
G37*
%TD.AperFunction*%
%TO.P,C6,2*%
%TO.N,GNDREF*%
%TA.AperFunction,SMDPad,CuDef*%
G36*
G01*
X92262500Y-118725000D02*
X92737500Y-118725000D01*
G75*
G02*
X92975000Y-118962500I0J-237500D01*
G01*
X92975000Y-119537500D01*
G75*
G02*
X92737500Y-119775000I-237500J0D01*
G01*
X92262500Y-119775000D01*
G75*
G02*
X92025000Y-119537500I0J237500D01*
G01*
X92025000Y-118962500D01*
G75*
G02*
X92262500Y-118725000I237500J0D01*
G01*
G37*
%TD.AperFunction*%
%TD*%
%TO.P,C8,2*%
%TO.N,GNDREF*%
%TA.AperFunction,SMDPad,CuDef*%
G36*
G01*
X94525000Y-108049999D02*
X94525000Y-108950001D01*
G75*
G02*
X94275001Y-109200000I-249999J0D01*
G01*
X93624999Y-109200000D01*
G75*
G02*
X93375000Y-108950001I0J249999D01*
G01*
X93375000Y-108049999D01*
G75*
G02*
X93624999Y-107800000I249999J0D01*
G01*
X94275001Y-107800000D01*
G75*
G02*
X94525000Y-108049999I0J-249999D01*
G01*
G37*
%TD.AperFunction*%
%TO.P,C8,1*%
%TO.N,/BB_VIN_FILT*%
%TA.AperFunction,SMDPad,CuDef*%
G36*
G01*
X96575000Y-108049999D02*
X96575000Y-108950001D01*
G75*
G02*
X96325001Y-109200000I-249999J0D01*
G01*
X95674999Y-109200000D01*
G75*
G02*
X95425000Y-108950001I0J249999D01*
G01*
X95425000Y-108049999D01*
G75*
G02*
X95674999Y-107800000I249999J0D01*
G01*
X96325001Y-107800000D01*
G75*
G02*
X96575000Y-108049999I0J-249999D01*
G01*
G37*
%TD.AperFunction*%
%TD*%
%TO.P,C9,1*%
%TO.N,/BB_VIN_FILT*%
%TA.AperFunction,SMDPad,CuDef*%
G36*
G01*
X99450001Y-105075000D02*
X98549999Y-105075000D01*
G75*
G02*
X98300000Y-104825001I0J249999D01*
G01*
X98300000Y-104174999D01*
G75*
G02*
X98549999Y-103925000I249999J0D01*
G01*
X99450001Y-103925000D01*
G75*
G02*
X99700000Y-104174999I0J-249999D01*
G01*
X99700000Y-104825001D01*
G75*
G02*
X99450001Y-105075000I-249999J0D01*
G01*
G37*
%TD.AperFunction*%
%TO.P,C9,2*%
%TO.N,GNDREF*%
%TA.AperFunction,SMDPad,CuDef*%
G36*
G01*
X99450001Y-103025000D02*
X98549999Y-103025000D01*
G75*
G02*
X98300000Y-102775001I0J249999D01*
G01*
X98300000Y-102124999D01*
G75*
G02*
X98549999Y-101875000I249999J0D01*
G01*
X99450001Y-101875000D01*
G75*
G02*
X99700000Y-102124999I0J-249999D01*
G01*
X99700000Y-102775001D01*
G75*
G02*
X99450001Y-103025000I-249999J0D01*
G01*
G37*
%TD.AperFunction*%
%TD*%
%TO.P,C10,2*%
%TO.N,Net-(C10-Pad2)*%
%TA.AperFunction,SMDPad,CuDef*%
G36*
G01*
X99237500Y-111025000D02*
X98762500Y-111025000D01*
G75*
G02*
X98525000Y-110787500I0J237500D01*
G01*
X98525000Y-110212500D01*
G75*
G02*
X98762500Y-109975000I237500J0D01*
G01*
X99237500Y-109975000D01*
G75*
G02*
X99475000Y-110212500I0J-237500D01*
G01*
X99475000Y-110787500D01*
G75*
G02*
X99237500Y-111025000I-237500J0D01*
G01*
G37*
%TD.AperFunction*%
%TO.P,C10,1*%
%TO.N,/BB_SW1*%
%TA.AperFunction,SMDPad,CuDef*%
G36*
G01*
X99237500Y-112775000D02*
X98762500Y-112775000D01*
G75*
G02*
X98525000Y-112537500I0J237500D01*
G01*
X98525000Y-111962500D01*
G75*
G02*
X98762500Y-111725000I237500J0D01*
G01*
X99237500Y-111725000D01*
G75*
G02*
X99475000Y-111962500I0J-237500D01*
G01*
X99475000Y-112537500D01*
G75*
G02*
X99237500Y-112775000I-237500J0D01*
G01*
G37*
%TD.AperFunction*%
%TD*%
%TO.P,C11,1*%
%TO.N,/BB_SW2*%
%TA.AperFunction,SMDPad,CuDef*%
G36*
G01*
X98762500Y-114100000D02*
X99237500Y-114100000D01*
G75*
G02*
X99475000Y-114337500I0J-237500D01*
G01*
X99475000Y-114912500D01*
G75*
G02*
X99237500Y-115150000I-237500J0D01*
G01*
X98762500Y-115150000D01*
G75*
G02*
X98525000Y-114912500I0J237500D01*
G01*
X98525000Y-114337500D01*
G75*
G02*
X98762500Y-114100000I237500J0D01*
G01*
G37*
%TD.AperFunction*%
%TO.P,C11,2*%
%TO.N,Net-(C11-Pad2)*%
%TA.AperFunction,SMDPad,CuDef*%
G36*
G01*
X98762500Y-115850000D02*
X99237500Y-115850000D01*
G75*
G02*
X99475000Y-116087500I0J-237500D01*
G01*
X99475000Y-116662500D01*
G75*
G02*
X99237500Y-116900000I-237500J0D01*
G01*
X98762500Y-116900000D01*
G75*
G02*
X98525000Y-116662500I0J237500D01*
G01*
X98525000Y-116087500D01*
G75*
G02*
X98762500Y-115850000I237500J0D01*
G01*
G37*
%TD.AperFunction*%
%TD*%
%TO.P,C12,1*%
%TO.N,/BB_VIN_FILT*%
%TA.AperFunction,SMDPad,CuDef*%
G36*
G01*
X92450001Y-105075000D02*
X91549999Y-105075000D01*
G75*
G02*
X91300000Y-104825001I0J249999D01*
G01*
X91300000Y-104174999D01*
G75*
G02*
X91549999Y-103925000I249999J0D01*
G01*
X92450001Y-103925000D01*
G75*
G02*
X92700000Y-104174999I0J-249999D01*
G01*
X92700000Y-104825001D01*
G75*
G02*
X92450001Y-105075000I-249999J0D01*
G01*
G37*
%TD.AperFunction*%
%TO.P,C12,2*%
%TO.N,GNDREF*%
%TA.AperFunction,SMDPad,CuDef*%
G36*
G01*
X92450001Y-103025000D02*
X91549999Y-103025000D01*
G75*
G02*
X91300000Y-102775001I0J249999D01*
G01*
X91300000Y-102124999D01*
G75*
G02*
X91549999Y-101875000I249999J0D01*
G01*
X92450001Y-101875000D01*
G75*
G02*
X92700000Y-102124999I0J-249999D01*
G01*
X92700000Y-102775001D01*
G75*
G02*
X92450001Y-103025000I-249999J0D01*
G01*
G37*
%TD.AperFunction*%
%TD*%
%TO.P,C13,1*%
%TO.N,/BB_VOUT_FILT*%
%TA.AperFunction,SMDPad,CuDef*%
G36*
G01*
X97675000Y-117249999D02*
X97675000Y-118150001D01*
G75*
G02*
X97425001Y-118400000I-249999J0D01*
G01*
X96774999Y-118400000D01*
G75*
G02*
X96525000Y-118150001I0J249999D01*
G01*
X96525000Y-117249999D01*
G75*
G02*
X96774999Y-117000000I249999J0D01*
G01*
X97425001Y-117000000D01*
G75*
G02*
X97675000Y-117249999I0J-249999D01*
G01*
G37*
%TD.AperFunction*%
%TO.P,C13,2*%
%TO.N,GNDREF*%
%TA.AperFunction,SMDPad,CuDef*%
G36*
G01*
X95625000Y-117249999D02*
X95625000Y-118150001D01*
G75*
G02*
X95375001Y-118400000I-249999J0D01*
G01*
X94724999Y-118400000D01*
G75*
G02*
X94475000Y-118150001I0J249999D01*
G01*
X94475000Y-117249999D01*
G75*
G02*
X94724999Y-117000000I249999J0D01*
G01*
X95375001Y-117000000D01*
G75*
G02*
X95625000Y-117249999I0J-249999D01*
G01*
G37*
%TD.AperFunction*%
%TD*%
%TO.P,C14,2*%
%TO.N,GNDREF*%
%TA.AperFunction,SMDPad,CuDef*%
G36*
G01*
X93549999Y-122975000D02*
X94450001Y-122975000D01*
G75*
G02*
X94700000Y-123224999I0J-249999D01*
G01*
X94700000Y-123875001D01*
G75*
G02*
X94450001Y-124125000I-249999J0D01*
G01*
X93549999Y-124125000D01*
G75*
G02*
X93300000Y-123875001I0J249999D01*
G01*
X93300000Y-123224999D01*
G75*
G02*
X93549999Y-122975000I249999J0D01*
G01*
G37*
%TD.AperFunction*%
%TO.P,C14,1*%
%TO.N,/BB_VOUT_FILT*%
%TA.AperFunction,SMDPad,CuDef*%
G36*
G01*
X93549999Y-120925000D02*
X94450001Y-120925000D01*
G75*
G02*
X94700000Y-121174999I0J-249999D01*
G01*
X94700000Y-121825001D01*
G75*
G02*
X94450001Y-122075000I-249999J0D01*
G01*
X93549999Y-122075000D01*
G75*
G02*
X93300000Y-121825001I0J249999D01*
G01*
X93300000Y-121174999D01*
G75*
G02*
X93549999Y-120925000I249999J0D01*
G01*
G37*
%TD.AperFunction*%
%TD*%
%TO.P,C15,1*%
%TO.N,/BB_VOUT_FILT*%
%TA.AperFunction,SMDPad,CuDef*%
G36*
G01*
X99299999Y-120925000D02*
X100200001Y-120925000D01*
G75*
G02*
X100450000Y-121174999I0J-249999D01*
G01*
X100450000Y-121825001D01*
G75*
G02*
X100200001Y-122075000I-249999J0D01*
G01*
X99299999Y-122075000D01*
G75*
G02*
X99050000Y-121825001I0J249999D01*
G01*
X99050000Y-121174999D01*
G75*
G02*
X99299999Y-120925000I249999J0D01*
G01*
G37*
%TD.AperFunction*%
%TO.P,C15,2*%
%TO.N,GNDREF*%
%TA.AperFunction,SMDPad,CuDef*%
G36*
G01*
X99299999Y-122975000D02*
X100200001Y-122975000D01*
G75*
G02*
X100450000Y-123224999I0J-249999D01*
G01*
X100450000Y-123875001D01*
G75*
G02*
X100200001Y-124125000I-249999J0D01*
G01*
X99299999Y-124125000D01*
G75*
G02*
X99050000Y-123875001I0J249999D01*
G01*
X99050000Y-123224999D01*
G75*
G02*
X99299999Y-122975000I249999J0D01*
G01*
G37*
%TD.AperFunction*%
%TD*%
%TO.P,C16,2*%
%TO.N,GNDREF*%
%TA.AperFunction,SMDPad,CuDef*%
G36*
G01*
X88549999Y-122975000D02*
X89450001Y-122975000D01*
G75*
G02*
X89700000Y-123224999I0J-249999D01*
G01*
X89700000Y-123875001D01*
G75*
G02*
X89450001Y-124125000I-249999J0D01*
G01*
X88549999Y-124125000D01*
G75*
G02*
X88300000Y-123875001I0J249999D01*
G01*
X88300000Y-123224999D01*
G75*
G02*
X88549999Y-122975000I249999J0D01*
G01*
G37*
%TD.AperFunction*%
%TO.P,C16,1*%
%TO.N,/BB_VOUT_FILT*%
%TA.AperFunction,SMDPad,CuDef*%
G36*
G01*
X88549999Y-120925000D02*
X89450001Y-120925000D01*
G75*
G02*
X89700000Y-121174999I0J-249999D01*
G01*
X89700000Y-121825001D01*
G75*
G02*
X89450001Y-122075000I-249999J0D01*
G01*
X88549999Y-122075000D01*
G75*
G02*
X88300000Y-121825001I0J249999D01*
G01*
X88300000Y-121174999D01*
G75*
G02*
X88549999Y-120925000I249999J0D01*
G01*
G37*
%TD.AperFunction*%
%TD*%
%TO.P,C17,1*%
%TO.N,/BB_VOUT_FILT*%
%TA.AperFunction,SMDPad,CuDef*%
G36*
G01*
X108450000Y-111050000D02*
X108450000Y-109950000D01*
G75*
G02*
X108700000Y-109700000I250000J0D01*
G01*
X111700000Y-109700000D01*
G75*
G02*
X111950000Y-109950000I0J-250000D01*
G01*
X111950000Y-111050000D01*
G75*
G02*
X111700000Y-111300000I-250000J0D01*
G01*
X108700000Y-111300000D01*
G75*
G02*
X108450000Y-111050000I0J250000D01*
G01*
G37*
%TD.AperFunction*%
%TO.P,C17,2*%
%TO.N,GNDREF*%
%TA.AperFunction,SMDPad,CuDef*%
G36*
G01*
X114050000Y-111050000D02*
X114050000Y-109950000D01*
G75*
G02*
X114300000Y-109700000I250000J0D01*
G01*
X117300000Y-109700000D01*
G75*
G02*
X117550000Y-109950000I0J-250000D01*
G01*
X117550000Y-111050000D01*
G75*
G02*
X117300000Y-111300000I-250000J0D01*
G01*
X114300000Y-111300000D01*
G75*
G02*
X114050000Y-111050000I0J250000D01*
G01*
G37*
%TD.AperFunction*%
%TD*%
%TO.P,C18,1*%
%TO.N,/BB_VOUT_FILT*%
%TA.AperFunction,SMDPad,CuDef*%
G36*
G01*
X95799999Y-120925000D02*
X96700001Y-120925000D01*
G75*
G02*
X96950000Y-121174999I0J-249999D01*
G01*
X96950000Y-121825001D01*
G75*
G02*
X96700001Y-122075000I-249999J0D01*
G01*
X95799999Y-122075000D01*
G75*
G02*
X95550000Y-121825001I0J249999D01*
G01*
X95550000Y-121174999D01*
G75*
G02*
X95799999Y-120925000I249999J0D01*
G01*
G37*
%TD.AperFunction*%
%TO.P,C18,2*%
%TO.N,GNDREF*%
%TA.AperFunction,SMDPad,CuDef*%
G36*
G01*
X95799999Y-122975000D02*
X96700001Y-122975000D01*
G75*
G02*
X96950000Y-123224999I0J-249999D01*
G01*
X96950000Y-123875001D01*
G75*
G02*
X96700001Y-124125000I-249999J0D01*
G01*
X95799999Y-124125000D01*
G75*
G02*
X95550000Y-123875001I0J249999D01*
G01*
X95550000Y-123224999D01*
G75*
G02*
X95799999Y-122975000I249999J0D01*
G01*
G37*
%TD.AperFunction*%
%TD*%
%TO.P,C19,1*%
%TO.N,/BB_VOUT_FILT*%
%TA.AperFunction,SMDPad,CuDef*%
G36*
G01*
X108450000Y-121050000D02*
X108450000Y-119950000D01*
G75*
G02*
X108700000Y-119700000I250000J0D01*
G01*
X111700000Y-119700000D01*
G75*
G02*
X111950000Y-119950000I0J-250000D01*
G01*
X111950000Y-121050000D01*
G75*
G02*
X111700000Y-121300000I-250000J0D01*
G01*
X108700000Y-121300000D01*
G75*
G02*
X108450000Y-121050000I0J250000D01*
G01*
G37*
%TD.AperFunction*%
%TO.P,C19,2*%
%TO.N,GNDREF*%
%TA.AperFunction,SMDPad,CuDef*%
G36*
G01*
X114050000Y-121050000D02*
X114050000Y-119950000D01*
G75*
G02*
X114300000Y-119700000I250000J0D01*
G01*
X117300000Y-119700000D01*
G75*
G02*
X117550000Y-119950000I0J-250000D01*
G01*
X117550000Y-121050000D01*
G75*
G02*
X117300000Y-121300000I-250000J0D01*
G01*
X114300000Y-121300000D01*
G75*
G02*
X114050000Y-121050000I0J250000D01*
G01*
G37*
%TD.AperFunction*%
%TD*%
%TO.P,C20,2*%
%TO.N,GNDREF*%
%TA.AperFunction,SMDPad,CuDef*%
G36*
G01*
X101549999Y-122975000D02*
X102450001Y-122975000D01*
G75*
G02*
X102700000Y-123224999I0J-249999D01*
G01*
X102700000Y-123875001D01*
G75*
G02*
X102450001Y-124125000I-249999J0D01*
G01*
X101549999Y-124125000D01*
G75*
G02*
X101300000Y-123875001I0J249999D01*
G01*
X101300000Y-123224999D01*
G75*
G02*
X101549999Y-122975000I249999J0D01*
G01*
G37*
%TD.AperFunction*%
%TO.P,C20,1*%
%TO.N,/BB_VOUT_FILT*%
%TA.AperFunction,SMDPad,CuDef*%
G36*
G01*
X101549999Y-120925000D02*
X102450001Y-120925000D01*
G75*
G02*
X102700000Y-121174999I0J-249999D01*
G01*
X102700000Y-121825001D01*
G75*
G02*
X102450001Y-122075000I-249999J0D01*
G01*
X101549999Y-122075000D01*
G75*
G02*
X101300000Y-121825001I0J249999D01*
G01*
X101300000Y-121174999D01*
G75*
G02*
X101549999Y-120925000I249999J0D01*
G01*
G37*
%TD.AperFunction*%
%TD*%
%TO.P,C21,1*%
%TO.N,BB_VOUT*%
%TA.AperFunction,SMDPad,CuDef*%
G36*
G01*
X80200000Y-127049999D02*
X80200000Y-127950001D01*
G75*
G02*
X79950001Y-128200000I-249999J0D01*
G01*
X79299999Y-128200000D01*
G75*
G02*
X79050000Y-127950001I0J249999D01*
G01*
X79050000Y-127049999D01*
G75*
G02*
X79299999Y-126800000I249999J0D01*
G01*
X79950001Y-126800000D01*
G75*
G02*
X80200000Y-127049999I0J-249999D01*
G01*
G37*
%TD.AperFunction*%
%TO.P,C21,2*%
%TO.N,GNDREF*%
%TA.AperFunction,SMDPad,CuDef*%
G36*
G01*
X78150000Y-127049999D02*
X78150000Y-127950001D01*
G75*
G02*
X77900001Y-128200000I-249999J0D01*
G01*
X77249999Y-128200000D01*
G75*
G02*
X77000000Y-127950001I0J249999D01*
G01*
X77000000Y-127049999D01*
G75*
G02*
X77249999Y-126800000I249999J0D01*
G01*
X77900001Y-126800000D01*
G75*
G02*
X78150000Y-127049999I0J-249999D01*
G01*
G37*
%TD.AperFunction*%
%TD*%
%TO.P,FB1,2*%
%TO.N,BB_VIN*%
%TA.AperFunction,SMDPad,CuDef*%
G36*
G01*
X89225000Y-103237500D02*
X87975000Y-103237500D01*
G75*
G02*
X87725000Y-102987500I0J250000D01*
G01*
X87725000Y-102062500D01*
G75*
G02*
X87975000Y-101812500I250000J0D01*
G01*
X89225000Y-101812500D01*
G75*
G02*
X89475000Y-102062500I0J-250000D01*
G01*
X89475000Y-102987500D01*
G75*
G02*
X89225000Y-103237500I-250000J0D01*
G01*
G37*
%TD.AperFunction*%
%TO.P,FB1,1*%
%TO.N,/BB_VIN_FILT*%
%TA.AperFunction,SMDPad,CuDef*%
G36*
G01*
X89225000Y-106212500D02*
X87975000Y-106212500D01*
G75*
G02*
X87725000Y-105962500I0J250000D01*
G01*
X87725000Y-105037500D01*
G75*
G02*
X87975000Y-104787500I250000J0D01*
G01*
X89225000Y-104787500D01*
G75*
G02*
X89475000Y-105037500I0J-250000D01*
G01*
X89475000Y-105962500D01*
G75*
G02*
X89225000Y-106212500I-250000J0D01*
G01*
G37*
%TD.AperFunction*%
%TD*%
%TO.P,FB2,1*%
%TO.N,BB_VOUT*%
%TA.AperFunction,SMDPad,CuDef*%
G36*
G01*
X105625000Y-125187500D02*
X104375000Y-125187500D01*
G75*
G02*
X104125000Y-124937500I0J250000D01*
G01*
X104125000Y-124012500D01*
G75*
G02*
X104375000Y-123762500I250000J0D01*
G01*
X105625000Y-123762500D01*
G75*
G02*
X105875000Y-124012500I0J-250000D01*
G01*
X105875000Y-124937500D01*
G75*
G02*
X105625000Y-125187500I-250000J0D01*
G01*
G37*
%TD.AperFunction*%
%TO.P,FB2,2*%
%TO.N,/BB_VOUT_FILT*%
%TA.AperFunction,SMDPad,CuDef*%
G36*
G01*
X105625000Y-122212500D02*
X104375000Y-122212500D01*
G75*
G02*
X104125000Y-121962500I0J250000D01*
G01*
X104125000Y-121037500D01*
G75*
G02*
X104375000Y-120787500I250000J0D01*
G01*
X105625000Y-120787500D01*
G75*
G02*
X105875000Y-121037500I0J-250000D01*
G01*
X105875000Y-121962500D01*
G75*
G02*
X105625000Y-122212500I-250000J0D01*
G01*
G37*
%TD.AperFunction*%
%TD*%
D11*
%TO.P,J1,8*%
%TO.N,BB_VOUT*%
X105780000Y-127500000D03*
%TO.P,J1,7*%
X103240000Y-127500000D03*
%TO.P,J1,6*%
%TO.N,GNDREF*%
X100700000Y-127500000D03*
%TO.P,J1,5*%
X98160000Y-127500000D03*
%TO.P,J1,4*%
X95620000Y-127500000D03*
%TO.P,J1,3*%
X93080000Y-127500000D03*
%TO.P,J1,2*%
%TO.N,I2C0_SCL*%
X90540000Y-127500000D03*
D12*
%TO.P,J1,1*%
%TO.N,I2C0_SDA*%
X88000000Y-127500000D03*
%TD*%
%TO.P,J2,1*%
%TO.N,BB_VIN*%
X88000000Y-95500000D03*
D11*
%TO.P,J2,2*%
X90540000Y-95500000D03*
%TO.P,J2,3*%
%TO.N,GNDREF*%
X93080000Y-95500000D03*
%TO.P,J2,4*%
X95620000Y-95500000D03*
%TO.P,J2,5*%
X98160000Y-95500000D03*
%TO.P,J2,6*%
X100700000Y-95500000D03*
%TO.P,J2,7*%
%TO.N,MPS_EN*%
X103240000Y-95500000D03*
%TO.P,J2,8*%
%TO.N,ALERT_MPS*%
X105780000Y-95500000D03*
%TD*%
D13*
%TO.P,J4,1*%
%TO.N,BB_VIN*%
X78000000Y-103880000D03*
D14*
%TO.P,J4,2*%
%TO.N,GNDREF*%
X75460000Y-103880000D03*
%TO.P,J4,3*%
%TO.N,BB_VIN*%
X78000000Y-106420000D03*
%TO.P,J4,4*%
%TO.N,GNDREF*%
X75460000Y-106420000D03*
%TO.P,J4,5*%
X78000000Y-108960000D03*
%TO.P,J4,6*%
%TO.N,MPS_EN*%
X75460000Y-108960000D03*
%TO.P,J4,7*%
%TO.N,ALERT_MPS*%
X78000000Y-111500000D03*
%TO.P,J4,8*%
%TO.N,I2C0_SCL*%
X75460000Y-111500000D03*
%TO.P,J4,9*%
%TO.N,GNDREF*%
X78000000Y-114040000D03*
%TO.P,J4,10*%
%TO.N,I2C0_SDA*%
X75460000Y-114040000D03*
%TO.P,J4,11*%
%TO.N,BB_VOUT*%
X78000000Y-116580000D03*
%TO.P,J4,12*%
%TO.N,GNDREF*%
X75460000Y-116580000D03*
%TO.P,J4,13*%
%TO.N,BB_VOUT*%
X78000000Y-119120000D03*
%TO.P,J4,14*%
%TO.N,GNDREF*%
X75460000Y-119120000D03*
%TD*%
D15*
%TO.P,L1,1*%
%TO.N,/BB_SW1*%
X104000000Y-110579000D03*
D16*
%TO.P,L1,2*%
%TO.N,/BB_SW2*%
X104000000Y-116421000D03*
%TD*%
%TO.P,R3,2*%
%TO.N,GNDREF*%
%TA.AperFunction,SMDPad,CuDef*%
G36*
G01*
X87762500Y-118725000D02*
X88237500Y-118725000D01*
G75*
G02*
X88475000Y-118962500I0J-237500D01*
G01*
X88475000Y-119537500D01*
G75*
G02*
X88237500Y-119775000I-237500J0D01*
G01*
X87762500Y-119775000D01*
G75*
G02*
X87525000Y-119537500I0J237500D01*
G01*
X87525000Y-118962500D01*
G75*
G02*
X87762500Y-118725000I237500J0D01*
G01*
G37*
%TD.AperFunction*%
%TO.P,R3,1*%
%TO.N,/BB_FB*%
%TA.AperFunction,SMDPad,CuDef*%
G36*
G01*
X87762500Y-116975000D02*
X88237500Y-116975000D01*
G75*
G02*
X88475000Y-117212500I0J-237500D01*
G01*
X88475000Y-117787500D01*
G75*
G02*
X88237500Y-118025000I-237500J0D01*
G01*
X87762500Y-118025000D01*
G75*
G02*
X87525000Y-117787500I0J237500D01*
G01*
X87525000Y-117212500D01*
G75*
G02*
X87762500Y-116975000I237500J0D01*
G01*
G37*
%TD.AperFunction*%
%TD*%
%TO.P,R4,1*%
%TO.N,/BB_FB*%
%TA.AperFunction,SMDPad,CuDef*%
G36*
G01*
X89762500Y-116975000D02*
X90237500Y-116975000D01*
G75*
G02*
X90475000Y-117212500I0J-237500D01*
G01*
X90475000Y-117787500D01*
G75*
G02*
X90237500Y-118025000I-237500J0D01*
G01*
X89762500Y-118025000D01*
G75*
G02*
X89525000Y-117787500I0J237500D01*
G01*
X89525000Y-117212500D01*
G75*
G02*
X89762500Y-116975000I237500J0D01*
G01*
G37*
%TD.AperFunction*%
%TO.P,R4,2*%
%TO.N,/BB_VOUT_FILT*%
%TA.AperFunction,SMDPad,CuDef*%
G36*
G01*
X89762500Y-118725000D02*
X90237500Y-118725000D01*
G75*
G02*
X90475000Y-118962500I0J-237500D01*
G01*
X90475000Y-119537500D01*
G75*
G02*
X90237500Y-119775000I-237500J0D01*
G01*
X89762500Y-119775000D01*
G75*
G02*
X89525000Y-119537500I0J237500D01*
G01*
X89525000Y-118962500D01*
G75*
G02*
X89762500Y-118725000I237500J0D01*
G01*
G37*
%TD.AperFunction*%
%TD*%
D17*
%TO.P,U1,1*%
%TO.N,/BB_VIN_FILT*%
X95750001Y-111650000D03*
D18*
%TO.P,U1,2*%
%TO.N,GNDREF*%
X95250000Y-111850000D03*
%TO.P,U1,3*%
%TO.N,MPS_EN*%
X94750000Y-111850000D03*
%TO.P,U1,4*%
%TO.N,ALERT_MPS*%
X94249999Y-111850000D03*
D19*
%TO.P,U1,5*%
%TO.N,I2C0_SCL*%
X93350000Y-112749999D03*
D20*
%TO.P,U1,6*%
%TO.N,I2C0_SDA*%
X93600000Y-113250000D03*
%TO.P,U1,7*%
%TO.N,/BB_OC*%
X93600000Y-113750000D03*
D19*
%TO.P,U1,8*%
%TO.N,Net-(R2-Pad1)*%
X93350000Y-114250001D03*
D18*
%TO.P,U1,9*%
%TO.N,/BB_VCC*%
X94249999Y-115150000D03*
%TO.P,U1,10*%
%TO.N,GNDREF*%
X94750000Y-115150000D03*
%TO.P,U1,11*%
X95250000Y-115150000D03*
%TO.P,U1,12*%
%TO.N,/BB_VOUT_FILT*%
X95750001Y-115150000D03*
D19*
%TO.P,U1,13*%
%TO.N,Net-(C11-Pad2)*%
X96650000Y-114250001D03*
D21*
%TO.P,U1,14*%
%TO.N,/BB_SW2*%
X96500000Y-113750000D03*
%TO.P,U1,15*%
%TO.N,/BB_SW1*%
X96500000Y-113250000D03*
D19*
%TO.P,U1,16*%
%TO.N,Net-(C10-Pad2)*%
X96650000Y-112749999D03*
%TD*%
%TO.P,C22,2*%
%TO.N,GNDREF*%
%TA.AperFunction,SMDPad,CuDef*%
G36*
G01*
X90475000Y-99950001D02*
X90475000Y-99049999D01*
G75*
G02*
X90724999Y-98800000I249999J0D01*
G01*
X91375001Y-98800000D01*
G75*
G02*
X91625000Y-99049999I0J-249999D01*
G01*
X91625000Y-99950001D01*
G75*
G02*
X91375001Y-100200000I-249999J0D01*
G01*
X90724999Y-100200000D01*
G75*
G02*
X90475000Y-99950001I0J249999D01*
G01*
G37*
%TD.AperFunction*%
%TO.P,C22,1*%
%TO.N,BB_VIN*%
%TA.AperFunction,SMDPad,CuDef*%
G36*
G01*
X88425000Y-99950001D02*
X88425000Y-99049999D01*
G75*
G02*
X88674999Y-98800000I249999J0D01*
G01*
X89325001Y-98800000D01*
G75*
G02*
X89575000Y-99049999I0J-249999D01*
G01*
X89575000Y-99950001D01*
G75*
G02*
X89325001Y-100200000I-249999J0D01*
G01*
X88674999Y-100200000D01*
G75*
G02*
X88425000Y-99950001I0J249999D01*
G01*
G37*
%TD.AperFunction*%
%TD*%
%TO.P,C23,1*%
%TO.N,BB_VOUT*%
%TA.AperFunction,SMDPad,CuDef*%
G36*
G01*
X109275000Y-127950001D02*
X109275000Y-127049999D01*
G75*
G02*
X109524999Y-126800000I249999J0D01*
G01*
X110175001Y-126800000D01*
G75*
G02*
X110425000Y-127049999I0J-249999D01*
G01*
X110425000Y-127950001D01*
G75*
G02*
X110175001Y-128200000I-249999J0D01*
G01*
X109524999Y-128200000D01*
G75*
G02*
X109275000Y-127950001I0J249999D01*
G01*
G37*
%TD.AperFunction*%
%TO.P,C23,2*%
%TO.N,GNDREF*%
%TA.AperFunction,SMDPad,CuDef*%
G36*
G01*
X111325000Y-127950001D02*
X111325000Y-127049999D01*
G75*
G02*
X111574999Y-126800000I249999J0D01*
G01*
X112225001Y-126800000D01*
G75*
G02*
X112475000Y-127049999I0J-249999D01*
G01*
X112475000Y-127950001D01*
G75*
G02*
X112225001Y-128200000I-249999J0D01*
G01*
X111574999Y-128200000D01*
G75*
G02*
X111325000Y-127950001I0J249999D01*
G01*
G37*
%TD.AperFunction*%
%TD*%
D22*
%TO.P,H1,1*%
%TO.N,N/C*%
X72000000Y-132500000D03*
%TD*%
%TO.P,H2,1*%
%TO.N,N/C*%
X116000000Y-93500000D03*
%TD*%
%TO.P,H3,1*%
%TO.N,N/C*%
X116000000Y-132500000D03*
%TD*%
%TO.P,H4,1*%
%TO.N,N/C*%
X72000000Y-93500000D03*
%TD*%
D23*
%TO.N,GNDREF*%
X94300000Y-109900000D03*
X93300000Y-109900000D03*
X92300000Y-109900000D03*
X92300000Y-108900000D03*
X91600000Y-108100000D03*
X90600000Y-108100000D03*
X91300000Y-109000000D03*
X95000000Y-116400000D03*
X93800000Y-117200000D03*
X93800000Y-118200000D03*
X93800000Y-119100000D03*
X95200000Y-119100000D03*
X91300000Y-119100000D03*
X86600000Y-118200000D03*
X90500000Y-123100000D03*
X91500000Y-123100000D03*
X92500000Y-123100000D03*
X98000000Y-123100000D03*
X100900000Y-124900000D03*
X99900000Y-124900000D03*
X98900000Y-124900000D03*
X97900000Y-124900000D03*
X93200000Y-124900000D03*
X94200000Y-124900000D03*
X95200000Y-124900000D03*
X96200000Y-124900000D03*
X87500000Y-123100000D03*
X77800000Y-126000000D03*
X77800000Y-129000000D03*
X111700000Y-129000000D03*
X111700000Y-126000000D03*
X115900000Y-122100000D03*
X115900000Y-118900000D03*
X115800000Y-108900000D03*
X115800000Y-112100000D03*
X115800000Y-102100000D03*
X115800000Y-98900000D03*
X95500000Y-102700000D03*
X102600000Y-102700000D03*
X90600000Y-102700000D03*
X98000000Y-101000000D03*
X100000000Y-101000000D03*
X101900000Y-101000000D03*
X96100000Y-101000000D03*
X93000000Y-101000000D03*
X94900000Y-101000000D03*
X91000000Y-101000000D03*
X91000000Y-98000000D03*
X85000000Y-98100000D03*
X83600000Y-99800000D03*
X86500000Y-99700000D03*
X99100000Y-117800000D03*
X107600000Y-113500000D03*
X99100000Y-109100000D03*
X108500000Y-107500000D03*
X109400000Y-106700000D03*
X110300000Y-105900000D03*
X114000000Y-125500000D03*
X114000000Y-127500000D03*
X114000000Y-129500000D03*
X75500000Y-101500000D03*
X74500000Y-99500000D03*
X73500000Y-101500000D03*
X77000000Y-99500000D03*
X78000000Y-99500000D03*
X80000000Y-99500000D03*
X81000000Y-99500000D03*
X75500000Y-121000000D03*
X75500000Y-122000000D03*
X74500000Y-121500000D03*
X73500000Y-121000000D03*
X73500000Y-122000000D03*
X73500000Y-123000000D03*
X75500000Y-123000000D03*
X74500000Y-123500000D03*
X73500000Y-124000000D03*
X75500000Y-124000000D03*
X94500000Y-98000000D03*
X97000000Y-98000000D03*
X99500000Y-98000000D03*
X102000000Y-98000000D03*
X90500000Y-124500000D03*
X91500000Y-125500000D03*
X91500000Y-124500000D03*
X76000000Y-127500000D03*
X76000000Y-126500000D03*
X76000000Y-128500000D03*
X80000000Y-109000000D03*
X80000000Y-108000000D03*
X74000000Y-108000000D03*
X73500000Y-107000000D03*
X73500000Y-106000000D03*
X73500000Y-104000000D03*
X73500000Y-103000000D03*
X94000000Y-134500000D03*
X98000000Y-134500000D03*
X100700000Y-98200000D03*
X93300000Y-98200000D03*
X83900000Y-114800000D03*
X83900000Y-116400000D03*
X79700000Y-114000000D03*
X70500000Y-97000000D03*
X70500000Y-98000000D03*
X76000000Y-93500000D03*
X77000000Y-93500000D03*
X111500000Y-93500000D03*
X110500000Y-93500000D03*
X117500000Y-97000000D03*
X117500000Y-98000000D03*
X112000000Y-132000000D03*
X76000000Y-132000000D03*
X76000000Y-131000000D03*
X82000000Y-97000000D03*
X82000000Y-98000000D03*
X115000000Y-125500000D03*
X115000000Y-127500000D03*
X113000000Y-125500000D03*
X113000000Y-129500000D03*
X112000000Y-131000000D03*
D24*
X95000000Y-113000000D03*
X95000000Y-114000000D03*
X106500000Y-113500000D03*
D23*
X89400000Y-113500000D03*
X81200000Y-114800000D03*
X82600000Y-119000000D03*
X84100000Y-120900000D03*
X84500000Y-124400000D03*
%TO.N,I2C0_SCL*%
X83000000Y-113500000D03*
X81250000Y-113499996D03*
%TD*%
D25*
%TO.N,GNDREF*%
X95250000Y-109800000D02*
X93950000Y-108500000D01*
X95250000Y-112050000D02*
X95250000Y-109800000D01*
X95250000Y-112750000D02*
X95000000Y-113000000D01*
X95250000Y-112050000D02*
X95250000Y-112750000D01*
%TO.N,/BB_OC*%
X88000000Y-112000000D02*
X89300000Y-112000000D01*
X91050000Y-113750000D02*
X91250000Y-113750000D01*
X89300000Y-112000000D02*
X91050000Y-113750000D01*
X93800000Y-113750000D02*
X91250000Y-113750000D01*
D26*
X88000000Y-112000000D02*
X88000000Y-113500000D01*
D25*
%TO.N,/BB_VCC*%
X94249999Y-114950000D02*
X94249999Y-115400001D01*
X92500000Y-117150000D02*
X92500000Y-117500000D01*
X94249999Y-115400001D02*
X92500000Y-117150000D01*
%TO.N,Net-(C10-Pad2)*%
X98100000Y-111830000D02*
X98100000Y-111400000D01*
X98100000Y-111400000D02*
X99000000Y-110500000D01*
X96450000Y-112749999D02*
X97180001Y-112749999D01*
X97180001Y-112749999D02*
X98100000Y-111830000D01*
%TO.N,/BB_SW1*%
X99000000Y-112550000D02*
X99000000Y-112250000D01*
X96200000Y-113250000D02*
X98300000Y-113250000D01*
X98300000Y-113250000D02*
X99000000Y-112550000D01*
%TO.N,/BB_SW2*%
X98125000Y-113750000D02*
X99000000Y-114625000D01*
X96200000Y-113750000D02*
X98125000Y-113750000D01*
%TO.N,Net-(C11-Pad2)*%
X98100000Y-115450002D02*
X99000000Y-116350002D01*
X98100000Y-115100000D02*
X98100000Y-115450002D01*
X96450000Y-114250001D02*
X97250001Y-114250001D01*
X99000000Y-116350002D02*
X99000000Y-116375000D01*
X97250001Y-114250001D02*
X98100000Y-115100000D01*
%TO.N,ALERT_MPS*%
X82750000Y-109250000D02*
X80500000Y-111500000D01*
X94249999Y-111449999D02*
X94200000Y-111400000D01*
X80500000Y-111500000D02*
X78000000Y-111500000D01*
X94200000Y-111400000D02*
X91500000Y-111400000D01*
X89350000Y-109250000D02*
X82750000Y-109250000D01*
X91500000Y-111400000D02*
X89350000Y-109250000D01*
X94249999Y-112050000D02*
X94249999Y-111449999D01*
X105780000Y-93780000D02*
X105780000Y-95500000D01*
X77500000Y-111500000D02*
X76200000Y-110200000D01*
X77800000Y-97500000D02*
X83300000Y-92000000D01*
X73700000Y-97500000D02*
X77800000Y-97500000D01*
X71300000Y-99900000D02*
X73700000Y-97500000D01*
X78000000Y-111500000D02*
X77500000Y-111500000D01*
X76200000Y-110200000D02*
X73600000Y-110200000D01*
X104000000Y-92000000D02*
X105780000Y-93780000D01*
X73600000Y-110200000D02*
X71300000Y-107900000D01*
X83300000Y-92000000D02*
X104000000Y-92000000D01*
X71300000Y-107900000D02*
X71300000Y-99900000D01*
%TO.N,I2C0_SCL*%
X76710000Y-112750000D02*
X75460000Y-111500000D01*
X93550000Y-112749999D02*
X91874999Y-112749999D01*
X91874999Y-112749999D02*
X89075000Y-109950000D01*
X89075000Y-109950000D02*
X83300000Y-109950000D01*
X83300000Y-109950000D02*
X80500000Y-112750000D01*
X80500000Y-112750000D02*
X79850000Y-112750000D01*
X79850000Y-112750000D02*
X76710000Y-112750000D01*
X81249996Y-113499996D02*
X81250000Y-113499996D01*
X80500000Y-112750000D02*
X81249996Y-113499996D01*
X86275000Y-120175000D02*
X83000000Y-116900000D01*
X90540000Y-126265000D02*
X89925000Y-125650000D01*
X83000000Y-116900000D02*
X83000000Y-113500000D01*
X87550000Y-125650000D02*
X86275000Y-124375000D01*
X90540000Y-127500000D02*
X90540000Y-126265000D01*
X89925000Y-125650000D02*
X87550000Y-125650000D01*
X86275000Y-124375000D02*
X86275000Y-120175000D01*
%TO.N,I2C0_SDA*%
X76720000Y-115300000D02*
X75460000Y-114040000D01*
X80200000Y-115300000D02*
X76720000Y-115300000D01*
X85500000Y-120600000D02*
X80200000Y-115300000D01*
X88000000Y-127500000D02*
X85500000Y-125000000D01*
X85500000Y-125000000D02*
X85500000Y-120600000D01*
X88700000Y-110550000D02*
X91400000Y-113250000D01*
X81350000Y-116450000D02*
X82150000Y-115650000D01*
X80575000Y-115675000D02*
X81350000Y-116450000D01*
X91400000Y-113250000D02*
X93800000Y-113250000D01*
X82150000Y-115650000D02*
X82150000Y-112850000D01*
X82150000Y-112850000D02*
X84450000Y-110550000D01*
X84450000Y-110550000D02*
X88700000Y-110550000D01*
%TO.N,MPS_EN*%
X75910000Y-108960000D02*
X75460000Y-108960000D01*
X77150000Y-110200000D02*
X75910000Y-108960000D01*
X80300000Y-110200000D02*
X77150000Y-110200000D01*
X94750000Y-111089999D02*
X94609991Y-110949990D01*
X94750000Y-112050000D02*
X94750000Y-111089999D01*
X94609991Y-110949990D02*
X91974990Y-110949990D01*
X81850000Y-108650000D02*
X80300000Y-110200000D01*
X91974990Y-110949990D02*
X89675000Y-108650000D01*
X89675000Y-108650000D02*
X81850000Y-108650000D01*
X102100000Y-92700000D02*
X103240000Y-93840000D01*
X84200000Y-92700000D02*
X102100000Y-92700000D01*
X103240000Y-93840000D02*
X103240000Y-95500000D01*
X78700000Y-98200000D02*
X84200000Y-92700000D01*
X73560000Y-108960000D02*
X72200000Y-107600000D01*
X75460000Y-108960000D02*
X73560000Y-108960000D01*
X72200000Y-107600000D02*
X72200000Y-100100000D01*
X72200000Y-100100000D02*
X74100000Y-98200000D01*
X74100000Y-98200000D02*
X78700000Y-98200000D01*
%TO.N,Net-(R2-Pad1)*%
X90999999Y-114250001D02*
X89750000Y-115500000D01*
X93550000Y-114250001D02*
X90999999Y-114250001D01*
D26*
%TO.N,/BB_FB*%
X88000000Y-115500000D02*
X88000000Y-117500000D01*
X88000000Y-117500000D02*
X90000000Y-117500000D01*
D25*
%TO.N,/BB_VIN_FILT*%
X95750001Y-108749999D02*
X96000000Y-108500000D01*
X95750001Y-112050000D02*
X95750001Y-108749999D01*
X95750001Y-112050000D02*
X95800001Y-112000000D01*
X95750001Y-112050000D02*
X95750001Y-112050001D01*
X95750001Y-112050001D02*
X95880000Y-112180000D01*
X96280000Y-112180000D02*
X96410000Y-112050000D01*
X95880000Y-112180000D02*
X96280000Y-112180000D01*
X96410000Y-112050000D02*
X96710000Y-112050000D01*
X95750001Y-112050000D02*
X96100000Y-112050000D01*
X96100000Y-112050000D02*
X96200000Y-111950000D01*
X96200000Y-111950000D02*
X96200000Y-111620000D01*
X96200000Y-111620000D02*
X95940000Y-111360000D01*
X95940000Y-111360000D02*
X95940000Y-111850000D01*
X95940000Y-111850000D02*
X96530000Y-111260000D01*
X95750001Y-112050000D02*
X96020000Y-112050000D01*
X96020000Y-112050000D02*
X96540000Y-111530000D01*
%TD*%
D27*
%TO.N,/BB_SW1*%
G36*
X107100000Y-112613270D02*
G01*
X102292893Y-113300000D01*
X98396820Y-113300000D01*
X98326881Y-113262617D01*
X98227918Y-113232597D01*
X98150788Y-113225000D01*
X98150780Y-113225000D01*
X98125000Y-113222461D01*
X98099220Y-113225000D01*
X97419647Y-113225000D01*
X97407319Y-113223786D01*
X97473087Y-113188632D01*
X97553028Y-113123026D01*
X97569472Y-113102989D01*
X97999531Y-112672930D01*
X98036117Y-112653375D01*
X98100520Y-112600520D01*
X98153375Y-112536117D01*
X98172930Y-112499531D01*
X98452996Y-112219466D01*
X98473027Y-112203027D01*
X98538633Y-112123086D01*
X98587383Y-112031881D01*
X98617403Y-111932918D01*
X98625000Y-111855788D01*
X98625000Y-111855781D01*
X98627539Y-111830001D01*
X98625000Y-111804221D01*
X98625000Y-111757806D01*
X98658032Y-111700000D01*
X99900000Y-111700000D01*
X99919509Y-111698079D01*
X99938268Y-111692388D01*
X99955557Y-111683147D01*
X99970711Y-111670711D01*
X99983147Y-111655557D01*
X99992388Y-111638268D01*
X99998079Y-111619509D01*
X100000000Y-111600000D01*
X100000000Y-108600000D01*
X107100000Y-108600000D01*
X107100000Y-112613270D01*
G37*
X107100000Y-112613270D02*
X102292893Y-113300000D01*
X98396820Y-113300000D01*
X98326881Y-113262617D01*
X98227918Y-113232597D01*
X98150788Y-113225000D01*
X98150780Y-113225000D01*
X98125000Y-113222461D01*
X98099220Y-113225000D01*
X97419647Y-113225000D01*
X97407319Y-113223786D01*
X97473087Y-113188632D01*
X97553028Y-113123026D01*
X97569472Y-113102989D01*
X97999531Y-112672930D01*
X98036117Y-112653375D01*
X98100520Y-112600520D01*
X98153375Y-112536117D01*
X98172930Y-112499531D01*
X98452996Y-112219466D01*
X98473027Y-112203027D01*
X98538633Y-112123086D01*
X98587383Y-112031881D01*
X98617403Y-111932918D01*
X98625000Y-111855788D01*
X98625000Y-111855781D01*
X98627539Y-111830001D01*
X98625000Y-111804221D01*
X98625000Y-111757806D01*
X98658032Y-111700000D01*
X99900000Y-111700000D01*
X99919509Y-111698079D01*
X99938268Y-111692388D01*
X99955557Y-111683147D01*
X99970711Y-111670711D01*
X99983147Y-111655557D01*
X99992388Y-111638268D01*
X99998079Y-111619509D01*
X100000000Y-111600000D01*
X100000000Y-108600000D01*
X107100000Y-108600000D01*
X107100000Y-112613270D01*
%TO.N,/BB_SW2*%
G36*
X107100000Y-114484997D02*
G01*
X107100000Y-118000000D01*
X100000000Y-118000000D01*
X100000000Y-115200000D01*
X99998079Y-115180491D01*
X99992388Y-115161732D01*
X99983147Y-115144443D01*
X99970711Y-115129289D01*
X99955557Y-115116853D01*
X99938268Y-115107612D01*
X99919509Y-115101921D01*
X99900000Y-115100000D01*
X98627539Y-115100000D01*
X98627539Y-115099999D01*
X98625000Y-115074219D01*
X98625000Y-115074212D01*
X98617403Y-114997082D01*
X98587383Y-114898119D01*
X98538633Y-114806914D01*
X98473027Y-114726973D01*
X98452996Y-114710534D01*
X97639472Y-113897011D01*
X97623028Y-113876974D01*
X97543087Y-113811368D01*
X97521819Y-113800000D01*
X102300000Y-113800000D01*
X102356569Y-113795980D01*
X102635609Y-113756117D01*
X107100000Y-114484997D01*
G37*
X107100000Y-114484997D02*
X107100000Y-118000000D01*
X100000000Y-118000000D01*
X100000000Y-115200000D01*
X99998079Y-115180491D01*
X99992388Y-115161732D01*
X99983147Y-115144443D01*
X99970711Y-115129289D01*
X99955557Y-115116853D01*
X99938268Y-115107612D01*
X99919509Y-115101921D01*
X99900000Y-115100000D01*
X98627539Y-115100000D01*
X98627539Y-115099999D01*
X98625000Y-115074219D01*
X98625000Y-115074212D01*
X98617403Y-114997082D01*
X98587383Y-114898119D01*
X98538633Y-114806914D01*
X98473027Y-114726973D01*
X98452996Y-114710534D01*
X97639472Y-113897011D01*
X97623028Y-113876974D01*
X97543087Y-113811368D01*
X97521819Y-113800000D01*
X102300000Y-113800000D01*
X102356569Y-113795980D01*
X102635609Y-113756117D01*
X107100000Y-114484997D01*
%TO.N,/BB_VIN_FILT*%
G36*
X112500000Y-103600000D02*
G01*
X110900000Y-103600000D01*
X110880491Y-103601921D01*
X110861732Y-103607612D01*
X110844443Y-103616853D01*
X110829289Y-103629289D01*
X107058578Y-107400000D01*
X99000000Y-107400000D01*
X98980491Y-107401921D01*
X98961732Y-107407612D01*
X98944443Y-107416853D01*
X98929289Y-107429289D01*
X98913622Y-107449613D01*
X98214394Y-108648290D01*
X97715200Y-109447000D01*
X97706490Y-109464562D01*
X97701373Y-109483486D01*
X97700000Y-109500000D01*
X97700000Y-111020434D01*
X97691993Y-111030190D01*
X97691987Y-111030196D01*
X97640479Y-111092958D01*
X97614653Y-111141277D01*
X97589409Y-111188506D01*
X97557958Y-111292181D01*
X97550000Y-111372982D01*
X97550000Y-111372992D01*
X97547340Y-111400000D01*
X97550000Y-111427008D01*
X97550000Y-111602182D01*
X96954240Y-112197943D01*
X96350001Y-112197943D01*
X96350001Y-111700000D01*
X96345631Y-111655431D01*
X96341587Y-111610994D01*
X96341118Y-111609400D01*
X96340955Y-111607739D01*
X96328023Y-111564907D01*
X96315413Y-111522062D01*
X96314641Y-111520586D01*
X96314160Y-111518992D01*
X96293175Y-111479524D01*
X96272464Y-111439907D01*
X96271421Y-111438610D01*
X96270639Y-111437139D01*
X96242407Y-111402523D01*
X96214376Y-111367660D01*
X96213098Y-111366588D01*
X96212047Y-111365299D01*
X96177604Y-111336805D01*
X96143360Y-111308071D01*
X96141903Y-111307270D01*
X96140618Y-111306207D01*
X96101239Y-111284915D01*
X96062123Y-111263411D01*
X96060538Y-111262908D01*
X96059071Y-111262115D01*
X96016347Y-111248890D01*
X95973759Y-111235380D01*
X95972103Y-111235194D01*
X95970513Y-111234702D01*
X95926118Y-111230036D01*
X95881633Y-111225046D01*
X95878429Y-111225024D01*
X95878317Y-111225012D01*
X95878205Y-111225022D01*
X95875001Y-111225000D01*
X95800000Y-111225000D01*
X95800000Y-109827011D01*
X95802660Y-109800000D01*
X95800000Y-109772989D01*
X95800000Y-109772982D01*
X95792042Y-109692181D01*
X95760592Y-109588506D01*
X95709521Y-109492958D01*
X95640790Y-109409210D01*
X95619804Y-109391987D01*
X95300000Y-109072183D01*
X95300000Y-107300000D01*
X95298079Y-107280491D01*
X95292388Y-107261732D01*
X95283147Y-107244443D01*
X95270711Y-107229289D01*
X95255557Y-107216853D01*
X95238268Y-107207612D01*
X95219509Y-107201921D01*
X95200000Y-107200000D01*
X86800000Y-107200000D01*
X86800000Y-104800000D01*
X90200000Y-104800000D01*
X90219509Y-104798079D01*
X90238268Y-104792388D01*
X90255557Y-104783147D01*
X90270711Y-104770711D01*
X90278087Y-104762470D01*
X91048063Y-103800000D01*
X103300000Y-103800000D01*
X103319509Y-103798079D01*
X103338268Y-103792388D01*
X103355557Y-103783147D01*
X103370711Y-103770711D01*
X103384800Y-103753000D01*
X106855425Y-98200000D01*
X112500000Y-98200000D01*
X112500000Y-103600000D01*
G37*
X112500000Y-103600000D02*
X110900000Y-103600000D01*
X110880491Y-103601921D01*
X110861732Y-103607612D01*
X110844443Y-103616853D01*
X110829289Y-103629289D01*
X107058578Y-107400000D01*
X99000000Y-107400000D01*
X98980491Y-107401921D01*
X98961732Y-107407612D01*
X98944443Y-107416853D01*
X98929289Y-107429289D01*
X98913622Y-107449613D01*
X98214394Y-108648290D01*
X97715200Y-109447000D01*
X97706490Y-109464562D01*
X97701373Y-109483486D01*
X97700000Y-109500000D01*
X97700000Y-111020434D01*
X97691993Y-111030190D01*
X97691987Y-111030196D01*
X97640479Y-111092958D01*
X97614653Y-111141277D01*
X97589409Y-111188506D01*
X97557958Y-111292181D01*
X97550000Y-111372982D01*
X97550000Y-111372992D01*
X97547340Y-111400000D01*
X97550000Y-111427008D01*
X97550000Y-111602182D01*
X96954240Y-112197943D01*
X96350001Y-112197943D01*
X96350001Y-111700000D01*
X96345631Y-111655431D01*
X96341587Y-111610994D01*
X96341118Y-111609400D01*
X96340955Y-111607739D01*
X96328023Y-111564907D01*
X96315413Y-111522062D01*
X96314641Y-111520586D01*
X96314160Y-111518992D01*
X96293175Y-111479524D01*
X96272464Y-111439907D01*
X96271421Y-111438610D01*
X96270639Y-111437139D01*
X96242407Y-111402523D01*
X96214376Y-111367660D01*
X96213098Y-111366588D01*
X96212047Y-111365299D01*
X96177604Y-111336805D01*
X96143360Y-111308071D01*
X96141903Y-111307270D01*
X96140618Y-111306207D01*
X96101239Y-111284915D01*
X96062123Y-111263411D01*
X96060538Y-111262908D01*
X96059071Y-111262115D01*
X96016347Y-111248890D01*
X95973759Y-111235380D01*
X95972103Y-111235194D01*
X95970513Y-111234702D01*
X95926118Y-111230036D01*
X95881633Y-111225046D01*
X95878429Y-111225024D01*
X95878317Y-111225012D01*
X95878205Y-111225022D01*
X95875001Y-111225000D01*
X95800000Y-111225000D01*
X95800000Y-109827011D01*
X95802660Y-109800000D01*
X95800000Y-109772989D01*
X95800000Y-109772982D01*
X95792042Y-109692181D01*
X95760592Y-109588506D01*
X95709521Y-109492958D01*
X95640790Y-109409210D01*
X95619804Y-109391987D01*
X95300000Y-109072183D01*
X95300000Y-107300000D01*
X95298079Y-107280491D01*
X95292388Y-107261732D01*
X95283147Y-107244443D01*
X95270711Y-107229289D01*
X95255557Y-107216853D01*
X95238268Y-107207612D01*
X95219509Y-107201921D01*
X95200000Y-107200000D01*
X86800000Y-107200000D01*
X86800000Y-104800000D01*
X90200000Y-104800000D01*
X90219509Y-104798079D01*
X90238268Y-104792388D01*
X90255557Y-104783147D01*
X90270711Y-104770711D01*
X90278087Y-104762470D01*
X91048063Y-103800000D01*
X103300000Y-103800000D01*
X103319509Y-103798079D01*
X103338268Y-103792388D01*
X103355557Y-103783147D01*
X103370711Y-103770711D01*
X103384800Y-103753000D01*
X106855425Y-98200000D01*
X112500000Y-98200000D01*
X112500000Y-103600000D01*
%TO.N,/BB_VOUT_FILT*%
G36*
X112650000Y-123900000D02*
G01*
X107850000Y-123900000D01*
X107850000Y-122250000D01*
X107848079Y-122230491D01*
X107842388Y-122211732D01*
X107833147Y-122194443D01*
X107820711Y-122179289D01*
X107805557Y-122166853D01*
X107788268Y-122157612D01*
X107769509Y-122151921D01*
X107750000Y-122150000D01*
X87850000Y-122150000D01*
X87850000Y-120350000D01*
X89500000Y-120350000D01*
X89519509Y-120348079D01*
X89538268Y-120342388D01*
X89555557Y-120333147D01*
X89570711Y-120320711D01*
X89583147Y-120305557D01*
X89592388Y-120288268D01*
X89598079Y-120269509D01*
X89600000Y-120250000D01*
X89600000Y-118850000D01*
X90400000Y-118850000D01*
X90400000Y-120250000D01*
X90401921Y-120269509D01*
X90407612Y-120288268D01*
X90416853Y-120305557D01*
X90429289Y-120320711D01*
X90444443Y-120333147D01*
X90461732Y-120342388D01*
X90480491Y-120348079D01*
X90500000Y-120350000D01*
X96000000Y-120350000D01*
X96019509Y-120348079D01*
X96038268Y-120342388D01*
X96055557Y-120333147D01*
X96070711Y-120320711D01*
X96083147Y-120305557D01*
X96092388Y-120288268D01*
X96098079Y-120269509D01*
X96100000Y-120250000D01*
X96100000Y-118850000D01*
X96150000Y-118850000D01*
X96169509Y-118848079D01*
X96188268Y-118842388D01*
X96205557Y-118833147D01*
X96220711Y-118820711D01*
X96233147Y-118805557D01*
X96242388Y-118788268D01*
X96248079Y-118769509D01*
X96250000Y-118750000D01*
X96250000Y-116650000D01*
X96248079Y-116630491D01*
X96242388Y-116611732D01*
X96236193Y-116599298D01*
X95763805Y-115796239D01*
X95769212Y-115778414D01*
X95776935Y-115700000D01*
X95776935Y-114700000D01*
X95865489Y-114700000D01*
X95876697Y-114709198D01*
X95946186Y-114746341D01*
X96021586Y-114769213D01*
X96100000Y-114776936D01*
X97034475Y-114776936D01*
X97575000Y-115317462D01*
X97575000Y-115424222D01*
X97572461Y-115450002D01*
X97575000Y-115475782D01*
X97575000Y-115475790D01*
X97582597Y-115552920D01*
X97591704Y-115582940D01*
X97612617Y-115651882D01*
X97655574Y-115732249D01*
X97661368Y-115743088D01*
X97726974Y-115823029D01*
X97747005Y-115839468D01*
X97769667Y-115862130D01*
X97800000Y-115964504D01*
X97800000Y-117500000D01*
X97801921Y-117519509D01*
X97807612Y-117538268D01*
X97814251Y-117551450D01*
X98114251Y-118051450D01*
X98116795Y-118055470D01*
X98916795Y-119255470D01*
X98929215Y-119270637D01*
X98944356Y-119283089D01*
X98961635Y-119292348D01*
X98980388Y-119298058D01*
X99000000Y-119300000D01*
X108500000Y-119300000D01*
X108519509Y-119298079D01*
X108538268Y-119292388D01*
X108555557Y-119283147D01*
X108570711Y-119270711D01*
X108583147Y-119255557D01*
X108592388Y-119238268D01*
X108598079Y-119219509D01*
X108600000Y-119200000D01*
X108600000Y-108600000D01*
X112650000Y-108600000D01*
X112650000Y-123900000D01*
G37*
X112650000Y-123900000D02*
X107850000Y-123900000D01*
X107850000Y-122250000D01*
X107848079Y-122230491D01*
X107842388Y-122211732D01*
X107833147Y-122194443D01*
X107820711Y-122179289D01*
X107805557Y-122166853D01*
X107788268Y-122157612D01*
X107769509Y-122151921D01*
X107750000Y-122150000D01*
X87850000Y-122150000D01*
X87850000Y-120350000D01*
X89500000Y-120350000D01*
X89519509Y-120348079D01*
X89538268Y-120342388D01*
X89555557Y-120333147D01*
X89570711Y-120320711D01*
X89583147Y-120305557D01*
X89592388Y-120288268D01*
X89598079Y-120269509D01*
X89600000Y-120250000D01*
X89600000Y-118850000D01*
X90400000Y-118850000D01*
X90400000Y-120250000D01*
X90401921Y-120269509D01*
X90407612Y-120288268D01*
X90416853Y-120305557D01*
X90429289Y-120320711D01*
X90444443Y-120333147D01*
X90461732Y-120342388D01*
X90480491Y-120348079D01*
X90500000Y-120350000D01*
X96000000Y-120350000D01*
X96019509Y-120348079D01*
X96038268Y-120342388D01*
X96055557Y-120333147D01*
X96070711Y-120320711D01*
X96083147Y-120305557D01*
X96092388Y-120288268D01*
X96098079Y-120269509D01*
X96100000Y-120250000D01*
X96100000Y-118850000D01*
X96150000Y-118850000D01*
X96169509Y-118848079D01*
X96188268Y-118842388D01*
X96205557Y-118833147D01*
X96220711Y-118820711D01*
X96233147Y-118805557D01*
X96242388Y-118788268D01*
X96248079Y-118769509D01*
X96250000Y-118750000D01*
X96250000Y-116650000D01*
X96248079Y-116630491D01*
X96242388Y-116611732D01*
X96236193Y-116599298D01*
X95763805Y-115796239D01*
X95769212Y-115778414D01*
X95776935Y-115700000D01*
X95776935Y-114700000D01*
X95865489Y-114700000D01*
X95876697Y-114709198D01*
X95946186Y-114746341D01*
X96021586Y-114769213D01*
X96100000Y-114776936D01*
X97034475Y-114776936D01*
X97575000Y-115317462D01*
X97575000Y-115424222D01*
X97572461Y-115450002D01*
X97575000Y-115475782D01*
X97575000Y-115475790D01*
X97582597Y-115552920D01*
X97591704Y-115582940D01*
X97612617Y-115651882D01*
X97655574Y-115732249D01*
X97661368Y-115743088D01*
X97726974Y-115823029D01*
X97747005Y-115839468D01*
X97769667Y-115862130D01*
X97800000Y-115964504D01*
X97800000Y-117500000D01*
X97801921Y-117519509D01*
X97807612Y-117538268D01*
X97814251Y-117551450D01*
X98114251Y-118051450D01*
X98116795Y-118055470D01*
X98916795Y-119255470D01*
X98929215Y-119270637D01*
X98944356Y-119283089D01*
X98961635Y-119292348D01*
X98980388Y-119298058D01*
X99000000Y-119300000D01*
X108500000Y-119300000D01*
X108519509Y-119298079D01*
X108538268Y-119292388D01*
X108555557Y-119283147D01*
X108570711Y-119270711D01*
X108583147Y-119255557D01*
X108592388Y-119238268D01*
X108598079Y-119219509D01*
X108600000Y-119200000D01*
X108600000Y-108600000D01*
X112650000Y-108600000D01*
X112650000Y-123900000D01*
%TO.N,GNDREF*%
G36*
X113991992Y-91053235D02*
G01*
X113553235Y-91491992D01*
X113208506Y-92007915D01*
X112971052Y-92581179D01*
X112850000Y-93189752D01*
X112850000Y-93810248D01*
X112971052Y-94418821D01*
X113208506Y-94992085D01*
X113553235Y-95508008D01*
X113991992Y-95946765D01*
X114507915Y-96291494D01*
X115081179Y-96528948D01*
X115689752Y-96650000D01*
X116310248Y-96650000D01*
X116918821Y-96528948D01*
X117492085Y-96291494D01*
X118008008Y-95946765D01*
X118446765Y-95508008D01*
X118575001Y-95316089D01*
X118575000Y-130683909D01*
X118446765Y-130491992D01*
X118008008Y-130053235D01*
X117492085Y-129708506D01*
X116918821Y-129471052D01*
X116310248Y-129350000D01*
X115689752Y-129350000D01*
X115081179Y-129471052D01*
X114507915Y-129708506D01*
X113991992Y-130053235D01*
X113553235Y-130491992D01*
X113208506Y-131007915D01*
X112971052Y-131581179D01*
X112850000Y-132189752D01*
X112850000Y-132810248D01*
X112971052Y-133418821D01*
X113208506Y-133992085D01*
X113553235Y-134508008D01*
X113991992Y-134946765D01*
X114183909Y-135075000D01*
X73816091Y-135075000D01*
X74008008Y-134946765D01*
X74446765Y-134508008D01*
X74791494Y-133992085D01*
X75028948Y-133418821D01*
X75150000Y-132810248D01*
X75150000Y-132189752D01*
X75028948Y-131581179D01*
X74791494Y-131007915D01*
X74446765Y-130491992D01*
X74008008Y-130053235D01*
X73492085Y-129708506D01*
X72918821Y-129471052D01*
X72310248Y-129350000D01*
X71689752Y-129350000D01*
X71081179Y-129471052D01*
X70507915Y-129708506D01*
X69991992Y-130053235D01*
X69553235Y-130491992D01*
X69425000Y-130683909D01*
X69425000Y-121520790D01*
X69437951Y-121388710D01*
X69470271Y-121281661D01*
X69522770Y-121182924D01*
X69593439Y-121096275D01*
X69679605Y-121024992D01*
X69777968Y-120971807D01*
X69884786Y-120938742D01*
X70032328Y-120923234D01*
X70033917Y-120923072D01*
X70052482Y-120923202D01*
X70058388Y-120922623D01*
X70446581Y-120881822D01*
X70484290Y-120874081D01*
X70522151Y-120866859D01*
X70527832Y-120865143D01*
X70900707Y-120749719D01*
X70936182Y-120734807D01*
X70971932Y-120720363D01*
X70977171Y-120717577D01*
X71320526Y-120531926D01*
X71352437Y-120510402D01*
X71384693Y-120489294D01*
X71389292Y-120485543D01*
X71690047Y-120236736D01*
X71717185Y-120209408D01*
X71744710Y-120182453D01*
X71748492Y-120177881D01*
X71995193Y-119875396D01*
X72016513Y-119843308D01*
X72038272Y-119811529D01*
X72041090Y-119806317D01*
X72041095Y-119806309D01*
X72041098Y-119806301D01*
X72224344Y-119461667D01*
X72239017Y-119426068D01*
X72254198Y-119390648D01*
X72255953Y-119384979D01*
X72368771Y-119011308D01*
X72376253Y-118973523D01*
X72384262Y-118935844D01*
X72384882Y-118929942D01*
X72422972Y-118541473D01*
X72422972Y-118522904D01*
X72424977Y-118504443D01*
X72424997Y-118498508D01*
X72424948Y-118484546D01*
X72423072Y-118466083D01*
X72423202Y-118447518D01*
X72422623Y-118441612D01*
X72381822Y-118053419D01*
X72374080Y-118015704D01*
X72366859Y-117977849D01*
X72365143Y-117972168D01*
X72249719Y-117599293D01*
X72234802Y-117563806D01*
X72220363Y-117528068D01*
X72217577Y-117522829D01*
X72217577Y-117522828D01*
X72217574Y-117522824D01*
X72031926Y-117179474D01*
X72010396Y-117147554D01*
X71989293Y-117115306D01*
X71985543Y-117110708D01*
X71736736Y-116809953D01*
X71709391Y-116782799D01*
X71682453Y-116755290D01*
X71677886Y-116751513D01*
X71677880Y-116751507D01*
X71677873Y-116751503D01*
X71375396Y-116504807D01*
X71343334Y-116483505D01*
X71311529Y-116461727D01*
X71306308Y-116458905D01*
X70961667Y-116275656D01*
X70926089Y-116260991D01*
X70890648Y-116245801D01*
X70884983Y-116244048D01*
X70884977Y-116244046D01*
X70511307Y-116131229D01*
X70473537Y-116123750D01*
X70435844Y-116115738D01*
X70429942Y-116115118D01*
X70041473Y-116077028D01*
X69888711Y-116062049D01*
X69781661Y-116029729D01*
X69682926Y-115977231D01*
X69596272Y-115906558D01*
X69524993Y-115820396D01*
X69471807Y-115722031D01*
X69438741Y-115615213D01*
X69425000Y-115484475D01*
X69425000Y-99900000D01*
X70772461Y-99900000D01*
X70775001Y-99925790D01*
X70775000Y-107874220D01*
X70772461Y-107900000D01*
X70775000Y-107925780D01*
X70775000Y-107925787D01*
X70782597Y-108002917D01*
X70812617Y-108101880D01*
X70861367Y-108193086D01*
X70926973Y-108273027D01*
X70947010Y-108289471D01*
X73210534Y-110552996D01*
X73226973Y-110573027D01*
X73306914Y-110638633D01*
X73398119Y-110687383D01*
X73497082Y-110717403D01*
X73574212Y-110725000D01*
X73574219Y-110725000D01*
X73599999Y-110727539D01*
X73625779Y-110725000D01*
X74458120Y-110725000D01*
X74340212Y-110901461D01*
X74244959Y-111131421D01*
X74196400Y-111375546D01*
X74196400Y-111624454D01*
X74244959Y-111868579D01*
X74340212Y-112098539D01*
X74478498Y-112305498D01*
X74654502Y-112481502D01*
X74861461Y-112619788D01*
X75091421Y-112715041D01*
X75335546Y-112763600D01*
X75584454Y-112763600D01*
X75828579Y-112715041D01*
X75902118Y-112684580D01*
X76320534Y-113102996D01*
X76336973Y-113123027D01*
X76416914Y-113188633D01*
X76508119Y-113237383D01*
X76607082Y-113267403D01*
X76684212Y-113275000D01*
X76684220Y-113275000D01*
X76710000Y-113277539D01*
X76735780Y-113275000D01*
X80282539Y-113275000D01*
X80450000Y-113442461D01*
X80450000Y-113578789D01*
X80480743Y-113733347D01*
X80541049Y-113878938D01*
X80628599Y-114009966D01*
X80740030Y-114121397D01*
X80871058Y-114208947D01*
X81016649Y-114269253D01*
X81171207Y-114299996D01*
X81328793Y-114299996D01*
X81483351Y-114269253D01*
X81625001Y-114210580D01*
X81625000Y-115432537D01*
X81350000Y-115707538D01*
X80927996Y-115285535D01*
X80589471Y-114947010D01*
X80573027Y-114926973D01*
X80493086Y-114861367D01*
X80401881Y-114812617D01*
X80302918Y-114782597D01*
X80225788Y-114775000D01*
X80225780Y-114775000D01*
X80200000Y-114772461D01*
X80174220Y-114775000D01*
X76937462Y-114775000D01*
X76644580Y-114482118D01*
X76675041Y-114408579D01*
X76723600Y-114164454D01*
X76723600Y-113915546D01*
X76675041Y-113671421D01*
X76579788Y-113441461D01*
X76441502Y-113234502D01*
X76265498Y-113058498D01*
X76058539Y-112920212D01*
X75828579Y-112824959D01*
X75584454Y-112776400D01*
X75335546Y-112776400D01*
X75091421Y-112824959D01*
X74861461Y-112920212D01*
X74654502Y-113058498D01*
X74478498Y-113234502D01*
X74340212Y-113441461D01*
X74244959Y-113671421D01*
X74196400Y-113915546D01*
X74196400Y-114164454D01*
X74244959Y-114408579D01*
X74340212Y-114638539D01*
X74478498Y-114845498D01*
X74654502Y-115021502D01*
X74861461Y-115159788D01*
X75091421Y-115255041D01*
X75335546Y-115303600D01*
X75584454Y-115303600D01*
X75828579Y-115255041D01*
X75902118Y-115224580D01*
X76330534Y-115652996D01*
X76346973Y-115673027D01*
X76393378Y-115711111D01*
X76384265Y-115722215D01*
X76338060Y-115808658D01*
X76309607Y-115902455D01*
X76300000Y-116000000D01*
X76300000Y-121300000D01*
X76303412Y-121358314D01*
X76324330Y-121454073D01*
X76363528Y-121543911D01*
X78200000Y-124830229D01*
X78200000Y-134000000D01*
X78209607Y-134097545D01*
X78238060Y-134191342D01*
X78284265Y-134277785D01*
X78346447Y-134353553D01*
X78422215Y-134415735D01*
X78508658Y-134461940D01*
X78602455Y-134490393D01*
X78700000Y-134500000D01*
X91000000Y-134500000D01*
X91132063Y-134482244D01*
X91223607Y-134447214D01*
X92118035Y-134000000D01*
X99881965Y-134000000D01*
X100776393Y-134447214D01*
X100902455Y-134490393D01*
X101000000Y-134500000D01*
X110800000Y-134500000D01*
X110897545Y-134490393D01*
X110991342Y-134461940D01*
X111077785Y-134415735D01*
X111153553Y-134353553D01*
X111215735Y-134277785D01*
X111261940Y-134191342D01*
X111290393Y-134097545D01*
X111300000Y-134000000D01*
X111300000Y-125500000D01*
X111290393Y-125402455D01*
X111261940Y-125308658D01*
X111215735Y-125222215D01*
X111153553Y-125146447D01*
X111077785Y-125084265D01*
X110991342Y-125038060D01*
X110897545Y-125009607D01*
X110800000Y-125000000D01*
X107000000Y-125000000D01*
X107000000Y-123500000D01*
X106990393Y-123402455D01*
X106961940Y-123308658D01*
X106915735Y-123222215D01*
X106853553Y-123146447D01*
X106777785Y-123084265D01*
X106691342Y-123038060D01*
X106597545Y-123009607D01*
X106500000Y-123000000D01*
X103600000Y-123000000D01*
X103502455Y-123009607D01*
X103408658Y-123038060D01*
X103322215Y-123084265D01*
X103246447Y-123146447D01*
X103184265Y-123222215D01*
X103138060Y-123308658D01*
X103109607Y-123402455D01*
X103100000Y-123500000D01*
X103100000Y-124800000D01*
X101800000Y-124800000D01*
X101702455Y-124809607D01*
X101608658Y-124838060D01*
X101522215Y-124884265D01*
X101446447Y-124946447D01*
X101384265Y-125022215D01*
X101338060Y-125108658D01*
X101309607Y-125202455D01*
X101300000Y-125300000D01*
X101300000Y-128800000D01*
X84455506Y-128800000D01*
X83797836Y-121753535D01*
X83768099Y-121624263D01*
X83724820Y-121536319D01*
X80502758Y-116345220D01*
X80960535Y-116802997D01*
X80976973Y-116823027D01*
X80997003Y-116839465D01*
X80997007Y-116839469D01*
X84975001Y-120817464D01*
X84975000Y-124974220D01*
X84972461Y-125000000D01*
X84975000Y-125025780D01*
X84975000Y-125025787D01*
X84982597Y-125102917D01*
X85012617Y-125201880D01*
X85061367Y-125293086D01*
X85126973Y-125373027D01*
X85147010Y-125389471D01*
X86748065Y-126990527D01*
X86748065Y-128350000D01*
X86755788Y-128428414D01*
X86778660Y-128503814D01*
X86815803Y-128573303D01*
X86865789Y-128634211D01*
X86926697Y-128684197D01*
X86996186Y-128721340D01*
X87071586Y-128744212D01*
X87150000Y-128751935D01*
X88850000Y-128751935D01*
X88928414Y-128744212D01*
X89003814Y-128721340D01*
X89073303Y-128684197D01*
X89134211Y-128634211D01*
X89184197Y-128573303D01*
X89221340Y-128503814D01*
X89244212Y-128428414D01*
X89251935Y-128350000D01*
X89251935Y-126650000D01*
X89244212Y-126571586D01*
X89221340Y-126496186D01*
X89184197Y-126426697D01*
X89134211Y-126365789D01*
X89073303Y-126315803D01*
X89003814Y-126278660D01*
X88928414Y-126255788D01*
X88850000Y-126248065D01*
X87490527Y-126248065D01*
X87393659Y-126151197D01*
X87447082Y-126167403D01*
X87524212Y-126175000D01*
X87524219Y-126175000D01*
X87549999Y-126177539D01*
X87575779Y-126175000D01*
X89707539Y-126175000D01*
X89934056Y-126401517D01*
X89743172Y-126529062D01*
X89569062Y-126703172D01*
X89432265Y-126907903D01*
X89338037Y-127135389D01*
X89290000Y-127376886D01*
X89290000Y-127623114D01*
X89338037Y-127864611D01*
X89432265Y-128092097D01*
X89569062Y-128296828D01*
X89743172Y-128470938D01*
X89947903Y-128607735D01*
X90175389Y-128701963D01*
X90416886Y-128750000D01*
X90663114Y-128750000D01*
X90904611Y-128701963D01*
X91132097Y-128607735D01*
X91336828Y-128470938D01*
X91510938Y-128296828D01*
X91647735Y-128092097D01*
X91741963Y-127864611D01*
X91790000Y-127623114D01*
X91790000Y-127376886D01*
X91741963Y-127135389D01*
X91647735Y-126907903D01*
X91510938Y-126703172D01*
X91336828Y-126529062D01*
X91132097Y-126392265D01*
X91065000Y-126364472D01*
X91065000Y-126290779D01*
X91067539Y-126264999D01*
X91065000Y-126239219D01*
X91065000Y-126239212D01*
X91057403Y-126162082D01*
X91027383Y-126063119D01*
X90978633Y-125971914D01*
X90913027Y-125891973D01*
X90892995Y-125875533D01*
X90314471Y-125297010D01*
X90298027Y-125276973D01*
X90218086Y-125211367D01*
X90126881Y-125162617D01*
X90027918Y-125132597D01*
X89950788Y-125125000D01*
X89950780Y-125125000D01*
X89925000Y-125122461D01*
X89899220Y-125125000D01*
X87767462Y-125125000D01*
X86800000Y-124157539D01*
X86800000Y-120200779D01*
X86802539Y-120174999D01*
X86800000Y-120149219D01*
X86800000Y-120149212D01*
X86792403Y-120072082D01*
X86762383Y-119973119D01*
X86713633Y-119881914D01*
X86648027Y-119801973D01*
X86627996Y-119785534D01*
X83525000Y-116682539D01*
X83525000Y-114106371D01*
X83621401Y-114009970D01*
X83708951Y-113878942D01*
X83769257Y-113733351D01*
X83800000Y-113578793D01*
X83800000Y-113421207D01*
X83769257Y-113266649D01*
X83708951Y-113121058D01*
X83621401Y-112990030D01*
X83509970Y-112878599D01*
X83378942Y-112791049D01*
X83233351Y-112730743D01*
X83078793Y-112700000D01*
X83042461Y-112700000D01*
X84667462Y-111075000D01*
X88482539Y-111075000D01*
X88633335Y-111225796D01*
X88532201Y-111171739D01*
X88412248Y-111135352D01*
X88287500Y-111123065D01*
X88209534Y-111123065D01*
X88176430Y-111113023D01*
X88000000Y-111095646D01*
X87823569Y-111113023D01*
X87790465Y-111123065D01*
X87712500Y-111123065D01*
X87587752Y-111135352D01*
X87467799Y-111171739D01*
X87357249Y-111230829D01*
X87260351Y-111310351D01*
X87180829Y-111407249D01*
X87121739Y-111517799D01*
X87085352Y-111637752D01*
X87073065Y-111762500D01*
X87073065Y-112237500D01*
X87085352Y-112362248D01*
X87100000Y-112410537D01*
X87100001Y-113089461D01*
X87085352Y-113137752D01*
X87073065Y-113262500D01*
X87073065Y-113737500D01*
X87085352Y-113862248D01*
X87121739Y-113982201D01*
X87180829Y-114092751D01*
X87260351Y-114189649D01*
X87357249Y-114269171D01*
X87467799Y-114328261D01*
X87587752Y-114364648D01*
X87712500Y-114376935D01*
X87790466Y-114376935D01*
X87823570Y-114386977D01*
X88000000Y-114404354D01*
X88176431Y-114386977D01*
X88209535Y-114376935D01*
X88287500Y-114376935D01*
X88412248Y-114364648D01*
X88532201Y-114328261D01*
X88642751Y-114269171D01*
X88739649Y-114189649D01*
X88819171Y-114092751D01*
X88878261Y-113982201D01*
X88914648Y-113862248D01*
X88926935Y-113737500D01*
X88926935Y-113262500D01*
X88914648Y-113137752D01*
X88900000Y-113089464D01*
X88900000Y-112525000D01*
X89082539Y-112525000D01*
X90532538Y-113975000D01*
X89884474Y-114623065D01*
X89462500Y-114623065D01*
X89337752Y-114635352D01*
X89217799Y-114671739D01*
X89107249Y-114730829D01*
X89010351Y-114810351D01*
X88930829Y-114907249D01*
X88875000Y-115011698D01*
X88819171Y-114907249D01*
X88739649Y-114810351D01*
X88642751Y-114730829D01*
X88532201Y-114671739D01*
X88412248Y-114635352D01*
X88287500Y-114623065D01*
X88209534Y-114623065D01*
X88176430Y-114613023D01*
X88000000Y-114595646D01*
X87823569Y-114613023D01*
X87790465Y-114623065D01*
X87712500Y-114623065D01*
X87587752Y-114635352D01*
X87467799Y-114671739D01*
X87357249Y-114730829D01*
X87260351Y-114810351D01*
X87180829Y-114907249D01*
X87121739Y-115017799D01*
X87085352Y-115137752D01*
X87073065Y-115262500D01*
X87073065Y-115737500D01*
X87085352Y-115862248D01*
X87100000Y-115910537D01*
X87100001Y-117455784D01*
X87095646Y-117500000D01*
X87113023Y-117676431D01*
X87123065Y-117709535D01*
X87123065Y-117787500D01*
X87135352Y-117912248D01*
X87171739Y-118032201D01*
X87230829Y-118142751D01*
X87310351Y-118239649D01*
X87407249Y-118319171D01*
X87517799Y-118378261D01*
X87637752Y-118414648D01*
X87762500Y-118426935D01*
X88237500Y-118426935D01*
X88362248Y-118414648D01*
X88410536Y-118400000D01*
X89310348Y-118400000D01*
X89277772Y-118417412D01*
X89217157Y-118467157D01*
X89167412Y-118527772D01*
X89130448Y-118596927D01*
X89107686Y-118671964D01*
X89100000Y-118750000D01*
X89100000Y-119850000D01*
X87750000Y-119850000D01*
X87671964Y-119857686D01*
X87596927Y-119880448D01*
X87527772Y-119917412D01*
X87467157Y-119967157D01*
X87417412Y-120027772D01*
X87380448Y-120096927D01*
X87357686Y-120171964D01*
X87350000Y-120250000D01*
X87350000Y-122250000D01*
X87357686Y-122328036D01*
X87380448Y-122403073D01*
X87417412Y-122472228D01*
X87467157Y-122532843D01*
X87527772Y-122582588D01*
X87596927Y-122619552D01*
X87671964Y-122642314D01*
X87750000Y-122650000D01*
X107350000Y-122650000D01*
X107350000Y-124000000D01*
X107357686Y-124078036D01*
X107380448Y-124153073D01*
X107417412Y-124222228D01*
X107467157Y-124282843D01*
X107527772Y-124332588D01*
X107596927Y-124369552D01*
X107671964Y-124392314D01*
X107750000Y-124400000D01*
X112750000Y-124400000D01*
X112828036Y-124392314D01*
X112903073Y-124369552D01*
X112972228Y-124332588D01*
X113032843Y-124282843D01*
X113082588Y-124222228D01*
X113119552Y-124153073D01*
X113142314Y-124078036D01*
X113150000Y-124000000D01*
X113150000Y-108500000D01*
X113142314Y-108421964D01*
X113119552Y-108346927D01*
X113082588Y-108277772D01*
X113032843Y-108217157D01*
X112972228Y-108167412D01*
X112903073Y-108130448D01*
X112828036Y-108107686D01*
X112750000Y-108100000D01*
X108500000Y-108100000D01*
X108421964Y-108107686D01*
X108346927Y-108130448D01*
X108277772Y-108167412D01*
X108217157Y-108217157D01*
X108167412Y-108277772D01*
X108130448Y-108346927D01*
X108107686Y-108421964D01*
X108100000Y-108500000D01*
X108100000Y-109696195D01*
X108097691Y-109700515D01*
X108060592Y-109822814D01*
X108048065Y-109950000D01*
X108048065Y-111050000D01*
X108060592Y-111177186D01*
X108097691Y-111299485D01*
X108100000Y-111303805D01*
X108100000Y-118800000D01*
X99214073Y-118800000D01*
X98538098Y-117786037D01*
X98300000Y-117389207D01*
X98300000Y-117102036D01*
X98310351Y-117114649D01*
X98407249Y-117194171D01*
X98517799Y-117253261D01*
X98637752Y-117289648D01*
X98762500Y-117301935D01*
X99237500Y-117301935D01*
X99362248Y-117289648D01*
X99482201Y-117253261D01*
X99500000Y-117243747D01*
X99500000Y-118100000D01*
X99507686Y-118178036D01*
X99530448Y-118253073D01*
X99567412Y-118322228D01*
X99617157Y-118382843D01*
X99677772Y-118432588D01*
X99746927Y-118469552D01*
X99821964Y-118492314D01*
X99900000Y-118500000D01*
X107200000Y-118500000D01*
X107278036Y-118492314D01*
X107353073Y-118469552D01*
X107422228Y-118432588D01*
X107482843Y-118382843D01*
X107532588Y-118322228D01*
X107569552Y-118253073D01*
X107592314Y-118178036D01*
X107600000Y-118100000D01*
X107600000Y-114400000D01*
X107589388Y-114308473D01*
X107564050Y-114234266D01*
X107524722Y-114166428D01*
X107472915Y-114107566D01*
X107410620Y-114059942D01*
X107340231Y-114025386D01*
X107264453Y-114005227D01*
X104290567Y-113519695D01*
X107256569Y-113095980D01*
X107353073Y-113069552D01*
X107422228Y-113032588D01*
X107482843Y-112982843D01*
X107532588Y-112922228D01*
X107569552Y-112853073D01*
X107592314Y-112778036D01*
X107600000Y-112700000D01*
X107600000Y-108500000D01*
X107592314Y-108421964D01*
X107569552Y-108346927D01*
X107532588Y-108277772D01*
X107482843Y-108217157D01*
X107422228Y-108167412D01*
X107353073Y-108130448D01*
X107278036Y-108107686D01*
X107200000Y-108100000D01*
X99900000Y-108100000D01*
X99821964Y-108107686D01*
X99746927Y-108130448D01*
X99677772Y-108167412D01*
X99617157Y-108217157D01*
X99567412Y-108277772D01*
X99530448Y-108346927D01*
X99507686Y-108421964D01*
X99500000Y-108500000D01*
X99500000Y-109631253D01*
X99482201Y-109621739D01*
X99362248Y-109585352D01*
X99237500Y-109573065D01*
X98762500Y-109573065D01*
X98637752Y-109585352D01*
X98517799Y-109621739D01*
X98407249Y-109680829D01*
X98310351Y-109760351D01*
X98230829Y-109857249D01*
X98225000Y-109868154D01*
X98225000Y-109621888D01*
X98660399Y-108925250D01*
X98667106Y-108914145D01*
X99244107Y-107925000D01*
X107100000Y-107925000D01*
X107182913Y-107916834D01*
X107262640Y-107892649D01*
X107336117Y-107853375D01*
X107400520Y-107800520D01*
X111076040Y-104125000D01*
X112600000Y-104125000D01*
X112682913Y-104116834D01*
X112762640Y-104092649D01*
X112836117Y-104053375D01*
X112900520Y-104000520D01*
X112953375Y-103936117D01*
X112992649Y-103862640D01*
X113016834Y-103782913D01*
X113025000Y-103700000D01*
X113025000Y-98100000D01*
X113016834Y-98017087D01*
X112992649Y-97937360D01*
X112953375Y-97863883D01*
X112900520Y-97799480D01*
X112836117Y-97746625D01*
X112762640Y-97707351D01*
X112682913Y-97683166D01*
X112600000Y-97675000D01*
X106800000Y-97675000D01*
X106704435Y-97685884D01*
X106625481Y-97712485D01*
X106553234Y-97753978D01*
X106490470Y-97808768D01*
X106439601Y-97874750D01*
X103064445Y-103275000D01*
X91000000Y-103275000D01*
X90953067Y-103277599D01*
X90871562Y-103294872D01*
X90794993Y-103327713D01*
X90726303Y-103374862D01*
X90668131Y-103434505D01*
X89995735Y-104275000D01*
X86700000Y-104275000D01*
X86617087Y-104283166D01*
X86537360Y-104307351D01*
X86463883Y-104346625D01*
X86399480Y-104399480D01*
X86346625Y-104463883D01*
X86307351Y-104537360D01*
X86283166Y-104617087D01*
X86275000Y-104700000D01*
X86275000Y-107300000D01*
X86283166Y-107382913D01*
X86307351Y-107462640D01*
X86346625Y-107536117D01*
X86399480Y-107600520D01*
X86463883Y-107653375D01*
X86537360Y-107692649D01*
X86617087Y-107716834D01*
X86700000Y-107725000D01*
X94775000Y-107725000D01*
X94775000Y-109300000D01*
X94783166Y-109382913D01*
X94807351Y-109462640D01*
X94846625Y-109536117D01*
X94899480Y-109600520D01*
X95175000Y-109876040D01*
X95175000Y-110780301D01*
X95123027Y-110716972D01*
X95102990Y-110700528D01*
X94999462Y-110597000D01*
X94983018Y-110576963D01*
X94903077Y-110511357D01*
X94811872Y-110462607D01*
X94712909Y-110432587D01*
X94635779Y-110424990D01*
X94635771Y-110424990D01*
X94609991Y-110422451D01*
X94584211Y-110424990D01*
X92192452Y-110424990D01*
X90064471Y-108297010D01*
X90048027Y-108276973D01*
X89968086Y-108211367D01*
X89876881Y-108162617D01*
X89777918Y-108132597D01*
X89700788Y-108125000D01*
X89700780Y-108125000D01*
X89675000Y-108122461D01*
X89649220Y-108125000D01*
X81875779Y-108125000D01*
X81849999Y-108122461D01*
X81824219Y-108125000D01*
X81824212Y-108125000D01*
X81747082Y-108132597D01*
X81648119Y-108162617D01*
X81556914Y-108211367D01*
X81476973Y-108276973D01*
X81460534Y-108297004D01*
X80082539Y-109675000D01*
X77367463Y-109675000D01*
X76723600Y-109031138D01*
X76723600Y-108835546D01*
X76675041Y-108591421D01*
X76579788Y-108361461D01*
X76441502Y-108154502D01*
X76265498Y-107978498D01*
X76058539Y-107840212D01*
X75828579Y-107744959D01*
X75584454Y-107696400D01*
X75335546Y-107696400D01*
X75091421Y-107744959D01*
X74861461Y-107840212D01*
X74654502Y-107978498D01*
X74478498Y-108154502D01*
X74340212Y-108361461D01*
X74309751Y-108435000D01*
X73777462Y-108435000D01*
X72725000Y-107382539D01*
X72725000Y-100900000D01*
X76200000Y-100900000D01*
X76200000Y-107500000D01*
X76209607Y-107597545D01*
X76238060Y-107691342D01*
X76284265Y-107777785D01*
X76346447Y-107853553D01*
X76422215Y-107915735D01*
X76508658Y-107961940D01*
X76602455Y-107990393D01*
X76700000Y-108000000D01*
X78500000Y-108000000D01*
X78591597Y-107991538D01*
X78685731Y-107964224D01*
X78772728Y-107919070D01*
X84948372Y-103900000D01*
X89700000Y-103900000D01*
X89797545Y-103890393D01*
X89891342Y-103861940D01*
X89977785Y-103815735D01*
X90053553Y-103753553D01*
X90115735Y-103677785D01*
X90161940Y-103591342D01*
X90190393Y-103497545D01*
X90200000Y-103400000D01*
X90200000Y-98071343D01*
X91972494Y-96919222D01*
X92053553Y-96853553D01*
X92115735Y-96777785D01*
X92161940Y-96691342D01*
X92190393Y-96597545D01*
X92200000Y-96500000D01*
X92200000Y-94400000D01*
X92190393Y-94302455D01*
X92161940Y-94208658D01*
X92115735Y-94122215D01*
X92053553Y-94046447D01*
X91977785Y-93984265D01*
X91891342Y-93938060D01*
X91797545Y-93909607D01*
X91700000Y-93900000D01*
X85700000Y-93900000D01*
X85602455Y-93909607D01*
X85508658Y-93938060D01*
X85422215Y-93984265D01*
X85346447Y-94046447D01*
X85284265Y-94122215D01*
X85238060Y-94208658D01*
X85209607Y-94302455D01*
X85200000Y-94400000D01*
X85200000Y-96500000D01*
X85205837Y-96576180D01*
X85230195Y-96671123D01*
X85272606Y-96759489D01*
X86900000Y-99439903D01*
X86900000Y-99970301D01*
X85897370Y-100400000D01*
X76700000Y-100400000D01*
X76602455Y-100409607D01*
X76508658Y-100438060D01*
X76422215Y-100484265D01*
X76346447Y-100546447D01*
X76284265Y-100622215D01*
X76238060Y-100708658D01*
X76209607Y-100802455D01*
X76200000Y-100900000D01*
X72725000Y-100900000D01*
X72725000Y-100317461D01*
X74317463Y-98725000D01*
X78674220Y-98725000D01*
X78700000Y-98727539D01*
X78725780Y-98725000D01*
X78725788Y-98725000D01*
X78802918Y-98717403D01*
X78901881Y-98687383D01*
X78993086Y-98638633D01*
X79073027Y-98573027D01*
X79089471Y-98552990D01*
X84417462Y-93225000D01*
X101882539Y-93225000D01*
X102715000Y-94057462D01*
X102715000Y-94364472D01*
X102647903Y-94392265D01*
X102443172Y-94529062D01*
X102269062Y-94703172D01*
X102132265Y-94907903D01*
X102038037Y-95135389D01*
X101990000Y-95376886D01*
X101990000Y-95623114D01*
X102038037Y-95864611D01*
X102132265Y-96092097D01*
X102269062Y-96296828D01*
X102443172Y-96470938D01*
X102647903Y-96607735D01*
X102875389Y-96701963D01*
X103116886Y-96750000D01*
X103363114Y-96750000D01*
X103604611Y-96701963D01*
X103832097Y-96607735D01*
X104036828Y-96470938D01*
X104210938Y-96296828D01*
X104347735Y-96092097D01*
X104441963Y-95864611D01*
X104490000Y-95623114D01*
X104490000Y-95376886D01*
X104441963Y-95135389D01*
X104347735Y-94907903D01*
X104210938Y-94703172D01*
X104036828Y-94529062D01*
X103832097Y-94392265D01*
X103765000Y-94364472D01*
X103765000Y-93865779D01*
X103767539Y-93839999D01*
X103765000Y-93814219D01*
X103765000Y-93814212D01*
X103757403Y-93737082D01*
X103727383Y-93638119D01*
X103678633Y-93546914D01*
X103613027Y-93466973D01*
X103592996Y-93450534D01*
X102667461Y-92525000D01*
X103782539Y-92525000D01*
X105255000Y-93997462D01*
X105255000Y-94364472D01*
X105187903Y-94392265D01*
X104983172Y-94529062D01*
X104809062Y-94703172D01*
X104672265Y-94907903D01*
X104578037Y-95135389D01*
X104530000Y-95376886D01*
X104530000Y-95623114D01*
X104578037Y-95864611D01*
X104672265Y-96092097D01*
X104809062Y-96296828D01*
X104983172Y-96470938D01*
X105187903Y-96607735D01*
X105415389Y-96701963D01*
X105656886Y-96750000D01*
X105903114Y-96750000D01*
X106144611Y-96701963D01*
X106372097Y-96607735D01*
X106576828Y-96470938D01*
X106750938Y-96296828D01*
X106887735Y-96092097D01*
X106981963Y-95864611D01*
X107030000Y-95623114D01*
X107030000Y-95376886D01*
X106981963Y-95135389D01*
X106887735Y-94907903D01*
X106750938Y-94703172D01*
X106576828Y-94529062D01*
X106372097Y-94392265D01*
X106305000Y-94364472D01*
X106305000Y-93805779D01*
X106307539Y-93779999D01*
X106305000Y-93754219D01*
X106305000Y-93754212D01*
X106297403Y-93677082D01*
X106267383Y-93578119D01*
X106218633Y-93486914D01*
X106153027Y-93406973D01*
X106132996Y-93390534D01*
X104389471Y-91647010D01*
X104373027Y-91626973D01*
X104293086Y-91561367D01*
X104201881Y-91512617D01*
X104102918Y-91482597D01*
X104025788Y-91475000D01*
X104025780Y-91475000D01*
X104000000Y-91472461D01*
X103974220Y-91475000D01*
X83325788Y-91475000D01*
X83300000Y-91472460D01*
X83274212Y-91475000D01*
X83197082Y-91482597D01*
X83098119Y-91512617D01*
X83006914Y-91561367D01*
X82926973Y-91626973D01*
X82910534Y-91647004D01*
X77582539Y-96975000D01*
X73725788Y-96975000D01*
X73700000Y-96972460D01*
X73674212Y-96975000D01*
X73597082Y-96982597D01*
X73498119Y-97012617D01*
X73406914Y-97061367D01*
X73326973Y-97126973D01*
X73310534Y-97147004D01*
X70947005Y-99510534D01*
X70926974Y-99526973D01*
X70910535Y-99547004D01*
X70861367Y-99606915D01*
X70812617Y-99698120D01*
X70782597Y-99797083D01*
X70772461Y-99900000D01*
X69425000Y-99900000D01*
X69425000Y-95316091D01*
X69553235Y-95508008D01*
X69991992Y-95946765D01*
X70507915Y-96291494D01*
X71081179Y-96528948D01*
X71689752Y-96650000D01*
X72310248Y-96650000D01*
X72918821Y-96528948D01*
X73492085Y-96291494D01*
X74008008Y-95946765D01*
X74446765Y-95508008D01*
X74791494Y-94992085D01*
X75028948Y-94418821D01*
X75150000Y-93810248D01*
X75150000Y-93189752D01*
X75028948Y-92581179D01*
X74791494Y-92007915D01*
X74446765Y-91491992D01*
X74008008Y-91053235D01*
X73816091Y-90925000D01*
X114183909Y-90925000D01*
X113991992Y-91053235D01*
G37*
X113991992Y-91053235D02*
X113553235Y-91491992D01*
X113208506Y-92007915D01*
X112971052Y-92581179D01*
X112850000Y-93189752D01*
X112850000Y-93810248D01*
X112971052Y-94418821D01*
X113208506Y-94992085D01*
X113553235Y-95508008D01*
X113991992Y-95946765D01*
X114507915Y-96291494D01*
X115081179Y-96528948D01*
X115689752Y-96650000D01*
X116310248Y-96650000D01*
X116918821Y-96528948D01*
X117492085Y-96291494D01*
X118008008Y-95946765D01*
X118446765Y-95508008D01*
X118575001Y-95316089D01*
X118575000Y-130683909D01*
X118446765Y-130491992D01*
X118008008Y-130053235D01*
X117492085Y-129708506D01*
X116918821Y-129471052D01*
X116310248Y-129350000D01*
X115689752Y-129350000D01*
X115081179Y-129471052D01*
X114507915Y-129708506D01*
X113991992Y-130053235D01*
X113553235Y-130491992D01*
X113208506Y-131007915D01*
X112971052Y-131581179D01*
X112850000Y-132189752D01*
X112850000Y-132810248D01*
X112971052Y-133418821D01*
X113208506Y-133992085D01*
X113553235Y-134508008D01*
X113991992Y-134946765D01*
X114183909Y-135075000D01*
X73816091Y-135075000D01*
X74008008Y-134946765D01*
X74446765Y-134508008D01*
X74791494Y-133992085D01*
X75028948Y-133418821D01*
X75150000Y-132810248D01*
X75150000Y-132189752D01*
X75028948Y-131581179D01*
X74791494Y-131007915D01*
X74446765Y-130491992D01*
X74008008Y-130053235D01*
X73492085Y-129708506D01*
X72918821Y-129471052D01*
X72310248Y-129350000D01*
X71689752Y-129350000D01*
X71081179Y-129471052D01*
X70507915Y-129708506D01*
X69991992Y-130053235D01*
X69553235Y-130491992D01*
X69425000Y-130683909D01*
X69425000Y-121520790D01*
X69437951Y-121388710D01*
X69470271Y-121281661D01*
X69522770Y-121182924D01*
X69593439Y-121096275D01*
X69679605Y-121024992D01*
X69777968Y-120971807D01*
X69884786Y-120938742D01*
X70032328Y-120923234D01*
X70033917Y-120923072D01*
X70052482Y-120923202D01*
X70058388Y-120922623D01*
X70446581Y-120881822D01*
X70484290Y-120874081D01*
X70522151Y-120866859D01*
X70527832Y-120865143D01*
X70900707Y-120749719D01*
X70936182Y-120734807D01*
X70971932Y-120720363D01*
X70977171Y-120717577D01*
X71320526Y-120531926D01*
X71352437Y-120510402D01*
X71384693Y-120489294D01*
X71389292Y-120485543D01*
X71690047Y-120236736D01*
X71717185Y-120209408D01*
X71744710Y-120182453D01*
X71748492Y-120177881D01*
X71995193Y-119875396D01*
X72016513Y-119843308D01*
X72038272Y-119811529D01*
X72041090Y-119806317D01*
X72041095Y-119806309D01*
X72041098Y-119806301D01*
X72224344Y-119461667D01*
X72239017Y-119426068D01*
X72254198Y-119390648D01*
X72255953Y-119384979D01*
X72368771Y-119011308D01*
X72376253Y-118973523D01*
X72384262Y-118935844D01*
X72384882Y-118929942D01*
X72422972Y-118541473D01*
X72422972Y-118522904D01*
X72424977Y-118504443D01*
X72424997Y-118498508D01*
X72424948Y-118484546D01*
X72423072Y-118466083D01*
X72423202Y-118447518D01*
X72422623Y-118441612D01*
X72381822Y-118053419D01*
X72374080Y-118015704D01*
X72366859Y-117977849D01*
X72365143Y-117972168D01*
X72249719Y-117599293D01*
X72234802Y-117563806D01*
X72220363Y-117528068D01*
X72217577Y-117522829D01*
X72217577Y-117522828D01*
X72217574Y-117522824D01*
X72031926Y-117179474D01*
X72010396Y-117147554D01*
X71989293Y-117115306D01*
X71985543Y-117110708D01*
X71736736Y-116809953D01*
X71709391Y-116782799D01*
X71682453Y-116755290D01*
X71677886Y-116751513D01*
X71677880Y-116751507D01*
X71677873Y-116751503D01*
X71375396Y-116504807D01*
X71343334Y-116483505D01*
X71311529Y-116461727D01*
X71306308Y-116458905D01*
X70961667Y-116275656D01*
X70926089Y-116260991D01*
X70890648Y-116245801D01*
X70884983Y-116244048D01*
X70884977Y-116244046D01*
X70511307Y-116131229D01*
X70473537Y-116123750D01*
X70435844Y-116115738D01*
X70429942Y-116115118D01*
X70041473Y-116077028D01*
X69888711Y-116062049D01*
X69781661Y-116029729D01*
X69682926Y-115977231D01*
X69596272Y-115906558D01*
X69524993Y-115820396D01*
X69471807Y-115722031D01*
X69438741Y-115615213D01*
X69425000Y-115484475D01*
X69425000Y-99900000D01*
X70772461Y-99900000D01*
X70775001Y-99925790D01*
X70775000Y-107874220D01*
X70772461Y-107900000D01*
X70775000Y-107925780D01*
X70775000Y-107925787D01*
X70782597Y-108002917D01*
X70812617Y-108101880D01*
X70861367Y-108193086D01*
X70926973Y-108273027D01*
X70947010Y-108289471D01*
X73210534Y-110552996D01*
X73226973Y-110573027D01*
X73306914Y-110638633D01*
X73398119Y-110687383D01*
X73497082Y-110717403D01*
X73574212Y-110725000D01*
X73574219Y-110725000D01*
X73599999Y-110727539D01*
X73625779Y-110725000D01*
X74458120Y-110725000D01*
X74340212Y-110901461D01*
X74244959Y-111131421D01*
X74196400Y-111375546D01*
X74196400Y-111624454D01*
X74244959Y-111868579D01*
X74340212Y-112098539D01*
X74478498Y-112305498D01*
X74654502Y-112481502D01*
X74861461Y-112619788D01*
X75091421Y-112715041D01*
X75335546Y-112763600D01*
X75584454Y-112763600D01*
X75828579Y-112715041D01*
X75902118Y-112684580D01*
X76320534Y-113102996D01*
X76336973Y-113123027D01*
X76416914Y-113188633D01*
X76508119Y-113237383D01*
X76607082Y-113267403D01*
X76684212Y-113275000D01*
X76684220Y-113275000D01*
X76710000Y-113277539D01*
X76735780Y-113275000D01*
X80282539Y-113275000D01*
X80450000Y-113442461D01*
X80450000Y-113578789D01*
X80480743Y-113733347D01*
X80541049Y-113878938D01*
X80628599Y-114009966D01*
X80740030Y-114121397D01*
X80871058Y-114208947D01*
X81016649Y-114269253D01*
X81171207Y-114299996D01*
X81328793Y-114299996D01*
X81483351Y-114269253D01*
X81625001Y-114210580D01*
X81625000Y-115432537D01*
X81350000Y-115707538D01*
X80927996Y-115285535D01*
X80589471Y-114947010D01*
X80573027Y-114926973D01*
X80493086Y-114861367D01*
X80401881Y-114812617D01*
X80302918Y-114782597D01*
X80225788Y-114775000D01*
X80225780Y-114775000D01*
X80200000Y-114772461D01*
X80174220Y-114775000D01*
X76937462Y-114775000D01*
X76644580Y-114482118D01*
X76675041Y-114408579D01*
X76723600Y-114164454D01*
X76723600Y-113915546D01*
X76675041Y-113671421D01*
X76579788Y-113441461D01*
X76441502Y-113234502D01*
X76265498Y-113058498D01*
X76058539Y-112920212D01*
X75828579Y-112824959D01*
X75584454Y-112776400D01*
X75335546Y-112776400D01*
X75091421Y-112824959D01*
X74861461Y-112920212D01*
X74654502Y-113058498D01*
X74478498Y-113234502D01*
X74340212Y-113441461D01*
X74244959Y-113671421D01*
X74196400Y-113915546D01*
X74196400Y-114164454D01*
X74244959Y-114408579D01*
X74340212Y-114638539D01*
X74478498Y-114845498D01*
X74654502Y-115021502D01*
X74861461Y-115159788D01*
X75091421Y-115255041D01*
X75335546Y-115303600D01*
X75584454Y-115303600D01*
X75828579Y-115255041D01*
X75902118Y-115224580D01*
X76330534Y-115652996D01*
X76346973Y-115673027D01*
X76393378Y-115711111D01*
X76384265Y-115722215D01*
X76338060Y-115808658D01*
X76309607Y-115902455D01*
X76300000Y-116000000D01*
X76300000Y-121300000D01*
X76303412Y-121358314D01*
X76324330Y-121454073D01*
X76363528Y-121543911D01*
X78200000Y-124830229D01*
X78200000Y-134000000D01*
X78209607Y-134097545D01*
X78238060Y-134191342D01*
X78284265Y-134277785D01*
X78346447Y-134353553D01*
X78422215Y-134415735D01*
X78508658Y-134461940D01*
X78602455Y-134490393D01*
X78700000Y-134500000D01*
X91000000Y-134500000D01*
X91132063Y-134482244D01*
X91223607Y-134447214D01*
X92118035Y-134000000D01*
X99881965Y-134000000D01*
X100776393Y-134447214D01*
X100902455Y-134490393D01*
X101000000Y-134500000D01*
X110800000Y-134500000D01*
X110897545Y-134490393D01*
X110991342Y-134461940D01*
X111077785Y-134415735D01*
X111153553Y-134353553D01*
X111215735Y-134277785D01*
X111261940Y-134191342D01*
X111290393Y-134097545D01*
X111300000Y-134000000D01*
X111300000Y-125500000D01*
X111290393Y-125402455D01*
X111261940Y-125308658D01*
X111215735Y-125222215D01*
X111153553Y-125146447D01*
X111077785Y-125084265D01*
X110991342Y-125038060D01*
X110897545Y-125009607D01*
X110800000Y-125000000D01*
X107000000Y-125000000D01*
X107000000Y-123500000D01*
X106990393Y-123402455D01*
X106961940Y-123308658D01*
X106915735Y-123222215D01*
X106853553Y-123146447D01*
X106777785Y-123084265D01*
X106691342Y-123038060D01*
X106597545Y-123009607D01*
X106500000Y-123000000D01*
X103600000Y-123000000D01*
X103502455Y-123009607D01*
X103408658Y-123038060D01*
X103322215Y-123084265D01*
X103246447Y-123146447D01*
X103184265Y-123222215D01*
X103138060Y-123308658D01*
X103109607Y-123402455D01*
X103100000Y-123500000D01*
X103100000Y-124800000D01*
X101800000Y-124800000D01*
X101702455Y-124809607D01*
X101608658Y-124838060D01*
X101522215Y-124884265D01*
X101446447Y-124946447D01*
X101384265Y-125022215D01*
X101338060Y-125108658D01*
X101309607Y-125202455D01*
X101300000Y-125300000D01*
X101300000Y-128800000D01*
X84455506Y-128800000D01*
X83797836Y-121753535D01*
X83768099Y-121624263D01*
X83724820Y-121536319D01*
X80502758Y-116345220D01*
X80960535Y-116802997D01*
X80976973Y-116823027D01*
X80997003Y-116839465D01*
X80997007Y-116839469D01*
X84975001Y-120817464D01*
X84975000Y-124974220D01*
X84972461Y-125000000D01*
X84975000Y-125025780D01*
X84975000Y-125025787D01*
X84982597Y-125102917D01*
X85012617Y-125201880D01*
X85061367Y-125293086D01*
X85126973Y-125373027D01*
X85147010Y-125389471D01*
X86748065Y-126990527D01*
X86748065Y-128350000D01*
X86755788Y-128428414D01*
X86778660Y-128503814D01*
X86815803Y-128573303D01*
X86865789Y-128634211D01*
X86926697Y-128684197D01*
X86996186Y-128721340D01*
X87071586Y-128744212D01*
X87150000Y-128751935D01*
X88850000Y-128751935D01*
X88928414Y-128744212D01*
X89003814Y-128721340D01*
X89073303Y-128684197D01*
X89134211Y-128634211D01*
X89184197Y-128573303D01*
X89221340Y-128503814D01*
X89244212Y-128428414D01*
X89251935Y-128350000D01*
X89251935Y-126650000D01*
X89244212Y-126571586D01*
X89221340Y-126496186D01*
X89184197Y-126426697D01*
X89134211Y-126365789D01*
X89073303Y-126315803D01*
X89003814Y-126278660D01*
X88928414Y-126255788D01*
X88850000Y-126248065D01*
X87490527Y-126248065D01*
X87393659Y-126151197D01*
X87447082Y-126167403D01*
X87524212Y-126175000D01*
X87524219Y-126175000D01*
X87549999Y-126177539D01*
X87575779Y-126175000D01*
X89707539Y-126175000D01*
X89934056Y-126401517D01*
X89743172Y-126529062D01*
X89569062Y-126703172D01*
X89432265Y-126907903D01*
X89338037Y-127135389D01*
X89290000Y-127376886D01*
X89290000Y-127623114D01*
X89338037Y-127864611D01*
X89432265Y-128092097D01*
X89569062Y-128296828D01*
X89743172Y-128470938D01*
X89947903Y-128607735D01*
X90175389Y-128701963D01*
X90416886Y-128750000D01*
X90663114Y-128750000D01*
X90904611Y-128701963D01*
X91132097Y-128607735D01*
X91336828Y-128470938D01*
X91510938Y-128296828D01*
X91647735Y-128092097D01*
X91741963Y-127864611D01*
X91790000Y-127623114D01*
X91790000Y-127376886D01*
X91741963Y-127135389D01*
X91647735Y-126907903D01*
X91510938Y-126703172D01*
X91336828Y-126529062D01*
X91132097Y-126392265D01*
X91065000Y-126364472D01*
X91065000Y-126290779D01*
X91067539Y-126264999D01*
X91065000Y-126239219D01*
X91065000Y-126239212D01*
X91057403Y-126162082D01*
X91027383Y-126063119D01*
X90978633Y-125971914D01*
X90913027Y-125891973D01*
X90892995Y-125875533D01*
X90314471Y-125297010D01*
X90298027Y-125276973D01*
X90218086Y-125211367D01*
X90126881Y-125162617D01*
X90027918Y-125132597D01*
X89950788Y-125125000D01*
X89950780Y-125125000D01*
X89925000Y-125122461D01*
X89899220Y-125125000D01*
X87767462Y-125125000D01*
X86800000Y-124157539D01*
X86800000Y-120200779D01*
X86802539Y-120174999D01*
X86800000Y-120149219D01*
X86800000Y-120149212D01*
X86792403Y-120072082D01*
X86762383Y-119973119D01*
X86713633Y-119881914D01*
X86648027Y-119801973D01*
X86627996Y-119785534D01*
X83525000Y-116682539D01*
X83525000Y-114106371D01*
X83621401Y-114009970D01*
X83708951Y-113878942D01*
X83769257Y-113733351D01*
X83800000Y-113578793D01*
X83800000Y-113421207D01*
X83769257Y-113266649D01*
X83708951Y-113121058D01*
X83621401Y-112990030D01*
X83509970Y-112878599D01*
X83378942Y-112791049D01*
X83233351Y-112730743D01*
X83078793Y-112700000D01*
X83042461Y-112700000D01*
X84667462Y-111075000D01*
X88482539Y-111075000D01*
X88633335Y-111225796D01*
X88532201Y-111171739D01*
X88412248Y-111135352D01*
X88287500Y-111123065D01*
X88209534Y-111123065D01*
X88176430Y-111113023D01*
X88000000Y-111095646D01*
X87823569Y-111113023D01*
X87790465Y-111123065D01*
X87712500Y-111123065D01*
X87587752Y-111135352D01*
X87467799Y-111171739D01*
X87357249Y-111230829D01*
X87260351Y-111310351D01*
X87180829Y-111407249D01*
X87121739Y-111517799D01*
X87085352Y-111637752D01*
X87073065Y-111762500D01*
X87073065Y-112237500D01*
X87085352Y-112362248D01*
X87100000Y-112410537D01*
X87100001Y-113089461D01*
X87085352Y-113137752D01*
X87073065Y-113262500D01*
X87073065Y-113737500D01*
X87085352Y-113862248D01*
X87121739Y-113982201D01*
X87180829Y-114092751D01*
X87260351Y-114189649D01*
X87357249Y-114269171D01*
X87467799Y-114328261D01*
X87587752Y-114364648D01*
X87712500Y-114376935D01*
X87790466Y-114376935D01*
X87823570Y-114386977D01*
X88000000Y-114404354D01*
X88176431Y-114386977D01*
X88209535Y-114376935D01*
X88287500Y-114376935D01*
X88412248Y-114364648D01*
X88532201Y-114328261D01*
X88642751Y-114269171D01*
X88739649Y-114189649D01*
X88819171Y-114092751D01*
X88878261Y-113982201D01*
X88914648Y-113862248D01*
X88926935Y-113737500D01*
X88926935Y-113262500D01*
X88914648Y-113137752D01*
X88900000Y-113089464D01*
X88900000Y-112525000D01*
X89082539Y-112525000D01*
X90532538Y-113975000D01*
X89884474Y-114623065D01*
X89462500Y-114623065D01*
X89337752Y-114635352D01*
X89217799Y-114671739D01*
X89107249Y-114730829D01*
X89010351Y-114810351D01*
X88930829Y-114907249D01*
X88875000Y-115011698D01*
X88819171Y-114907249D01*
X88739649Y-114810351D01*
X88642751Y-114730829D01*
X88532201Y-114671739D01*
X88412248Y-114635352D01*
X88287500Y-114623065D01*
X88209534Y-114623065D01*
X88176430Y-114613023D01*
X88000000Y-114595646D01*
X87823569Y-114613023D01*
X87790465Y-114623065D01*
X87712500Y-114623065D01*
X87587752Y-114635352D01*
X87467799Y-114671739D01*
X87357249Y-114730829D01*
X87260351Y-114810351D01*
X87180829Y-114907249D01*
X87121739Y-115017799D01*
X87085352Y-115137752D01*
X87073065Y-115262500D01*
X87073065Y-115737500D01*
X87085352Y-115862248D01*
X87100000Y-115910537D01*
X87100001Y-117455784D01*
X87095646Y-117500000D01*
X87113023Y-117676431D01*
X87123065Y-117709535D01*
X87123065Y-117787500D01*
X87135352Y-117912248D01*
X87171739Y-118032201D01*
X87230829Y-118142751D01*
X87310351Y-118239649D01*
X87407249Y-118319171D01*
X87517799Y-118378261D01*
X87637752Y-118414648D01*
X87762500Y-118426935D01*
X88237500Y-118426935D01*
X88362248Y-118414648D01*
X88410536Y-118400000D01*
X89310348Y-118400000D01*
X89277772Y-118417412D01*
X89217157Y-118467157D01*
X89167412Y-118527772D01*
X89130448Y-118596927D01*
X89107686Y-118671964D01*
X89100000Y-118750000D01*
X89100000Y-119850000D01*
X87750000Y-119850000D01*
X87671964Y-119857686D01*
X87596927Y-119880448D01*
X87527772Y-119917412D01*
X87467157Y-119967157D01*
X87417412Y-120027772D01*
X87380448Y-120096927D01*
X87357686Y-120171964D01*
X87350000Y-120250000D01*
X87350000Y-122250000D01*
X87357686Y-122328036D01*
X87380448Y-122403073D01*
X87417412Y-122472228D01*
X87467157Y-122532843D01*
X87527772Y-122582588D01*
X87596927Y-122619552D01*
X87671964Y-122642314D01*
X87750000Y-122650000D01*
X107350000Y-122650000D01*
X107350000Y-124000000D01*
X107357686Y-124078036D01*
X107380448Y-124153073D01*
X107417412Y-124222228D01*
X107467157Y-124282843D01*
X107527772Y-124332588D01*
X107596927Y-124369552D01*
X107671964Y-124392314D01*
X107750000Y-124400000D01*
X112750000Y-124400000D01*
X112828036Y-124392314D01*
X112903073Y-124369552D01*
X112972228Y-124332588D01*
X113032843Y-124282843D01*
X113082588Y-124222228D01*
X113119552Y-124153073D01*
X113142314Y-124078036D01*
X113150000Y-124000000D01*
X113150000Y-108500000D01*
X113142314Y-108421964D01*
X113119552Y-108346927D01*
X113082588Y-108277772D01*
X113032843Y-108217157D01*
X112972228Y-108167412D01*
X112903073Y-108130448D01*
X112828036Y-108107686D01*
X112750000Y-108100000D01*
X108500000Y-108100000D01*
X108421964Y-108107686D01*
X108346927Y-108130448D01*
X108277772Y-108167412D01*
X108217157Y-108217157D01*
X108167412Y-108277772D01*
X108130448Y-108346927D01*
X108107686Y-108421964D01*
X108100000Y-108500000D01*
X108100000Y-109696195D01*
X108097691Y-109700515D01*
X108060592Y-109822814D01*
X108048065Y-109950000D01*
X108048065Y-111050000D01*
X108060592Y-111177186D01*
X108097691Y-111299485D01*
X108100000Y-111303805D01*
X108100000Y-118800000D01*
X99214073Y-118800000D01*
X98538098Y-117786037D01*
X98300000Y-117389207D01*
X98300000Y-117102036D01*
X98310351Y-117114649D01*
X98407249Y-117194171D01*
X98517799Y-117253261D01*
X98637752Y-117289648D01*
X98762500Y-117301935D01*
X99237500Y-117301935D01*
X99362248Y-117289648D01*
X99482201Y-117253261D01*
X99500000Y-117243747D01*
X99500000Y-118100000D01*
X99507686Y-118178036D01*
X99530448Y-118253073D01*
X99567412Y-118322228D01*
X99617157Y-118382843D01*
X99677772Y-118432588D01*
X99746927Y-118469552D01*
X99821964Y-118492314D01*
X99900000Y-118500000D01*
X107200000Y-118500000D01*
X107278036Y-118492314D01*
X107353073Y-118469552D01*
X107422228Y-118432588D01*
X107482843Y-118382843D01*
X107532588Y-118322228D01*
X107569552Y-118253073D01*
X107592314Y-118178036D01*
X107600000Y-118100000D01*
X107600000Y-114400000D01*
X107589388Y-114308473D01*
X107564050Y-114234266D01*
X107524722Y-114166428D01*
X107472915Y-114107566D01*
X107410620Y-114059942D01*
X107340231Y-114025386D01*
X107264453Y-114005227D01*
X104290567Y-113519695D01*
X107256569Y-113095980D01*
X107353073Y-113069552D01*
X107422228Y-113032588D01*
X107482843Y-112982843D01*
X107532588Y-112922228D01*
X107569552Y-112853073D01*
X107592314Y-112778036D01*
X107600000Y-112700000D01*
X107600000Y-108500000D01*
X107592314Y-108421964D01*
X107569552Y-108346927D01*
X107532588Y-108277772D01*
X107482843Y-108217157D01*
X107422228Y-108167412D01*
X107353073Y-108130448D01*
X107278036Y-108107686D01*
X107200000Y-108100000D01*
X99900000Y-108100000D01*
X99821964Y-108107686D01*
X99746927Y-108130448D01*
X99677772Y-108167412D01*
X99617157Y-108217157D01*
X99567412Y-108277772D01*
X99530448Y-108346927D01*
X99507686Y-108421964D01*
X99500000Y-108500000D01*
X99500000Y-109631253D01*
X99482201Y-109621739D01*
X99362248Y-109585352D01*
X99237500Y-109573065D01*
X98762500Y-109573065D01*
X98637752Y-109585352D01*
X98517799Y-109621739D01*
X98407249Y-109680829D01*
X98310351Y-109760351D01*
X98230829Y-109857249D01*
X98225000Y-109868154D01*
X98225000Y-109621888D01*
X98660399Y-108925250D01*
X98667106Y-108914145D01*
X99244107Y-107925000D01*
X107100000Y-107925000D01*
X107182913Y-107916834D01*
X107262640Y-107892649D01*
X107336117Y-107853375D01*
X107400520Y-107800520D01*
X111076040Y-104125000D01*
X112600000Y-104125000D01*
X112682913Y-104116834D01*
X112762640Y-104092649D01*
X112836117Y-104053375D01*
X112900520Y-104000520D01*
X112953375Y-103936117D01*
X112992649Y-103862640D01*
X113016834Y-103782913D01*
X113025000Y-103700000D01*
X113025000Y-98100000D01*
X113016834Y-98017087D01*
X112992649Y-97937360D01*
X112953375Y-97863883D01*
X112900520Y-97799480D01*
X112836117Y-97746625D01*
X112762640Y-97707351D01*
X112682913Y-97683166D01*
X112600000Y-97675000D01*
X106800000Y-97675000D01*
X106704435Y-97685884D01*
X106625481Y-97712485D01*
X106553234Y-97753978D01*
X106490470Y-97808768D01*
X106439601Y-97874750D01*
X103064445Y-103275000D01*
X91000000Y-103275000D01*
X90953067Y-103277599D01*
X90871562Y-103294872D01*
X90794993Y-103327713D01*
X90726303Y-103374862D01*
X90668131Y-103434505D01*
X89995735Y-104275000D01*
X86700000Y-104275000D01*
X86617087Y-104283166D01*
X86537360Y-104307351D01*
X86463883Y-104346625D01*
X86399480Y-104399480D01*
X86346625Y-104463883D01*
X86307351Y-104537360D01*
X86283166Y-104617087D01*
X86275000Y-104700000D01*
X86275000Y-107300000D01*
X86283166Y-107382913D01*
X86307351Y-107462640D01*
X86346625Y-107536117D01*
X86399480Y-107600520D01*
X86463883Y-107653375D01*
X86537360Y-107692649D01*
X86617087Y-107716834D01*
X86700000Y-107725000D01*
X94775000Y-107725000D01*
X94775000Y-109300000D01*
X94783166Y-109382913D01*
X94807351Y-109462640D01*
X94846625Y-109536117D01*
X94899480Y-109600520D01*
X95175000Y-109876040D01*
X95175000Y-110780301D01*
X95123027Y-110716972D01*
X95102990Y-110700528D01*
X94999462Y-110597000D01*
X94983018Y-110576963D01*
X94903077Y-110511357D01*
X94811872Y-110462607D01*
X94712909Y-110432587D01*
X94635779Y-110424990D01*
X94635771Y-110424990D01*
X94609991Y-110422451D01*
X94584211Y-110424990D01*
X92192452Y-110424990D01*
X90064471Y-108297010D01*
X90048027Y-108276973D01*
X89968086Y-108211367D01*
X89876881Y-108162617D01*
X89777918Y-108132597D01*
X89700788Y-108125000D01*
X89700780Y-108125000D01*
X89675000Y-108122461D01*
X89649220Y-108125000D01*
X81875779Y-108125000D01*
X81849999Y-108122461D01*
X81824219Y-108125000D01*
X81824212Y-108125000D01*
X81747082Y-108132597D01*
X81648119Y-108162617D01*
X81556914Y-108211367D01*
X81476973Y-108276973D01*
X81460534Y-108297004D01*
X80082539Y-109675000D01*
X77367463Y-109675000D01*
X76723600Y-109031138D01*
X76723600Y-108835546D01*
X76675041Y-108591421D01*
X76579788Y-108361461D01*
X76441502Y-108154502D01*
X76265498Y-107978498D01*
X76058539Y-107840212D01*
X75828579Y-107744959D01*
X75584454Y-107696400D01*
X75335546Y-107696400D01*
X75091421Y-107744959D01*
X74861461Y-107840212D01*
X74654502Y-107978498D01*
X74478498Y-108154502D01*
X74340212Y-108361461D01*
X74309751Y-108435000D01*
X73777462Y-108435000D01*
X72725000Y-107382539D01*
X72725000Y-100900000D01*
X76200000Y-100900000D01*
X76200000Y-107500000D01*
X76209607Y-107597545D01*
X76238060Y-107691342D01*
X76284265Y-107777785D01*
X76346447Y-107853553D01*
X76422215Y-107915735D01*
X76508658Y-107961940D01*
X76602455Y-107990393D01*
X76700000Y-108000000D01*
X78500000Y-108000000D01*
X78591597Y-107991538D01*
X78685731Y-107964224D01*
X78772728Y-107919070D01*
X84948372Y-103900000D01*
X89700000Y-103900000D01*
X89797545Y-103890393D01*
X89891342Y-103861940D01*
X89977785Y-103815735D01*
X90053553Y-103753553D01*
X90115735Y-103677785D01*
X90161940Y-103591342D01*
X90190393Y-103497545D01*
X90200000Y-103400000D01*
X90200000Y-98071343D01*
X91972494Y-96919222D01*
X92053553Y-96853553D01*
X92115735Y-96777785D01*
X92161940Y-96691342D01*
X92190393Y-96597545D01*
X92200000Y-96500000D01*
X92200000Y-94400000D01*
X92190393Y-94302455D01*
X92161940Y-94208658D01*
X92115735Y-94122215D01*
X92053553Y-94046447D01*
X91977785Y-93984265D01*
X91891342Y-93938060D01*
X91797545Y-93909607D01*
X91700000Y-93900000D01*
X85700000Y-93900000D01*
X85602455Y-93909607D01*
X85508658Y-93938060D01*
X85422215Y-93984265D01*
X85346447Y-94046447D01*
X85284265Y-94122215D01*
X85238060Y-94208658D01*
X85209607Y-94302455D01*
X85200000Y-94400000D01*
X85200000Y-96500000D01*
X85205837Y-96576180D01*
X85230195Y-96671123D01*
X85272606Y-96759489D01*
X86900000Y-99439903D01*
X86900000Y-99970301D01*
X85897370Y-100400000D01*
X76700000Y-100400000D01*
X76602455Y-100409607D01*
X76508658Y-100438060D01*
X76422215Y-100484265D01*
X76346447Y-100546447D01*
X76284265Y-100622215D01*
X76238060Y-100708658D01*
X76209607Y-100802455D01*
X76200000Y-100900000D01*
X72725000Y-100900000D01*
X72725000Y-100317461D01*
X74317463Y-98725000D01*
X78674220Y-98725000D01*
X78700000Y-98727539D01*
X78725780Y-98725000D01*
X78725788Y-98725000D01*
X78802918Y-98717403D01*
X78901881Y-98687383D01*
X78993086Y-98638633D01*
X79073027Y-98573027D01*
X79089471Y-98552990D01*
X84417462Y-93225000D01*
X101882539Y-93225000D01*
X102715000Y-94057462D01*
X102715000Y-94364472D01*
X102647903Y-94392265D01*
X102443172Y-94529062D01*
X102269062Y-94703172D01*
X102132265Y-94907903D01*
X102038037Y-95135389D01*
X101990000Y-95376886D01*
X101990000Y-95623114D01*
X102038037Y-95864611D01*
X102132265Y-96092097D01*
X102269062Y-96296828D01*
X102443172Y-96470938D01*
X102647903Y-96607735D01*
X102875389Y-96701963D01*
X103116886Y-96750000D01*
X103363114Y-96750000D01*
X103604611Y-96701963D01*
X103832097Y-96607735D01*
X104036828Y-96470938D01*
X104210938Y-96296828D01*
X104347735Y-96092097D01*
X104441963Y-95864611D01*
X104490000Y-95623114D01*
X104490000Y-95376886D01*
X104441963Y-95135389D01*
X104347735Y-94907903D01*
X104210938Y-94703172D01*
X104036828Y-94529062D01*
X103832097Y-94392265D01*
X103765000Y-94364472D01*
X103765000Y-93865779D01*
X103767539Y-93839999D01*
X103765000Y-93814219D01*
X103765000Y-93814212D01*
X103757403Y-93737082D01*
X103727383Y-93638119D01*
X103678633Y-93546914D01*
X103613027Y-93466973D01*
X103592996Y-93450534D01*
X102667461Y-92525000D01*
X103782539Y-92525000D01*
X105255000Y-93997462D01*
X105255000Y-94364472D01*
X105187903Y-94392265D01*
X104983172Y-94529062D01*
X104809062Y-94703172D01*
X104672265Y-94907903D01*
X104578037Y-95135389D01*
X104530000Y-95376886D01*
X104530000Y-95623114D01*
X104578037Y-95864611D01*
X104672265Y-96092097D01*
X104809062Y-96296828D01*
X104983172Y-96470938D01*
X105187903Y-96607735D01*
X105415389Y-96701963D01*
X105656886Y-96750000D01*
X105903114Y-96750000D01*
X106144611Y-96701963D01*
X106372097Y-96607735D01*
X106576828Y-96470938D01*
X106750938Y-96296828D01*
X106887735Y-96092097D01*
X106981963Y-95864611D01*
X107030000Y-95623114D01*
X107030000Y-95376886D01*
X106981963Y-95135389D01*
X106887735Y-94907903D01*
X106750938Y-94703172D01*
X106576828Y-94529062D01*
X106372097Y-94392265D01*
X106305000Y-94364472D01*
X106305000Y-93805779D01*
X106307539Y-93779999D01*
X106305000Y-93754219D01*
X106305000Y-93754212D01*
X106297403Y-93677082D01*
X106267383Y-93578119D01*
X106218633Y-93486914D01*
X106153027Y-93406973D01*
X106132996Y-93390534D01*
X104389471Y-91647010D01*
X104373027Y-91626973D01*
X104293086Y-91561367D01*
X104201881Y-91512617D01*
X104102918Y-91482597D01*
X104025788Y-91475000D01*
X104025780Y-91475000D01*
X104000000Y-91472461D01*
X103974220Y-91475000D01*
X83325788Y-91475000D01*
X83300000Y-91472460D01*
X83274212Y-91475000D01*
X83197082Y-91482597D01*
X83098119Y-91512617D01*
X83006914Y-91561367D01*
X82926973Y-91626973D01*
X82910534Y-91647004D01*
X77582539Y-96975000D01*
X73725788Y-96975000D01*
X73700000Y-96972460D01*
X73674212Y-96975000D01*
X73597082Y-96982597D01*
X73498119Y-97012617D01*
X73406914Y-97061367D01*
X73326973Y-97126973D01*
X73310534Y-97147004D01*
X70947005Y-99510534D01*
X70926974Y-99526973D01*
X70910535Y-99547004D01*
X70861367Y-99606915D01*
X70812617Y-99698120D01*
X70782597Y-99797083D01*
X70772461Y-99900000D01*
X69425000Y-99900000D01*
X69425000Y-95316091D01*
X69553235Y-95508008D01*
X69991992Y-95946765D01*
X70507915Y-96291494D01*
X71081179Y-96528948D01*
X71689752Y-96650000D01*
X72310248Y-96650000D01*
X72918821Y-96528948D01*
X73492085Y-96291494D01*
X74008008Y-95946765D01*
X74446765Y-95508008D01*
X74791494Y-94992085D01*
X75028948Y-94418821D01*
X75150000Y-93810248D01*
X75150000Y-93189752D01*
X75028948Y-92581179D01*
X74791494Y-92007915D01*
X74446765Y-91491992D01*
X74008008Y-91053235D01*
X73816091Y-90925000D01*
X114183909Y-90925000D01*
X113991992Y-91053235D01*
G36*
X95207768Y-112668573D02*
G01*
X95208499Y-112669971D01*
X95208955Y-112671482D01*
X95228858Y-112708914D01*
X95248457Y-112746403D01*
X95249444Y-112747631D01*
X95250186Y-112749026D01*
X95276942Y-112781832D01*
X95303488Y-112814849D01*
X95304699Y-112815865D01*
X95305694Y-112817085D01*
X95325105Y-112833143D01*
X95315789Y-112840789D01*
X95265803Y-112901697D01*
X95228660Y-112971186D01*
X95205788Y-113046586D01*
X95198065Y-113125000D01*
X95198065Y-113375000D01*
X95205788Y-113453414D01*
X95219919Y-113500000D01*
X95205788Y-113546586D01*
X95198065Y-113625000D01*
X95198065Y-113875000D01*
X95205788Y-113953414D01*
X95228660Y-114028814D01*
X95265803Y-114098303D01*
X95315789Y-114159211D01*
X95376697Y-114209197D01*
X95442148Y-114244182D01*
X95401698Y-114265803D01*
X95340790Y-114315789D01*
X95290804Y-114376697D01*
X95253661Y-114446186D01*
X95230789Y-114521586D01*
X95223066Y-114600000D01*
X95223066Y-115700000D01*
X95230789Y-115778414D01*
X95253661Y-115853814D01*
X95253759Y-115853998D01*
X95253859Y-115855431D01*
X95272285Y-115931649D01*
X95305226Y-116002808D01*
X95750000Y-116758924D01*
X95750000Y-118440204D01*
X95717157Y-118467157D01*
X95667412Y-118527772D01*
X95630448Y-118596927D01*
X95607686Y-118671964D01*
X95600000Y-118750000D01*
X95600000Y-119850000D01*
X90900000Y-119850000D01*
X90900000Y-118750000D01*
X90892314Y-118671964D01*
X90869552Y-118596927D01*
X90832588Y-118527772D01*
X90782843Y-118467157D01*
X90722228Y-118417412D01*
X90653073Y-118380448D01*
X90578036Y-118357686D01*
X90529616Y-118352917D01*
X90592751Y-118319171D01*
X90689649Y-118239649D01*
X90769171Y-118142751D01*
X90828261Y-118032201D01*
X90864648Y-117912248D01*
X90876935Y-117787500D01*
X90876935Y-117709535D01*
X90886977Y-117676431D01*
X90904354Y-117500000D01*
X90886977Y-117323569D01*
X90876935Y-117290465D01*
X90876935Y-117212500D01*
X90864648Y-117087752D01*
X90828261Y-116967799D01*
X90769171Y-116857249D01*
X90689649Y-116760351D01*
X90592751Y-116680829D01*
X90482201Y-116621739D01*
X90362248Y-116585352D01*
X90237500Y-116573065D01*
X89762500Y-116573065D01*
X89637752Y-116585352D01*
X89589464Y-116600000D01*
X88900000Y-116600000D01*
X88900000Y-116035074D01*
X88930829Y-116092751D01*
X89010351Y-116189649D01*
X89107249Y-116269171D01*
X89217799Y-116328261D01*
X89337752Y-116364648D01*
X89462500Y-116376935D01*
X90037500Y-116376935D01*
X90162248Y-116364648D01*
X90282201Y-116328261D01*
X90392751Y-116269171D01*
X90489649Y-116189649D01*
X90569171Y-116092751D01*
X90628261Y-115982201D01*
X90664648Y-115862248D01*
X90676935Y-115737500D01*
X90676935Y-115315526D01*
X91217461Y-114775001D01*
X91400000Y-114775001D01*
X91400000Y-118100000D01*
X91407686Y-118178036D01*
X91430448Y-118253073D01*
X91467412Y-118322228D01*
X91517157Y-118382843D01*
X91577772Y-118432588D01*
X91646927Y-118469552D01*
X91721964Y-118492314D01*
X91800000Y-118500000D01*
X93100000Y-118500000D01*
X93178036Y-118492314D01*
X93253073Y-118469552D01*
X93322228Y-118432588D01*
X93382843Y-118382843D01*
X93432588Y-118322228D01*
X93469552Y-118253073D01*
X93492314Y-118178036D01*
X93500000Y-118100000D01*
X93500000Y-117056393D01*
X94381642Y-116101281D01*
X94453413Y-116094212D01*
X94528813Y-116071340D01*
X94598302Y-116034197D01*
X94659210Y-115984211D01*
X94709196Y-115923303D01*
X94746339Y-115853814D01*
X94769211Y-115778414D01*
X94776934Y-115700000D01*
X94776934Y-115406135D01*
X94777538Y-115400002D01*
X94776934Y-115393869D01*
X94776934Y-114600000D01*
X94769211Y-114521586D01*
X94746339Y-114446186D01*
X94709196Y-114376697D01*
X94659210Y-114315789D01*
X94598302Y-114265803D01*
X94557852Y-114244182D01*
X94623303Y-114209197D01*
X94684211Y-114159211D01*
X94734197Y-114098303D01*
X94771340Y-114028814D01*
X94794212Y-113953414D01*
X94801935Y-113875000D01*
X94801935Y-113625000D01*
X94794212Y-113546586D01*
X94780081Y-113500000D01*
X94794212Y-113453414D01*
X94801935Y-113375000D01*
X94801935Y-113125000D01*
X94794212Y-113046586D01*
X94771340Y-112971186D01*
X94734197Y-112901697D01*
X94684211Y-112840789D01*
X94636867Y-112801935D01*
X94875000Y-112801935D01*
X94953414Y-112794212D01*
X95028814Y-112771340D01*
X95098303Y-112734197D01*
X95159211Y-112684211D01*
X95198339Y-112636534D01*
X95207768Y-112668573D01*
G37*
X95207768Y-112668573D02*
X95208499Y-112669971D01*
X95208955Y-112671482D01*
X95228858Y-112708914D01*
X95248457Y-112746403D01*
X95249444Y-112747631D01*
X95250186Y-112749026D01*
X95276942Y-112781832D01*
X95303488Y-112814849D01*
X95304699Y-112815865D01*
X95305694Y-112817085D01*
X95325105Y-112833143D01*
X95315789Y-112840789D01*
X95265803Y-112901697D01*
X95228660Y-112971186D01*
X95205788Y-113046586D01*
X95198065Y-113125000D01*
X95198065Y-113375000D01*
X95205788Y-113453414D01*
X95219919Y-113500000D01*
X95205788Y-113546586D01*
X95198065Y-113625000D01*
X95198065Y-113875000D01*
X95205788Y-113953414D01*
X95228660Y-114028814D01*
X95265803Y-114098303D01*
X95315789Y-114159211D01*
X95376697Y-114209197D01*
X95442148Y-114244182D01*
X95401698Y-114265803D01*
X95340790Y-114315789D01*
X95290804Y-114376697D01*
X95253661Y-114446186D01*
X95230789Y-114521586D01*
X95223066Y-114600000D01*
X95223066Y-115700000D01*
X95230789Y-115778414D01*
X95253661Y-115853814D01*
X95253759Y-115853998D01*
X95253859Y-115855431D01*
X95272285Y-115931649D01*
X95305226Y-116002808D01*
X95750000Y-116758924D01*
X95750000Y-118440204D01*
X95717157Y-118467157D01*
X95667412Y-118527772D01*
X95630448Y-118596927D01*
X95607686Y-118671964D01*
X95600000Y-118750000D01*
X95600000Y-119850000D01*
X90900000Y-119850000D01*
X90900000Y-118750000D01*
X90892314Y-118671964D01*
X90869552Y-118596927D01*
X90832588Y-118527772D01*
X90782843Y-118467157D01*
X90722228Y-118417412D01*
X90653073Y-118380448D01*
X90578036Y-118357686D01*
X90529616Y-118352917D01*
X90592751Y-118319171D01*
X90689649Y-118239649D01*
X90769171Y-118142751D01*
X90828261Y-118032201D01*
X90864648Y-117912248D01*
X90876935Y-117787500D01*
X90876935Y-117709535D01*
X90886977Y-117676431D01*
X90904354Y-117500000D01*
X90886977Y-117323569D01*
X90876935Y-117290465D01*
X90876935Y-117212500D01*
X90864648Y-117087752D01*
X90828261Y-116967799D01*
X90769171Y-116857249D01*
X90689649Y-116760351D01*
X90592751Y-116680829D01*
X90482201Y-116621739D01*
X90362248Y-116585352D01*
X90237500Y-116573065D01*
X89762500Y-116573065D01*
X89637752Y-116585352D01*
X89589464Y-116600000D01*
X88900000Y-116600000D01*
X88900000Y-116035074D01*
X88930829Y-116092751D01*
X89010351Y-116189649D01*
X89107249Y-116269171D01*
X89217799Y-116328261D01*
X89337752Y-116364648D01*
X89462500Y-116376935D01*
X90037500Y-116376935D01*
X90162248Y-116364648D01*
X90282201Y-116328261D01*
X90392751Y-116269171D01*
X90489649Y-116189649D01*
X90569171Y-116092751D01*
X90628261Y-115982201D01*
X90664648Y-115862248D01*
X90676935Y-115737500D01*
X90676935Y-115315526D01*
X91217461Y-114775001D01*
X91400000Y-114775001D01*
X91400000Y-118100000D01*
X91407686Y-118178036D01*
X91430448Y-118253073D01*
X91467412Y-118322228D01*
X91517157Y-118382843D01*
X91577772Y-118432588D01*
X91646927Y-118469552D01*
X91721964Y-118492314D01*
X91800000Y-118500000D01*
X93100000Y-118500000D01*
X93178036Y-118492314D01*
X93253073Y-118469552D01*
X93322228Y-118432588D01*
X93382843Y-118382843D01*
X93432588Y-118322228D01*
X93469552Y-118253073D01*
X93492314Y-118178036D01*
X93500000Y-118100000D01*
X93500000Y-117056393D01*
X94381642Y-116101281D01*
X94453413Y-116094212D01*
X94528813Y-116071340D01*
X94598302Y-116034197D01*
X94659210Y-115984211D01*
X94709196Y-115923303D01*
X94746339Y-115853814D01*
X94769211Y-115778414D01*
X94776934Y-115700000D01*
X94776934Y-115406135D01*
X94777538Y-115400002D01*
X94776934Y-115393869D01*
X94776934Y-114600000D01*
X94769211Y-114521586D01*
X94746339Y-114446186D01*
X94709196Y-114376697D01*
X94659210Y-114315789D01*
X94598302Y-114265803D01*
X94557852Y-114244182D01*
X94623303Y-114209197D01*
X94684211Y-114159211D01*
X94734197Y-114098303D01*
X94771340Y-114028814D01*
X94794212Y-113953414D01*
X94801935Y-113875000D01*
X94801935Y-113625000D01*
X94794212Y-113546586D01*
X94780081Y-113500000D01*
X94794212Y-113453414D01*
X94801935Y-113375000D01*
X94801935Y-113125000D01*
X94794212Y-113046586D01*
X94771340Y-112971186D01*
X94734197Y-112901697D01*
X94684211Y-112840789D01*
X94636867Y-112801935D01*
X94875000Y-112801935D01*
X94953414Y-112794212D01*
X95028814Y-112771340D01*
X95098303Y-112734197D01*
X95159211Y-112684211D01*
X95198339Y-112636534D01*
X95207768Y-112668573D01*
%TO.N,BB_VOUT*%
G36*
X83202621Y-121832734D02*
G01*
X83900433Y-129309293D01*
X83904159Y-129328539D01*
X83911568Y-129346688D01*
X83922376Y-129363043D01*
X83936166Y-129376976D01*
X83952410Y-129387950D01*
X83970483Y-129395544D01*
X83989690Y-129399467D01*
X84000000Y-129400000D01*
X101800000Y-129400000D01*
X101819509Y-129398079D01*
X101838268Y-129392388D01*
X101855557Y-129383147D01*
X101870711Y-129370711D01*
X101883147Y-129355557D01*
X101892388Y-129338268D01*
X101898079Y-129319509D01*
X101900000Y-129300000D01*
X101900000Y-128130663D01*
X101998120Y-127893780D01*
X102050000Y-127632963D01*
X102050000Y-127367037D01*
X101998120Y-127106220D01*
X101900000Y-126869337D01*
X101900000Y-125400000D01*
X103600000Y-125400000D01*
X103619509Y-125398079D01*
X103638268Y-125392388D01*
X103655557Y-125383147D01*
X103670711Y-125370711D01*
X103683147Y-125355557D01*
X103692388Y-125338268D01*
X103698079Y-125319509D01*
X103700000Y-125300000D01*
X103700000Y-123600000D01*
X106400000Y-123600000D01*
X106400000Y-125500000D01*
X106401921Y-125519509D01*
X106407612Y-125538268D01*
X106416853Y-125555557D01*
X106429289Y-125570711D01*
X106444443Y-125583147D01*
X106461732Y-125592388D01*
X106480491Y-125598079D01*
X106500000Y-125600000D01*
X110700000Y-125600000D01*
X110700000Y-133900000D01*
X101023607Y-133900000D01*
X100044721Y-133410557D01*
X100026413Y-133403551D01*
X100000000Y-133400000D01*
X92000000Y-133400000D01*
X91980491Y-133401921D01*
X91955279Y-133410557D01*
X90976393Y-133900000D01*
X78800000Y-133900000D01*
X78800000Y-124700000D01*
X78798079Y-124680491D01*
X78792388Y-124661732D01*
X78787294Y-124651218D01*
X76900000Y-121273955D01*
X76900000Y-116100000D01*
X79644372Y-116100000D01*
X83202621Y-121832734D01*
G37*
X83202621Y-121832734D02*
X83900433Y-129309293D01*
X83904159Y-129328539D01*
X83911568Y-129346688D01*
X83922376Y-129363043D01*
X83936166Y-129376976D01*
X83952410Y-129387950D01*
X83970483Y-129395544D01*
X83989690Y-129399467D01*
X84000000Y-129400000D01*
X101800000Y-129400000D01*
X101819509Y-129398079D01*
X101838268Y-129392388D01*
X101855557Y-129383147D01*
X101870711Y-129370711D01*
X101883147Y-129355557D01*
X101892388Y-129338268D01*
X101898079Y-129319509D01*
X101900000Y-129300000D01*
X101900000Y-128130663D01*
X101998120Y-127893780D01*
X102050000Y-127632963D01*
X102050000Y-127367037D01*
X101998120Y-127106220D01*
X101900000Y-126869337D01*
X101900000Y-125400000D01*
X103600000Y-125400000D01*
X103619509Y-125398079D01*
X103638268Y-125392388D01*
X103655557Y-125383147D01*
X103670711Y-125370711D01*
X103683147Y-125355557D01*
X103692388Y-125338268D01*
X103698079Y-125319509D01*
X103700000Y-125300000D01*
X103700000Y-123600000D01*
X106400000Y-123600000D01*
X106400000Y-125500000D01*
X106401921Y-125519509D01*
X106407612Y-125538268D01*
X106416853Y-125555557D01*
X106429289Y-125570711D01*
X106444443Y-125583147D01*
X106461732Y-125592388D01*
X106480491Y-125598079D01*
X106500000Y-125600000D01*
X110700000Y-125600000D01*
X110700000Y-133900000D01*
X101023607Y-133900000D01*
X100044721Y-133410557D01*
X100026413Y-133403551D01*
X100000000Y-133400000D01*
X92000000Y-133400000D01*
X91980491Y-133401921D01*
X91955279Y-133410557D01*
X90976393Y-133900000D01*
X78800000Y-133900000D01*
X78800000Y-124700000D01*
X78798079Y-124680491D01*
X78792388Y-124661732D01*
X78787294Y-124651218D01*
X76900000Y-121273955D01*
X76900000Y-116100000D01*
X79644372Y-116100000D01*
X83202621Y-121832734D01*
%TO.N,/BB_VCC*%
G36*
X94200000Y-115560902D02*
G01*
X93026520Y-116832172D01*
X93014699Y-116847811D01*
X93006156Y-116865455D01*
X93001220Y-116884427D01*
X93000000Y-116900000D01*
X93000000Y-118000000D01*
X91900000Y-118000000D01*
X91900000Y-114800000D01*
X94200000Y-114800000D01*
X94200000Y-115560902D01*
G37*
X94200000Y-115560902D02*
X93026520Y-116832172D01*
X93014699Y-116847811D01*
X93006156Y-116865455D01*
X93001220Y-116884427D01*
X93000000Y-116900000D01*
X93000000Y-118000000D01*
X91900000Y-118000000D01*
X91900000Y-114800000D01*
X94200000Y-114800000D01*
X94200000Y-115560902D01*
%TO.N,BB_VIN*%
G36*
X91600000Y-96445732D02*
G01*
X89645501Y-97716156D01*
X89630191Y-97728399D01*
X89617564Y-97743394D01*
X89608104Y-97760564D01*
X89602177Y-97779250D01*
X89600000Y-97800000D01*
X89600000Y-103300000D01*
X84800000Y-103300000D01*
X84780491Y-103301921D01*
X84761732Y-103307612D01*
X84745454Y-103316186D01*
X78470325Y-107400000D01*
X76800000Y-107400000D01*
X76800000Y-106672949D01*
X76823600Y-106554303D01*
X76823600Y-106285697D01*
X76800000Y-106167051D01*
X76800000Y-104132949D01*
X76823600Y-104014303D01*
X76823600Y-103745697D01*
X76800000Y-103627051D01*
X76800000Y-101000000D01*
X86000000Y-101000000D01*
X86019509Y-100998079D01*
X86039392Y-100991915D01*
X87439392Y-100391915D01*
X87456567Y-100382463D01*
X87471568Y-100369843D01*
X87483818Y-100354539D01*
X87492848Y-100337139D01*
X87498309Y-100318312D01*
X87500000Y-100300000D01*
X87500000Y-99300000D01*
X87498079Y-99280491D01*
X87492388Y-99261732D01*
X87485479Y-99248102D01*
X85800000Y-96472019D01*
X85800000Y-94500000D01*
X91600000Y-94500000D01*
X91600000Y-96445732D01*
G37*
X91600000Y-96445732D02*
X89645501Y-97716156D01*
X89630191Y-97728399D01*
X89617564Y-97743394D01*
X89608104Y-97760564D01*
X89602177Y-97779250D01*
X89600000Y-97800000D01*
X89600000Y-103300000D01*
X84800000Y-103300000D01*
X84780491Y-103301921D01*
X84761732Y-103307612D01*
X84745454Y-103316186D01*
X78470325Y-107400000D01*
X76800000Y-107400000D01*
X76800000Y-106672949D01*
X76823600Y-106554303D01*
X76823600Y-106285697D01*
X76800000Y-106167051D01*
X76800000Y-104132949D01*
X76823600Y-104014303D01*
X76823600Y-103745697D01*
X76800000Y-103627051D01*
X76800000Y-101000000D01*
X86000000Y-101000000D01*
X86019509Y-100998079D01*
X86039392Y-100991915D01*
X87439392Y-100391915D01*
X87456567Y-100382463D01*
X87471568Y-100369843D01*
X87483818Y-100354539D01*
X87492848Y-100337139D01*
X87498309Y-100318312D01*
X87500000Y-100300000D01*
X87500000Y-99300000D01*
X87498079Y-99280491D01*
X87492388Y-99261732D01*
X87485479Y-99248102D01*
X85800000Y-96472019D01*
X85800000Y-94500000D01*
X91600000Y-94500000D01*
X91600000Y-96445732D01*
%TD*%
M02*
