M48
; DRILL file {KiCad (5.1.6)-1} date 04/15/22 15:17:16
; FORMAT={-:-/ absolute / inch / decimal}
; #@! TF.CreationDate,2022-04-15T15:17:16-04:00
; #@! TF.GenerationSoftware,Kicad,Pcbnew,(5.1.6)-1
FMAT,2
INCH
T1C0.0138
T2C0.0157
T3C0.0394
T4C0.0400
T5C0.1260
%
G90
G05
T1
X3.7402Y-4.4488
X3.7402Y-4.4882
X4.1929Y-4.4685
T2
X2.7756Y-3.8189
X2.7756Y-3.8583
X2.8937Y-3.9961
X2.8937Y-4.0551
X2.8937Y-4.0945
X2.8937Y-4.1732
X2.8937Y-4.2126
X2.8937Y-4.7638
X2.8937Y-4.8031
X2.8937Y-4.8425
X2.8937Y-4.8819
X2.9134Y-4.252
X2.9331Y-3.9173
X2.9331Y-4.7835
X2.9331Y-4.8622
X2.9724Y-3.9961
X2.9724Y-4.7638
X2.9724Y-4.8031
X2.9724Y-4.8425
X2.9724Y-4.8819
X2.9921Y-3.6811
X2.9921Y-4.9803
X2.9921Y-5.0197
X2.9921Y-5.0591
X2.9921Y-5.1575
X2.9921Y-5.1969
X3.0315Y-3.6811
X3.0315Y-3.9173
X3.063Y-4.9606
X3.063Y-5.0787
X3.0709Y-3.9173
X3.1378Y-4.4882
X3.1496Y-3.9173
X3.1496Y-4.252
X3.1496Y-4.2913
X3.189Y-3.9173
X3.1969Y-4.5197
X3.1988Y-4.4685
X3.2283Y-3.8189
X3.2283Y-3.8583
X3.252Y-4.685
X3.2677Y-4.4685
X3.2913Y-3.9291
X3.3031Y-4.5197
X3.3031Y-4.5827
X3.311Y-4.7598
X3.3268Y-4.8976
X3.3465Y-3.8622
X3.4055Y-3.9252
X3.4094Y-4.6535
X3.4449Y-4.8465
X3.5197Y-4.4685
X3.563Y-4.8465
X3.563Y-4.9016
X3.5669Y-4.0433
X3.5669Y-4.2559
X3.5827Y-3.8583
X3.5827Y-3.9764
X3.5945Y-4.2913
X3.5945Y-4.689
X3.6024Y-4.8465
X3.6024Y-4.9016
X3.6024Y-4.9409
X3.6063Y-4.2559
X3.6339Y-4.2874
X3.6339Y-4.3268
X3.6417Y-4.8465
X3.6614Y-3.9764
X3.6693Y-4.9173
X3.6732Y-3.8661
X3.6732Y-4.3268
X3.6929Y-4.6142
X3.6929Y-4.6535
X3.6929Y-4.689
X3.7008Y-5.2953
X3.7087Y-4.9173
X3.7126Y-4.3268
X3.7205Y-3.8583
X3.7362Y-3.9764
X3.7402Y-4.5827
X3.748Y-4.689
X3.748Y-4.9173
X3.7598Y-4.0433
X3.7835Y-3.9764
X3.7874Y-4.9173
X3.8189Y-3.8583
X3.8543Y-4.9173
X3.8583Y-3.9764
X3.8583Y-4.8465
X3.8583Y-5.2953
X3.8937Y-4.9173
X3.9016Y-4.2953
X3.9016Y-4.6378
X3.9173Y-3.8583
X3.9331Y-4.9173
X3.937Y-3.9764
X3.9646Y-3.8661
X3.9724Y-4.9173
X4.0118Y-3.9764
X4.0157Y-3.8583
X4.0394Y-4.0433
X4.2362Y-4.4685
X4.2717Y-4.2323
X4.3071Y-4.2008
X4.3425Y-4.1693
X4.3504Y-3.6811
X4.3898Y-3.6811
X4.3976Y-4.9606
X4.3976Y-5.0787
X4.4094Y-5.1575
X4.4094Y-5.1969
X4.4488Y-4.9409
X4.4488Y-5.0984
X4.4882Y-4.9409
X4.4882Y-5.0197
X4.4882Y-5.0984
X4.5276Y-4.9409
X4.5276Y-5.0197
X4.5591Y-3.8937
X4.5591Y-4.0197
X4.5591Y-4.2874
X4.5591Y-4.4134
X4.563Y-4.6811
X4.563Y-4.8071
X4.626Y-3.8189
X4.626Y-3.8583
T3
X3.4646Y-3.7598
X3.5646Y-3.7598
X3.6646Y-3.7598
X3.7646Y-3.7598
X3.8646Y-3.7598
X3.9646Y-3.7598
X4.0646Y-3.7598
X4.1646Y-3.7598
X3.4646Y-5.0197
X3.5646Y-5.0197
X3.6646Y-5.0197
X3.7646Y-5.0197
X3.8646Y-5.0197
X3.9646Y-5.0197
X4.0646Y-5.0197
X4.1646Y-5.0197
T4
X2.9709Y-4.0898
X2.9709Y-4.1898
X2.9709Y-4.2898
X2.9709Y-4.3898
X2.9709Y-4.4898
X2.9709Y-4.5898
X2.9709Y-4.6898
X3.0709Y-4.0898
X3.0709Y-4.1898
X3.0709Y-4.2898
X3.0709Y-4.3898
X3.0709Y-4.4898
X3.0709Y-4.5898
X3.0709Y-4.6898
T5
X4.5669Y-5.2165
X2.8346Y-3.6811
X2.8346Y-5.2165
X4.5669Y-3.6811
T0
M30
