%TF.GenerationSoftware,KiCad,Pcbnew,(5.1.6)-1*%
%TF.CreationDate,2022-04-15T15:17:14-04:00*%
%TF.ProjectId,MP28167 - Breakout,4d503238-3136-4372-902d-20427265616b,V1.0*%
%TF.SameCoordinates,Original*%
%TF.FileFunction,Legend,Top*%
%TF.FilePolarity,Positive*%
%FSLAX46Y46*%
G04 Gerber Fmt 4.6, Leading zero omitted, Abs format (unit mm)*
G04 Created by KiCad (PCBNEW (5.1.6)-1) date 2022-04-15 15:17:14*
%MOMM*%
%LPD*%
G01*
G04 APERTURE LIST*
%ADD10C,0.100000*%
%ADD11C,0.300000*%
%ADD12C,0.250000*%
%ADD13C,0.400000*%
%ADD14C,0.220000*%
%ADD15C,0.350000*%
%ADD16C,0.120000*%
%ADD17C,0.010000*%
%ADD18C,0.150000*%
%ADD19C,0.200000*%
G04 APERTURE END LIST*
D10*
G36*
X85000000Y-94250000D02*
G01*
X82000000Y-94250000D01*
X82000000Y-91250000D01*
X85000000Y-91250000D01*
X85000000Y-94250000D01*
G37*
X85000000Y-94250000D02*
X82000000Y-94250000D01*
X82000000Y-91250000D01*
X85000000Y-91250000D01*
X85000000Y-94250000D01*
G36*
X81250000Y-94250000D02*
G01*
X78250000Y-94250000D01*
X78250000Y-91250000D01*
X81250000Y-91250000D01*
X81250000Y-94250000D01*
G37*
X81250000Y-94250000D02*
X78250000Y-94250000D01*
X78250000Y-91250000D01*
X81250000Y-91250000D01*
X81250000Y-94250000D01*
D11*
X70292857Y-128500000D02*
X70364285Y-128285714D01*
X70435714Y-128214285D01*
X70578571Y-128142857D01*
X70792857Y-128142857D01*
X70935714Y-128214285D01*
X71007142Y-128285714D01*
X71078571Y-128428571D01*
X71078571Y-129000000D01*
X69578571Y-129000000D01*
X69578571Y-128500000D01*
X69650000Y-128357142D01*
X69721428Y-128285714D01*
X69864285Y-128214285D01*
X70007142Y-128214285D01*
X70150000Y-128285714D01*
X70221428Y-128357142D01*
X70292857Y-128500000D01*
X70292857Y-129000000D01*
X70292857Y-127000000D02*
X70364285Y-126785714D01*
X70435714Y-126714285D01*
X70578571Y-126642857D01*
X70792857Y-126642857D01*
X70935714Y-126714285D01*
X71007142Y-126785714D01*
X71078571Y-126928571D01*
X71078571Y-127500000D01*
X69578571Y-127500000D01*
X69578571Y-127000000D01*
X69650000Y-126857142D01*
X69721428Y-126785714D01*
X69864285Y-126714285D01*
X70007142Y-126714285D01*
X70150000Y-126785714D01*
X70221428Y-126857142D01*
X70292857Y-127000000D01*
X70292857Y-127500000D01*
X70507142Y-126000000D02*
X70507142Y-124857142D01*
X69578571Y-123857142D02*
X69578571Y-123714285D01*
X69650000Y-123571428D01*
X69721428Y-123500000D01*
X69864285Y-123428571D01*
X70150000Y-123357142D01*
X70507142Y-123357142D01*
X70792857Y-123428571D01*
X70935714Y-123500000D01*
X71007142Y-123571428D01*
X71078571Y-123714285D01*
X71078571Y-123857142D01*
X71007142Y-124000000D01*
X70935714Y-124071428D01*
X70792857Y-124142857D01*
X70507142Y-124214285D01*
X70150000Y-124214285D01*
X69864285Y-124142857D01*
X69721428Y-124071428D01*
X69650000Y-124000000D01*
X69578571Y-123857142D01*
X71078571Y-121928571D02*
X71078571Y-122785714D01*
X71078571Y-122357142D02*
X69578571Y-122357142D01*
X69792857Y-122500000D01*
X69935714Y-122642857D01*
X70007142Y-122785714D01*
D12*
X80300000Y-112828571D02*
X80300000Y-112257142D01*
X80642857Y-112942857D02*
X79442857Y-112542857D01*
X80642857Y-112142857D01*
X80642857Y-111171428D02*
X80642857Y-111742857D01*
X79442857Y-111742857D01*
X79442857Y-110942857D02*
X79442857Y-110257142D01*
X80642857Y-110600000D02*
X79442857Y-110600000D01*
X69714285Y-108814285D02*
X70114285Y-108814285D01*
X70285714Y-109442857D02*
X69714285Y-109442857D01*
X69714285Y-108242857D01*
X70285714Y-108242857D01*
X70800000Y-109442857D02*
X70800000Y-108242857D01*
X71485714Y-109442857D01*
X71485714Y-108242857D01*
X71485714Y-115557142D02*
X71542857Y-115385714D01*
X71542857Y-115100000D01*
X71485714Y-114985714D01*
X71428571Y-114928571D01*
X71314285Y-114871428D01*
X71200000Y-114871428D01*
X71085714Y-114928571D01*
X71028571Y-114985714D01*
X70971428Y-115100000D01*
X70914285Y-115328571D01*
X70857142Y-115442857D01*
X70800000Y-115500000D01*
X70685714Y-115557142D01*
X70571428Y-115557142D01*
X70457142Y-115500000D01*
X70400000Y-115442857D01*
X70342857Y-115328571D01*
X70342857Y-115042857D01*
X70400000Y-114871428D01*
X71542857Y-114357142D02*
X70342857Y-114357142D01*
X70342857Y-114071428D01*
X70400000Y-113900000D01*
X70514285Y-113785714D01*
X70628571Y-113728571D01*
X70857142Y-113671428D01*
X71028571Y-113671428D01*
X71257142Y-113728571D01*
X71371428Y-113785714D01*
X71485714Y-113900000D01*
X71542857Y-114071428D01*
X71542857Y-114357142D01*
X71200000Y-113214285D02*
X71200000Y-112642857D01*
X71542857Y-113328571D02*
X70342857Y-112928571D01*
X71542857Y-112528571D01*
X73885714Y-112928571D02*
X73942857Y-112757142D01*
X73942857Y-112471428D01*
X73885714Y-112357142D01*
X73828571Y-112300000D01*
X73714285Y-112242857D01*
X73600000Y-112242857D01*
X73485714Y-112300000D01*
X73428571Y-112357142D01*
X73371428Y-112471428D01*
X73314285Y-112700000D01*
X73257142Y-112814285D01*
X73200000Y-112871428D01*
X73085714Y-112928571D01*
X72971428Y-112928571D01*
X72857142Y-112871428D01*
X72800000Y-112814285D01*
X72742857Y-112700000D01*
X72742857Y-112414285D01*
X72800000Y-112242857D01*
X73828571Y-111042857D02*
X73885714Y-111100000D01*
X73942857Y-111271428D01*
X73942857Y-111385714D01*
X73885714Y-111557142D01*
X73771428Y-111671428D01*
X73657142Y-111728571D01*
X73428571Y-111785714D01*
X73257142Y-111785714D01*
X73028571Y-111728571D01*
X72914285Y-111671428D01*
X72800000Y-111557142D01*
X72742857Y-111385714D01*
X72742857Y-111271428D01*
X72800000Y-111100000D01*
X72857142Y-111042857D01*
X73942857Y-109957142D02*
X73942857Y-110528571D01*
X72742857Y-110528571D01*
X79642857Y-119914285D02*
X80842857Y-119514285D01*
X79642857Y-119114285D01*
X79642857Y-118485714D02*
X79642857Y-118257142D01*
X79700000Y-118142857D01*
X79814285Y-118028571D01*
X80042857Y-117971428D01*
X80442857Y-117971428D01*
X80671428Y-118028571D01*
X80785714Y-118142857D01*
X80842857Y-118257142D01*
X80842857Y-118485714D01*
X80785714Y-118600000D01*
X80671428Y-118714285D01*
X80442857Y-118771428D01*
X80042857Y-118771428D01*
X79814285Y-118714285D01*
X79700000Y-118600000D01*
X79642857Y-118485714D01*
X79642857Y-117457142D02*
X80614285Y-117457142D01*
X80728571Y-117400000D01*
X80785714Y-117342857D01*
X80842857Y-117228571D01*
X80842857Y-117000000D01*
X80785714Y-116885714D01*
X80728571Y-116828571D01*
X80614285Y-116771428D01*
X79642857Y-116771428D01*
X79642857Y-116371428D02*
X79642857Y-115685714D01*
X80842857Y-116028571D02*
X79642857Y-116028571D01*
X79442857Y-106314285D02*
X80642857Y-105914285D01*
X79442857Y-105514285D01*
X80642857Y-105114285D02*
X79442857Y-105114285D01*
X80642857Y-104542857D02*
X79442857Y-104542857D01*
X80642857Y-103857142D01*
X79442857Y-103857142D01*
X70400000Y-105914285D02*
X70342857Y-106028571D01*
X70342857Y-106200000D01*
X70400000Y-106371428D01*
X70514285Y-106485714D01*
X70628571Y-106542857D01*
X70857142Y-106600000D01*
X71028571Y-106600000D01*
X71257142Y-106542857D01*
X71371428Y-106485714D01*
X71485714Y-106371428D01*
X71542857Y-106200000D01*
X71542857Y-106085714D01*
X71485714Y-105914285D01*
X71428571Y-105857142D01*
X71028571Y-105857142D01*
X71028571Y-106085714D01*
X71542857Y-105342857D02*
X70342857Y-105342857D01*
X71542857Y-104657142D01*
X70342857Y-104657142D01*
X71542857Y-104085714D02*
X70342857Y-104085714D01*
X70342857Y-103800000D01*
X70400000Y-103628571D01*
X70514285Y-103514285D01*
X70628571Y-103457142D01*
X70857142Y-103400000D01*
X71028571Y-103400000D01*
X71257142Y-103457142D01*
X71371428Y-103514285D01*
X71485714Y-103628571D01*
X71542857Y-103800000D01*
X71542857Y-104085714D01*
X82585714Y-108400000D02*
X82471428Y-108342857D01*
X82300000Y-108342857D01*
X82128571Y-108400000D01*
X82014285Y-108514285D01*
X81957142Y-108628571D01*
X81900000Y-108857142D01*
X81900000Y-109028571D01*
X81957142Y-109257142D01*
X82014285Y-109371428D01*
X82128571Y-109485714D01*
X82300000Y-109542857D01*
X82414285Y-109542857D01*
X82585714Y-109485714D01*
X82642857Y-109428571D01*
X82642857Y-109028571D01*
X82414285Y-109028571D01*
X83157142Y-109542857D02*
X83157142Y-108342857D01*
X83842857Y-109542857D01*
X83842857Y-108342857D01*
X84414285Y-109542857D02*
X84414285Y-108342857D01*
X84700000Y-108342857D01*
X84871428Y-108400000D01*
X84985714Y-108514285D01*
X85042857Y-108628571D01*
X85100000Y-108857142D01*
X85100000Y-109028571D01*
X85042857Y-109257142D01*
X84985714Y-109371428D01*
X84871428Y-109485714D01*
X84700000Y-109542857D01*
X84414285Y-109542857D01*
X72800000Y-118714285D02*
X72742857Y-118828571D01*
X72742857Y-119000000D01*
X72800000Y-119171428D01*
X72914285Y-119285714D01*
X73028571Y-119342857D01*
X73257142Y-119400000D01*
X73428571Y-119400000D01*
X73657142Y-119342857D01*
X73771428Y-119285714D01*
X73885714Y-119171428D01*
X73942857Y-119000000D01*
X73942857Y-118885714D01*
X73885714Y-118714285D01*
X73828571Y-118657142D01*
X73428571Y-118657142D01*
X73428571Y-118885714D01*
X73942857Y-118142857D02*
X72742857Y-118142857D01*
X73942857Y-117457142D01*
X72742857Y-117457142D01*
X73942857Y-116885714D02*
X72742857Y-116885714D01*
X72742857Y-116600000D01*
X72800000Y-116428571D01*
X72914285Y-116314285D01*
X73028571Y-116257142D01*
X73257142Y-116200000D01*
X73428571Y-116200000D01*
X73657142Y-116257142D01*
X73771428Y-116314285D01*
X73885714Y-116428571D01*
X73942857Y-116600000D01*
X73942857Y-116885714D01*
D13*
X96341421Y-110400000D02*
G75*
G03*
X96341421Y-110400000I-141421J0D01*
G01*
D12*
X87342857Y-93614285D02*
X88542857Y-93214285D01*
X87342857Y-92814285D01*
X88542857Y-92414285D02*
X87342857Y-92414285D01*
X88542857Y-91842857D02*
X87342857Y-91842857D01*
X88542857Y-91157142D01*
X87342857Y-91157142D01*
X89942857Y-93614285D02*
X91142857Y-93214285D01*
X89942857Y-92814285D01*
X91142857Y-92414285D02*
X89942857Y-92414285D01*
X91142857Y-91842857D02*
X89942857Y-91842857D01*
X91142857Y-91157142D01*
X89942857Y-91157142D01*
X106000000Y-93328571D02*
X106000000Y-92757142D01*
X106342857Y-93442857D02*
X105142857Y-93042857D01*
X106342857Y-92642857D01*
X106342857Y-91671428D02*
X106342857Y-92242857D01*
X105142857Y-92242857D01*
X105142857Y-91442857D02*
X105142857Y-90757142D01*
X106342857Y-91100000D02*
X105142857Y-91100000D01*
X103114285Y-93185714D02*
X103114285Y-92785714D01*
X103742857Y-92614285D02*
X103742857Y-93185714D01*
X102542857Y-93185714D01*
X102542857Y-92614285D01*
X103742857Y-92100000D02*
X102542857Y-92100000D01*
X103742857Y-91414285D01*
X102542857Y-91414285D01*
X100100000Y-93214285D02*
X100042857Y-93328571D01*
X100042857Y-93500000D01*
X100100000Y-93671428D01*
X100214285Y-93785714D01*
X100328571Y-93842857D01*
X100557142Y-93900000D01*
X100728571Y-93900000D01*
X100957142Y-93842857D01*
X101071428Y-93785714D01*
X101185714Y-93671428D01*
X101242857Y-93500000D01*
X101242857Y-93385714D01*
X101185714Y-93214285D01*
X101128571Y-93157142D01*
X100728571Y-93157142D01*
X100728571Y-93385714D01*
X101242857Y-92642857D02*
X100042857Y-92642857D01*
X101242857Y-91957142D01*
X100042857Y-91957142D01*
X101242857Y-91385714D02*
X100042857Y-91385714D01*
X100042857Y-91100000D01*
X100100000Y-90928571D01*
X100214285Y-90814285D01*
X100328571Y-90757142D01*
X100557142Y-90700000D01*
X100728571Y-90700000D01*
X100957142Y-90757142D01*
X101071428Y-90814285D01*
X101185714Y-90928571D01*
X101242857Y-91100000D01*
X101242857Y-91385714D01*
X97500000Y-93214285D02*
X97442857Y-93328571D01*
X97442857Y-93500000D01*
X97500000Y-93671428D01*
X97614285Y-93785714D01*
X97728571Y-93842857D01*
X97957142Y-93900000D01*
X98128571Y-93900000D01*
X98357142Y-93842857D01*
X98471428Y-93785714D01*
X98585714Y-93671428D01*
X98642857Y-93500000D01*
X98642857Y-93385714D01*
X98585714Y-93214285D01*
X98528571Y-93157142D01*
X98128571Y-93157142D01*
X98128571Y-93385714D01*
X98642857Y-92642857D02*
X97442857Y-92642857D01*
X98642857Y-91957142D01*
X97442857Y-91957142D01*
X98642857Y-91385714D02*
X97442857Y-91385714D01*
X97442857Y-91100000D01*
X97500000Y-90928571D01*
X97614285Y-90814285D01*
X97728571Y-90757142D01*
X97957142Y-90700000D01*
X98128571Y-90700000D01*
X98357142Y-90757142D01*
X98471428Y-90814285D01*
X98585714Y-90928571D01*
X98642857Y-91100000D01*
X98642857Y-91385714D01*
X95000000Y-93214285D02*
X94942857Y-93328571D01*
X94942857Y-93500000D01*
X95000000Y-93671428D01*
X95114285Y-93785714D01*
X95228571Y-93842857D01*
X95457142Y-93900000D01*
X95628571Y-93900000D01*
X95857142Y-93842857D01*
X95971428Y-93785714D01*
X96085714Y-93671428D01*
X96142857Y-93500000D01*
X96142857Y-93385714D01*
X96085714Y-93214285D01*
X96028571Y-93157142D01*
X95628571Y-93157142D01*
X95628571Y-93385714D01*
X96142857Y-92642857D02*
X94942857Y-92642857D01*
X96142857Y-91957142D01*
X94942857Y-91957142D01*
X96142857Y-91385714D02*
X94942857Y-91385714D01*
X94942857Y-91100000D01*
X95000000Y-90928571D01*
X95114285Y-90814285D01*
X95228571Y-90757142D01*
X95457142Y-90700000D01*
X95628571Y-90700000D01*
X95857142Y-90757142D01*
X95971428Y-90814285D01*
X96085714Y-90928571D01*
X96142857Y-91100000D01*
X96142857Y-91385714D01*
X92500000Y-93214285D02*
X92442857Y-93328571D01*
X92442857Y-93500000D01*
X92500000Y-93671428D01*
X92614285Y-93785714D01*
X92728571Y-93842857D01*
X92957142Y-93900000D01*
X93128571Y-93900000D01*
X93357142Y-93842857D01*
X93471428Y-93785714D01*
X93585714Y-93671428D01*
X93642857Y-93500000D01*
X93642857Y-93385714D01*
X93585714Y-93214285D01*
X93528571Y-93157142D01*
X93128571Y-93157142D01*
X93128571Y-93385714D01*
X93642857Y-92642857D02*
X92442857Y-92642857D01*
X93642857Y-91957142D01*
X92442857Y-91957142D01*
X93642857Y-91385714D02*
X92442857Y-91385714D01*
X92442857Y-91100000D01*
X92500000Y-90928571D01*
X92614285Y-90814285D01*
X92728571Y-90757142D01*
X92957142Y-90700000D01*
X93128571Y-90700000D01*
X93357142Y-90757142D01*
X93471428Y-90814285D01*
X93585714Y-90928571D01*
X93642857Y-91100000D01*
X93642857Y-91385714D01*
X105342857Y-134014285D02*
X106542857Y-133614285D01*
X105342857Y-133214285D01*
X105342857Y-132585714D02*
X105342857Y-132357142D01*
X105400000Y-132242857D01*
X105514285Y-132128571D01*
X105742857Y-132071428D01*
X106142857Y-132071428D01*
X106371428Y-132128571D01*
X106485714Y-132242857D01*
X106542857Y-132357142D01*
X106542857Y-132585714D01*
X106485714Y-132700000D01*
X106371428Y-132814285D01*
X106142857Y-132871428D01*
X105742857Y-132871428D01*
X105514285Y-132814285D01*
X105400000Y-132700000D01*
X105342857Y-132585714D01*
X105342857Y-131557142D02*
X106314285Y-131557142D01*
X106428571Y-131500000D01*
X106485714Y-131442857D01*
X106542857Y-131328571D01*
X106542857Y-131100000D01*
X106485714Y-130985714D01*
X106428571Y-130928571D01*
X106314285Y-130871428D01*
X105342857Y-130871428D01*
X105342857Y-130471428D02*
X105342857Y-129785714D01*
X106542857Y-130128571D02*
X105342857Y-130128571D01*
X102842857Y-134014285D02*
X104042857Y-133614285D01*
X102842857Y-133214285D01*
X102842857Y-132585714D02*
X102842857Y-132357142D01*
X102900000Y-132242857D01*
X103014285Y-132128571D01*
X103242857Y-132071428D01*
X103642857Y-132071428D01*
X103871428Y-132128571D01*
X103985714Y-132242857D01*
X104042857Y-132357142D01*
X104042857Y-132585714D01*
X103985714Y-132700000D01*
X103871428Y-132814285D01*
X103642857Y-132871428D01*
X103242857Y-132871428D01*
X103014285Y-132814285D01*
X102900000Y-132700000D01*
X102842857Y-132585714D01*
X102842857Y-131557142D02*
X103814285Y-131557142D01*
X103928571Y-131500000D01*
X103985714Y-131442857D01*
X104042857Y-131328571D01*
X104042857Y-131100000D01*
X103985714Y-130985714D01*
X103928571Y-130928571D01*
X103814285Y-130871428D01*
X102842857Y-130871428D01*
X102842857Y-130471428D02*
X102842857Y-129785714D01*
X104042857Y-130128571D02*
X102842857Y-130128571D01*
X100200000Y-132414285D02*
X100142857Y-132528571D01*
X100142857Y-132700000D01*
X100200000Y-132871428D01*
X100314285Y-132985714D01*
X100428571Y-133042857D01*
X100657142Y-133100000D01*
X100828571Y-133100000D01*
X101057142Y-133042857D01*
X101171428Y-132985714D01*
X101285714Y-132871428D01*
X101342857Y-132700000D01*
X101342857Y-132585714D01*
X101285714Y-132414285D01*
X101228571Y-132357142D01*
X100828571Y-132357142D01*
X100828571Y-132585714D01*
X101342857Y-131842857D02*
X100142857Y-131842857D01*
X101342857Y-131157142D01*
X100142857Y-131157142D01*
X101342857Y-130585714D02*
X100142857Y-130585714D01*
X100142857Y-130300000D01*
X100200000Y-130128571D01*
X100314285Y-130014285D01*
X100428571Y-129957142D01*
X100657142Y-129900000D01*
X100828571Y-129900000D01*
X101057142Y-129957142D01*
X101171428Y-130014285D01*
X101285714Y-130128571D01*
X101342857Y-130300000D01*
X101342857Y-130585714D01*
X97700000Y-132414285D02*
X97642857Y-132528571D01*
X97642857Y-132700000D01*
X97700000Y-132871428D01*
X97814285Y-132985714D01*
X97928571Y-133042857D01*
X98157142Y-133100000D01*
X98328571Y-133100000D01*
X98557142Y-133042857D01*
X98671428Y-132985714D01*
X98785714Y-132871428D01*
X98842857Y-132700000D01*
X98842857Y-132585714D01*
X98785714Y-132414285D01*
X98728571Y-132357142D01*
X98328571Y-132357142D01*
X98328571Y-132585714D01*
X98842857Y-131842857D02*
X97642857Y-131842857D01*
X98842857Y-131157142D01*
X97642857Y-131157142D01*
X98842857Y-130585714D02*
X97642857Y-130585714D01*
X97642857Y-130300000D01*
X97700000Y-130128571D01*
X97814285Y-130014285D01*
X97928571Y-129957142D01*
X98157142Y-129900000D01*
X98328571Y-129900000D01*
X98557142Y-129957142D01*
X98671428Y-130014285D01*
X98785714Y-130128571D01*
X98842857Y-130300000D01*
X98842857Y-130585714D01*
X95100000Y-132414285D02*
X95042857Y-132528571D01*
X95042857Y-132700000D01*
X95100000Y-132871428D01*
X95214285Y-132985714D01*
X95328571Y-133042857D01*
X95557142Y-133100000D01*
X95728571Y-133100000D01*
X95957142Y-133042857D01*
X96071428Y-132985714D01*
X96185714Y-132871428D01*
X96242857Y-132700000D01*
X96242857Y-132585714D01*
X96185714Y-132414285D01*
X96128571Y-132357142D01*
X95728571Y-132357142D01*
X95728571Y-132585714D01*
X96242857Y-131842857D02*
X95042857Y-131842857D01*
X96242857Y-131157142D01*
X95042857Y-131157142D01*
X96242857Y-130585714D02*
X95042857Y-130585714D01*
X95042857Y-130300000D01*
X95100000Y-130128571D01*
X95214285Y-130014285D01*
X95328571Y-129957142D01*
X95557142Y-129900000D01*
X95728571Y-129900000D01*
X95957142Y-129957142D01*
X96071428Y-130014285D01*
X96185714Y-130128571D01*
X96242857Y-130300000D01*
X96242857Y-130585714D01*
X92500000Y-132414285D02*
X92442857Y-132528571D01*
X92442857Y-132700000D01*
X92500000Y-132871428D01*
X92614285Y-132985714D01*
X92728571Y-133042857D01*
X92957142Y-133100000D01*
X93128571Y-133100000D01*
X93357142Y-133042857D01*
X93471428Y-132985714D01*
X93585714Y-132871428D01*
X93642857Y-132700000D01*
X93642857Y-132585714D01*
X93585714Y-132414285D01*
X93528571Y-132357142D01*
X93128571Y-132357142D01*
X93128571Y-132585714D01*
X93642857Y-131842857D02*
X92442857Y-131842857D01*
X93642857Y-131157142D01*
X92442857Y-131157142D01*
X93642857Y-130585714D02*
X92442857Y-130585714D01*
X92442857Y-130300000D01*
X92500000Y-130128571D01*
X92614285Y-130014285D01*
X92728571Y-129957142D01*
X92957142Y-129900000D01*
X93128571Y-129900000D01*
X93357142Y-129957142D01*
X93471428Y-130014285D01*
X93585714Y-130128571D01*
X93642857Y-130300000D01*
X93642857Y-130585714D01*
X91085714Y-132928571D02*
X91142857Y-132757142D01*
X91142857Y-132471428D01*
X91085714Y-132357142D01*
X91028571Y-132300000D01*
X90914285Y-132242857D01*
X90800000Y-132242857D01*
X90685714Y-132300000D01*
X90628571Y-132357142D01*
X90571428Y-132471428D01*
X90514285Y-132700000D01*
X90457142Y-132814285D01*
X90400000Y-132871428D01*
X90285714Y-132928571D01*
X90171428Y-132928571D01*
X90057142Y-132871428D01*
X90000000Y-132814285D01*
X89942857Y-132700000D01*
X89942857Y-132414285D01*
X90000000Y-132242857D01*
X91028571Y-131042857D02*
X91085714Y-131100000D01*
X91142857Y-131271428D01*
X91142857Y-131385714D01*
X91085714Y-131557142D01*
X90971428Y-131671428D01*
X90857142Y-131728571D01*
X90628571Y-131785714D01*
X90457142Y-131785714D01*
X90228571Y-131728571D01*
X90114285Y-131671428D01*
X90000000Y-131557142D01*
X89942857Y-131385714D01*
X89942857Y-131271428D01*
X90000000Y-131100000D01*
X90057142Y-131042857D01*
X91142857Y-129957142D02*
X91142857Y-130528571D01*
X89942857Y-130528571D01*
X88485714Y-132957142D02*
X88542857Y-132785714D01*
X88542857Y-132500000D01*
X88485714Y-132385714D01*
X88428571Y-132328571D01*
X88314285Y-132271428D01*
X88200000Y-132271428D01*
X88085714Y-132328571D01*
X88028571Y-132385714D01*
X87971428Y-132500000D01*
X87914285Y-132728571D01*
X87857142Y-132842857D01*
X87800000Y-132900000D01*
X87685714Y-132957142D01*
X87571428Y-132957142D01*
X87457142Y-132900000D01*
X87400000Y-132842857D01*
X87342857Y-132728571D01*
X87342857Y-132442857D01*
X87400000Y-132271428D01*
X88542857Y-131757142D02*
X87342857Y-131757142D01*
X87342857Y-131471428D01*
X87400000Y-131300000D01*
X87514285Y-131185714D01*
X87628571Y-131128571D01*
X87857142Y-131071428D01*
X88028571Y-131071428D01*
X88257142Y-131128571D01*
X88371428Y-131185714D01*
X88485714Y-131300000D01*
X88542857Y-131471428D01*
X88542857Y-131757142D01*
X88200000Y-130614285D02*
X88200000Y-130042857D01*
X88542857Y-130728571D02*
X87342857Y-130328571D01*
X88542857Y-129928571D01*
D14*
X77347619Y-133697619D02*
X77452380Y-133697619D01*
X77557142Y-133750000D01*
X77609523Y-133802380D01*
X77661904Y-133907142D01*
X77714285Y-134116666D01*
X77714285Y-134378571D01*
X77661904Y-134588095D01*
X77609523Y-134692857D01*
X77557142Y-134745238D01*
X77452380Y-134797619D01*
X77347619Y-134797619D01*
X77242857Y-134745238D01*
X77190476Y-134692857D01*
X77138095Y-134588095D01*
X77085714Y-134378571D01*
X77085714Y-134116666D01*
X77138095Y-133907142D01*
X77190476Y-133802380D01*
X77242857Y-133750000D01*
X77347619Y-133697619D01*
X78657142Y-134064285D02*
X78657142Y-134797619D01*
X78395238Y-133645238D02*
X78133333Y-134430952D01*
X78814285Y-134430952D01*
X79233333Y-134378571D02*
X80071428Y-134378571D01*
X80542857Y-133802380D02*
X80595238Y-133750000D01*
X80700000Y-133697619D01*
X80961904Y-133697619D01*
X81066666Y-133750000D01*
X81119047Y-133802380D01*
X81171428Y-133907142D01*
X81171428Y-134011904D01*
X81119047Y-134169047D01*
X80490476Y-134797619D01*
X81171428Y-134797619D01*
X81852380Y-133697619D02*
X81957142Y-133697619D01*
X82061904Y-133750000D01*
X82114285Y-133802380D01*
X82166666Y-133907142D01*
X82219047Y-134116666D01*
X82219047Y-134378571D01*
X82166666Y-134588095D01*
X82114285Y-134692857D01*
X82061904Y-134745238D01*
X81957142Y-134797619D01*
X81852380Y-134797619D01*
X81747619Y-134745238D01*
X81695238Y-134692857D01*
X81642857Y-134588095D01*
X81590476Y-134378571D01*
X81590476Y-134116666D01*
X81642857Y-133907142D01*
X81695238Y-133802380D01*
X81747619Y-133750000D01*
X81852380Y-133697619D01*
X82638095Y-133802380D02*
X82690476Y-133750000D01*
X82795238Y-133697619D01*
X83057142Y-133697619D01*
X83161904Y-133750000D01*
X83214285Y-133802380D01*
X83266666Y-133907142D01*
X83266666Y-134011904D01*
X83214285Y-134169047D01*
X82585714Y-134797619D01*
X83266666Y-134797619D01*
X83685714Y-133802380D02*
X83738095Y-133750000D01*
X83842857Y-133697619D01*
X84104761Y-133697619D01*
X84209523Y-133750000D01*
X84261904Y-133802380D01*
X84314285Y-133907142D01*
X84314285Y-134011904D01*
X84261904Y-134169047D01*
X83633333Y-134797619D01*
X84314285Y-134797619D01*
D15*
X101830952Y-100069047D02*
X101669047Y-99988095D01*
X101588095Y-99907142D01*
X101507142Y-99745238D01*
X101507142Y-99259523D01*
X101588095Y-99097619D01*
X101669047Y-99016666D01*
X101830952Y-98935714D01*
X102073809Y-98935714D01*
X102235714Y-99016666D01*
X102316666Y-99097619D01*
X102397619Y-99259523D01*
X102397619Y-99745238D01*
X102316666Y-99907142D01*
X102235714Y-99988095D01*
X102073809Y-100069047D01*
X101830952Y-100069047D01*
X103045238Y-99988095D02*
X103207142Y-100069047D01*
X103530952Y-100069047D01*
X103692857Y-99988095D01*
X103773809Y-99826190D01*
X103773809Y-99745238D01*
X103692857Y-99583333D01*
X103530952Y-99502380D01*
X103288095Y-99502380D01*
X103126190Y-99421428D01*
X103045238Y-99259523D01*
X103045238Y-99178571D01*
X103126190Y-99016666D01*
X103288095Y-98935714D01*
X103530952Y-98935714D01*
X103692857Y-99016666D01*
X104502380Y-100069047D02*
X104502380Y-98369047D01*
X105230952Y-100069047D02*
X105230952Y-99178571D01*
X105150000Y-99016666D01*
X104988095Y-98935714D01*
X104745238Y-98935714D01*
X104583333Y-99016666D01*
X104502380Y-99097619D01*
X105878571Y-98935714D02*
X106202380Y-100069047D01*
X106526190Y-99259523D01*
X106850000Y-100069047D01*
X107173809Y-98935714D01*
X78161904Y-131423809D02*
X78695238Y-133023809D01*
X79228571Y-131423809D01*
X80600000Y-133023809D02*
X79685714Y-133023809D01*
X80142857Y-133023809D02*
X80142857Y-131423809D01*
X79990476Y-131652380D01*
X79838095Y-131804761D01*
X79685714Y-131880952D01*
X81285714Y-132871428D02*
X81361904Y-132947619D01*
X81285714Y-133023809D01*
X81209523Y-132947619D01*
X81285714Y-132871428D01*
X81285714Y-133023809D01*
X82352380Y-131423809D02*
X82504761Y-131423809D01*
X82657142Y-131500000D01*
X82733333Y-131576190D01*
X82809523Y-131728571D01*
X82885714Y-132033333D01*
X82885714Y-132414285D01*
X82809523Y-132719047D01*
X82733333Y-132871428D01*
X82657142Y-132947619D01*
X82504761Y-133023809D01*
X82352380Y-133023809D01*
X82200000Y-132947619D01*
X82123809Y-132871428D01*
X82047619Y-132719047D01*
X81971428Y-132414285D01*
X81971428Y-132033333D01*
X82047619Y-131728571D01*
X82123809Y-131576190D01*
X82200000Y-131500000D01*
X82352380Y-131423809D01*
D16*
%TO.C,C3*%
X87296267Y-111490000D02*
X86953733Y-111490000D01*
X87296267Y-112510000D02*
X86953733Y-112510000D01*
%TO.C,R1*%
X87296267Y-112990000D02*
X86953733Y-112990000D01*
X87296267Y-114010000D02*
X86953733Y-114010000D01*
%TO.C,R2*%
X89046267Y-116010000D02*
X88703733Y-116010000D01*
X89046267Y-114990000D02*
X88703733Y-114990000D01*
%TO.C,C7*%
X94710000Y-103736252D02*
X94710000Y-103213748D01*
X93290000Y-103736252D02*
X93290000Y-103213748D01*
D17*
%TO.C,LOGO1*%
G36*
X106555814Y-101468931D02*
G01*
X106639635Y-101913555D01*
X106948920Y-102041053D01*
X107258206Y-102168551D01*
X107629246Y-101916246D01*
X107733157Y-101845996D01*
X107827087Y-101783272D01*
X107906652Y-101730938D01*
X107967470Y-101691857D01*
X108005157Y-101668893D01*
X108015421Y-101663942D01*
X108033910Y-101676676D01*
X108073420Y-101711882D01*
X108129522Y-101765062D01*
X108197787Y-101831718D01*
X108273786Y-101907354D01*
X108353092Y-101987472D01*
X108431275Y-102067574D01*
X108503907Y-102143164D01*
X108566559Y-102209745D01*
X108614803Y-102262818D01*
X108644210Y-102297887D01*
X108651241Y-102309623D01*
X108641123Y-102331260D01*
X108612759Y-102378662D01*
X108569129Y-102447193D01*
X108513218Y-102532215D01*
X108448006Y-102629093D01*
X108410219Y-102684350D01*
X108341343Y-102785248D01*
X108280140Y-102876299D01*
X108229578Y-102952970D01*
X108192628Y-103010728D01*
X108172258Y-103045043D01*
X108169197Y-103052254D01*
X108176136Y-103072748D01*
X108195051Y-103120513D01*
X108223087Y-103188832D01*
X108257391Y-103270989D01*
X108295109Y-103360270D01*
X108333387Y-103449958D01*
X108369370Y-103533338D01*
X108400206Y-103603694D01*
X108423039Y-103654310D01*
X108435017Y-103678471D01*
X108435724Y-103679422D01*
X108454531Y-103684036D01*
X108504618Y-103694328D01*
X108580793Y-103709287D01*
X108677865Y-103727901D01*
X108790643Y-103749159D01*
X108856442Y-103761418D01*
X108976950Y-103784362D01*
X109085797Y-103806195D01*
X109177476Y-103825722D01*
X109246481Y-103841748D01*
X109287304Y-103853079D01*
X109295511Y-103856674D01*
X109303548Y-103881006D01*
X109310033Y-103935959D01*
X109314970Y-104015108D01*
X109318364Y-104112026D01*
X109320218Y-104220287D01*
X109320538Y-104333465D01*
X109319327Y-104445135D01*
X109316590Y-104548868D01*
X109312331Y-104638241D01*
X109306555Y-104706826D01*
X109299267Y-104748197D01*
X109294895Y-104756810D01*
X109268764Y-104767133D01*
X109213393Y-104781892D01*
X109136107Y-104799352D01*
X109044230Y-104817780D01*
X109012158Y-104823741D01*
X108857524Y-104852066D01*
X108735375Y-104874876D01*
X108641673Y-104893080D01*
X108572384Y-104907583D01*
X108523471Y-104919292D01*
X108490897Y-104929115D01*
X108470628Y-104937956D01*
X108458626Y-104946724D01*
X108456947Y-104948457D01*
X108440184Y-104976371D01*
X108414614Y-105030695D01*
X108382788Y-105104777D01*
X108347260Y-105191965D01*
X108310583Y-105285608D01*
X108275311Y-105379052D01*
X108243996Y-105465647D01*
X108219193Y-105538740D01*
X108203454Y-105591678D01*
X108199332Y-105617811D01*
X108199676Y-105618726D01*
X108213641Y-105640086D01*
X108245322Y-105687084D01*
X108291391Y-105754827D01*
X108348518Y-105838423D01*
X108413373Y-105932982D01*
X108431843Y-105959854D01*
X108497699Y-106057275D01*
X108555650Y-106146163D01*
X108602538Y-106221412D01*
X108635207Y-106277920D01*
X108650500Y-106310581D01*
X108651241Y-106314593D01*
X108638392Y-106335684D01*
X108602888Y-106377464D01*
X108549293Y-106435445D01*
X108482171Y-106505135D01*
X108406087Y-106582045D01*
X108325604Y-106661683D01*
X108245287Y-106739561D01*
X108169699Y-106811186D01*
X108103405Y-106872070D01*
X108050969Y-106917721D01*
X108016955Y-106943650D01*
X108007545Y-106947883D01*
X107985643Y-106937912D01*
X107940800Y-106911020D01*
X107880321Y-106871736D01*
X107833789Y-106840117D01*
X107749475Y-106782098D01*
X107649626Y-106713784D01*
X107549473Y-106645579D01*
X107495627Y-106609075D01*
X107313371Y-106485800D01*
X107160381Y-106568520D01*
X107090682Y-106604759D01*
X107031414Y-106632926D01*
X106991311Y-106648991D01*
X106981103Y-106651226D01*
X106968829Y-106634722D01*
X106944613Y-106588082D01*
X106910263Y-106515609D01*
X106867588Y-106421606D01*
X106818394Y-106310374D01*
X106764490Y-106186215D01*
X106707684Y-106053432D01*
X106649782Y-105916327D01*
X106592593Y-105779202D01*
X106537924Y-105646358D01*
X106487584Y-105522098D01*
X106443380Y-105410725D01*
X106407119Y-105316539D01*
X106380609Y-105243844D01*
X106365658Y-105196941D01*
X106363254Y-105180833D01*
X106382311Y-105160286D01*
X106424036Y-105126933D01*
X106479706Y-105087702D01*
X106484378Y-105084599D01*
X106628264Y-104969423D01*
X106744283Y-104835053D01*
X106831430Y-104685784D01*
X106888699Y-104525913D01*
X106915086Y-104359737D01*
X106909585Y-104191552D01*
X106871190Y-104025655D01*
X106798895Y-103866342D01*
X106777626Y-103831487D01*
X106666996Y-103690737D01*
X106536302Y-103577714D01*
X106390064Y-103493003D01*
X106232808Y-103437194D01*
X106069057Y-103410874D01*
X105903333Y-103414630D01*
X105740162Y-103449050D01*
X105584065Y-103514723D01*
X105439567Y-103612235D01*
X105394869Y-103651813D01*
X105281112Y-103775703D01*
X105198218Y-103906124D01*
X105141356Y-104052315D01*
X105109687Y-104197088D01*
X105101869Y-104359860D01*
X105127938Y-104523440D01*
X105185245Y-104682298D01*
X105271144Y-104830906D01*
X105382986Y-104963735D01*
X105518123Y-105075256D01*
X105535883Y-105087011D01*
X105592150Y-105125508D01*
X105634923Y-105158863D01*
X105655372Y-105180160D01*
X105655669Y-105180833D01*
X105651279Y-105203871D01*
X105633876Y-105256157D01*
X105605268Y-105333390D01*
X105567265Y-105431268D01*
X105521674Y-105545491D01*
X105470303Y-105671758D01*
X105414962Y-105805767D01*
X105357458Y-105943218D01*
X105299601Y-106079808D01*
X105243198Y-106211237D01*
X105190058Y-106333205D01*
X105141990Y-106441409D01*
X105100801Y-106531549D01*
X105068301Y-106599323D01*
X105046297Y-106640430D01*
X105037436Y-106651226D01*
X105010360Y-106642819D01*
X104959697Y-106620272D01*
X104894183Y-106587613D01*
X104858159Y-106568520D01*
X104705168Y-106485800D01*
X104522912Y-106609075D01*
X104429875Y-106672228D01*
X104328015Y-106741727D01*
X104232562Y-106807165D01*
X104184750Y-106840117D01*
X104117505Y-106885273D01*
X104060564Y-106921057D01*
X104021354Y-106942938D01*
X104008619Y-106947563D01*
X103990083Y-106935085D01*
X103949059Y-106900252D01*
X103889525Y-106846678D01*
X103815458Y-106777983D01*
X103730835Y-106697781D01*
X103677315Y-106646286D01*
X103583681Y-106554286D01*
X103502759Y-106471999D01*
X103437823Y-106402945D01*
X103392142Y-106350644D01*
X103368989Y-106318616D01*
X103366768Y-106312116D01*
X103377076Y-106287394D01*
X103405561Y-106237405D01*
X103449063Y-106167212D01*
X103504423Y-106081875D01*
X103568480Y-105986456D01*
X103586697Y-105959854D01*
X103653073Y-105863167D01*
X103712622Y-105776117D01*
X103762016Y-105703595D01*
X103797925Y-105650493D01*
X103817019Y-105621703D01*
X103818864Y-105618726D01*
X103816105Y-105595782D01*
X103801462Y-105545336D01*
X103777487Y-105474041D01*
X103746734Y-105388547D01*
X103711756Y-105295507D01*
X103675107Y-105201574D01*
X103639339Y-105113399D01*
X103607006Y-105037634D01*
X103580662Y-104980931D01*
X103562858Y-104949943D01*
X103561593Y-104948457D01*
X103550706Y-104939601D01*
X103532318Y-104930843D01*
X103502394Y-104921277D01*
X103456897Y-104909996D01*
X103391791Y-104896093D01*
X103303039Y-104878663D01*
X103186607Y-104856798D01*
X103038458Y-104829591D01*
X103006382Y-104823741D01*
X102911314Y-104805374D01*
X102828435Y-104787405D01*
X102765070Y-104771569D01*
X102728542Y-104759600D01*
X102723644Y-104756810D01*
X102715573Y-104732072D01*
X102709013Y-104676790D01*
X102703967Y-104597389D01*
X102700441Y-104500296D01*
X102698439Y-104391938D01*
X102697964Y-104278740D01*
X102699023Y-104167128D01*
X102701618Y-104063529D01*
X102705754Y-103974368D01*
X102711437Y-103906072D01*
X102718669Y-103865066D01*
X102723029Y-103856674D01*
X102747302Y-103848208D01*
X102802574Y-103834435D01*
X102883338Y-103816550D01*
X102984088Y-103795748D01*
X103099317Y-103773223D01*
X103162098Y-103761418D01*
X103281213Y-103739151D01*
X103387435Y-103718979D01*
X103475573Y-103701915D01*
X103540434Y-103688969D01*
X103576826Y-103681155D01*
X103582816Y-103679422D01*
X103592939Y-103659890D01*
X103614338Y-103612843D01*
X103644161Y-103545003D01*
X103679555Y-103463091D01*
X103717668Y-103373828D01*
X103755647Y-103283935D01*
X103790640Y-103200135D01*
X103819794Y-103129147D01*
X103840257Y-103077694D01*
X103849177Y-103052497D01*
X103849343Y-103051396D01*
X103839231Y-103031519D01*
X103810883Y-102985777D01*
X103767277Y-102918717D01*
X103711394Y-102834884D01*
X103646213Y-102738826D01*
X103608321Y-102683650D01*
X103539275Y-102582481D01*
X103477950Y-102490630D01*
X103427337Y-102412744D01*
X103390429Y-102353469D01*
X103370218Y-102317451D01*
X103367299Y-102309377D01*
X103379847Y-102290584D01*
X103414537Y-102250457D01*
X103466937Y-102193493D01*
X103532616Y-102124185D01*
X103607144Y-102047031D01*
X103686087Y-101966525D01*
X103765017Y-101887163D01*
X103839500Y-101813440D01*
X103905106Y-101749852D01*
X103957404Y-101700894D01*
X103991961Y-101671061D01*
X104003522Y-101663942D01*
X104022346Y-101673953D01*
X104067369Y-101702078D01*
X104134213Y-101745454D01*
X104218501Y-101801218D01*
X104315856Y-101866506D01*
X104389293Y-101916246D01*
X104760333Y-102168551D01*
X105378905Y-101913555D01*
X105462725Y-101468931D01*
X105546546Y-101024307D01*
X106471994Y-101024307D01*
X106555814Y-101468931D01*
G37*
X106555814Y-101468931D02*
X106639635Y-101913555D01*
X106948920Y-102041053D01*
X107258206Y-102168551D01*
X107629246Y-101916246D01*
X107733157Y-101845996D01*
X107827087Y-101783272D01*
X107906652Y-101730938D01*
X107967470Y-101691857D01*
X108005157Y-101668893D01*
X108015421Y-101663942D01*
X108033910Y-101676676D01*
X108073420Y-101711882D01*
X108129522Y-101765062D01*
X108197787Y-101831718D01*
X108273786Y-101907354D01*
X108353092Y-101987472D01*
X108431275Y-102067574D01*
X108503907Y-102143164D01*
X108566559Y-102209745D01*
X108614803Y-102262818D01*
X108644210Y-102297887D01*
X108651241Y-102309623D01*
X108641123Y-102331260D01*
X108612759Y-102378662D01*
X108569129Y-102447193D01*
X108513218Y-102532215D01*
X108448006Y-102629093D01*
X108410219Y-102684350D01*
X108341343Y-102785248D01*
X108280140Y-102876299D01*
X108229578Y-102952970D01*
X108192628Y-103010728D01*
X108172258Y-103045043D01*
X108169197Y-103052254D01*
X108176136Y-103072748D01*
X108195051Y-103120513D01*
X108223087Y-103188832D01*
X108257391Y-103270989D01*
X108295109Y-103360270D01*
X108333387Y-103449958D01*
X108369370Y-103533338D01*
X108400206Y-103603694D01*
X108423039Y-103654310D01*
X108435017Y-103678471D01*
X108435724Y-103679422D01*
X108454531Y-103684036D01*
X108504618Y-103694328D01*
X108580793Y-103709287D01*
X108677865Y-103727901D01*
X108790643Y-103749159D01*
X108856442Y-103761418D01*
X108976950Y-103784362D01*
X109085797Y-103806195D01*
X109177476Y-103825722D01*
X109246481Y-103841748D01*
X109287304Y-103853079D01*
X109295511Y-103856674D01*
X109303548Y-103881006D01*
X109310033Y-103935959D01*
X109314970Y-104015108D01*
X109318364Y-104112026D01*
X109320218Y-104220287D01*
X109320538Y-104333465D01*
X109319327Y-104445135D01*
X109316590Y-104548868D01*
X109312331Y-104638241D01*
X109306555Y-104706826D01*
X109299267Y-104748197D01*
X109294895Y-104756810D01*
X109268764Y-104767133D01*
X109213393Y-104781892D01*
X109136107Y-104799352D01*
X109044230Y-104817780D01*
X109012158Y-104823741D01*
X108857524Y-104852066D01*
X108735375Y-104874876D01*
X108641673Y-104893080D01*
X108572384Y-104907583D01*
X108523471Y-104919292D01*
X108490897Y-104929115D01*
X108470628Y-104937956D01*
X108458626Y-104946724D01*
X108456947Y-104948457D01*
X108440184Y-104976371D01*
X108414614Y-105030695D01*
X108382788Y-105104777D01*
X108347260Y-105191965D01*
X108310583Y-105285608D01*
X108275311Y-105379052D01*
X108243996Y-105465647D01*
X108219193Y-105538740D01*
X108203454Y-105591678D01*
X108199332Y-105617811D01*
X108199676Y-105618726D01*
X108213641Y-105640086D01*
X108245322Y-105687084D01*
X108291391Y-105754827D01*
X108348518Y-105838423D01*
X108413373Y-105932982D01*
X108431843Y-105959854D01*
X108497699Y-106057275D01*
X108555650Y-106146163D01*
X108602538Y-106221412D01*
X108635207Y-106277920D01*
X108650500Y-106310581D01*
X108651241Y-106314593D01*
X108638392Y-106335684D01*
X108602888Y-106377464D01*
X108549293Y-106435445D01*
X108482171Y-106505135D01*
X108406087Y-106582045D01*
X108325604Y-106661683D01*
X108245287Y-106739561D01*
X108169699Y-106811186D01*
X108103405Y-106872070D01*
X108050969Y-106917721D01*
X108016955Y-106943650D01*
X108007545Y-106947883D01*
X107985643Y-106937912D01*
X107940800Y-106911020D01*
X107880321Y-106871736D01*
X107833789Y-106840117D01*
X107749475Y-106782098D01*
X107649626Y-106713784D01*
X107549473Y-106645579D01*
X107495627Y-106609075D01*
X107313371Y-106485800D01*
X107160381Y-106568520D01*
X107090682Y-106604759D01*
X107031414Y-106632926D01*
X106991311Y-106648991D01*
X106981103Y-106651226D01*
X106968829Y-106634722D01*
X106944613Y-106588082D01*
X106910263Y-106515609D01*
X106867588Y-106421606D01*
X106818394Y-106310374D01*
X106764490Y-106186215D01*
X106707684Y-106053432D01*
X106649782Y-105916327D01*
X106592593Y-105779202D01*
X106537924Y-105646358D01*
X106487584Y-105522098D01*
X106443380Y-105410725D01*
X106407119Y-105316539D01*
X106380609Y-105243844D01*
X106365658Y-105196941D01*
X106363254Y-105180833D01*
X106382311Y-105160286D01*
X106424036Y-105126933D01*
X106479706Y-105087702D01*
X106484378Y-105084599D01*
X106628264Y-104969423D01*
X106744283Y-104835053D01*
X106831430Y-104685784D01*
X106888699Y-104525913D01*
X106915086Y-104359737D01*
X106909585Y-104191552D01*
X106871190Y-104025655D01*
X106798895Y-103866342D01*
X106777626Y-103831487D01*
X106666996Y-103690737D01*
X106536302Y-103577714D01*
X106390064Y-103493003D01*
X106232808Y-103437194D01*
X106069057Y-103410874D01*
X105903333Y-103414630D01*
X105740162Y-103449050D01*
X105584065Y-103514723D01*
X105439567Y-103612235D01*
X105394869Y-103651813D01*
X105281112Y-103775703D01*
X105198218Y-103906124D01*
X105141356Y-104052315D01*
X105109687Y-104197088D01*
X105101869Y-104359860D01*
X105127938Y-104523440D01*
X105185245Y-104682298D01*
X105271144Y-104830906D01*
X105382986Y-104963735D01*
X105518123Y-105075256D01*
X105535883Y-105087011D01*
X105592150Y-105125508D01*
X105634923Y-105158863D01*
X105655372Y-105180160D01*
X105655669Y-105180833D01*
X105651279Y-105203871D01*
X105633876Y-105256157D01*
X105605268Y-105333390D01*
X105567265Y-105431268D01*
X105521674Y-105545491D01*
X105470303Y-105671758D01*
X105414962Y-105805767D01*
X105357458Y-105943218D01*
X105299601Y-106079808D01*
X105243198Y-106211237D01*
X105190058Y-106333205D01*
X105141990Y-106441409D01*
X105100801Y-106531549D01*
X105068301Y-106599323D01*
X105046297Y-106640430D01*
X105037436Y-106651226D01*
X105010360Y-106642819D01*
X104959697Y-106620272D01*
X104894183Y-106587613D01*
X104858159Y-106568520D01*
X104705168Y-106485800D01*
X104522912Y-106609075D01*
X104429875Y-106672228D01*
X104328015Y-106741727D01*
X104232562Y-106807165D01*
X104184750Y-106840117D01*
X104117505Y-106885273D01*
X104060564Y-106921057D01*
X104021354Y-106942938D01*
X104008619Y-106947563D01*
X103990083Y-106935085D01*
X103949059Y-106900252D01*
X103889525Y-106846678D01*
X103815458Y-106777983D01*
X103730835Y-106697781D01*
X103677315Y-106646286D01*
X103583681Y-106554286D01*
X103502759Y-106471999D01*
X103437823Y-106402945D01*
X103392142Y-106350644D01*
X103368989Y-106318616D01*
X103366768Y-106312116D01*
X103377076Y-106287394D01*
X103405561Y-106237405D01*
X103449063Y-106167212D01*
X103504423Y-106081875D01*
X103568480Y-105986456D01*
X103586697Y-105959854D01*
X103653073Y-105863167D01*
X103712622Y-105776117D01*
X103762016Y-105703595D01*
X103797925Y-105650493D01*
X103817019Y-105621703D01*
X103818864Y-105618726D01*
X103816105Y-105595782D01*
X103801462Y-105545336D01*
X103777487Y-105474041D01*
X103746734Y-105388547D01*
X103711756Y-105295507D01*
X103675107Y-105201574D01*
X103639339Y-105113399D01*
X103607006Y-105037634D01*
X103580662Y-104980931D01*
X103562858Y-104949943D01*
X103561593Y-104948457D01*
X103550706Y-104939601D01*
X103532318Y-104930843D01*
X103502394Y-104921277D01*
X103456897Y-104909996D01*
X103391791Y-104896093D01*
X103303039Y-104878663D01*
X103186607Y-104856798D01*
X103038458Y-104829591D01*
X103006382Y-104823741D01*
X102911314Y-104805374D01*
X102828435Y-104787405D01*
X102765070Y-104771569D01*
X102728542Y-104759600D01*
X102723644Y-104756810D01*
X102715573Y-104732072D01*
X102709013Y-104676790D01*
X102703967Y-104597389D01*
X102700441Y-104500296D01*
X102698439Y-104391938D01*
X102697964Y-104278740D01*
X102699023Y-104167128D01*
X102701618Y-104063529D01*
X102705754Y-103974368D01*
X102711437Y-103906072D01*
X102718669Y-103865066D01*
X102723029Y-103856674D01*
X102747302Y-103848208D01*
X102802574Y-103834435D01*
X102883338Y-103816550D01*
X102984088Y-103795748D01*
X103099317Y-103773223D01*
X103162098Y-103761418D01*
X103281213Y-103739151D01*
X103387435Y-103718979D01*
X103475573Y-103701915D01*
X103540434Y-103688969D01*
X103576826Y-103681155D01*
X103582816Y-103679422D01*
X103592939Y-103659890D01*
X103614338Y-103612843D01*
X103644161Y-103545003D01*
X103679555Y-103463091D01*
X103717668Y-103373828D01*
X103755647Y-103283935D01*
X103790640Y-103200135D01*
X103819794Y-103129147D01*
X103840257Y-103077694D01*
X103849177Y-103052497D01*
X103849343Y-103051396D01*
X103839231Y-103031519D01*
X103810883Y-102985777D01*
X103767277Y-102918717D01*
X103711394Y-102834884D01*
X103646213Y-102738826D01*
X103608321Y-102683650D01*
X103539275Y-102582481D01*
X103477950Y-102490630D01*
X103427337Y-102412744D01*
X103390429Y-102353469D01*
X103370218Y-102317451D01*
X103367299Y-102309377D01*
X103379847Y-102290584D01*
X103414537Y-102250457D01*
X103466937Y-102193493D01*
X103532616Y-102124185D01*
X103607144Y-102047031D01*
X103686087Y-101966525D01*
X103765017Y-101887163D01*
X103839500Y-101813440D01*
X103905106Y-101749852D01*
X103957404Y-101700894D01*
X103991961Y-101671061D01*
X104003522Y-101663942D01*
X104022346Y-101673953D01*
X104067369Y-101702078D01*
X104134213Y-101745454D01*
X104218501Y-101801218D01*
X104315856Y-101866506D01*
X104389293Y-101916246D01*
X104760333Y-102168551D01*
X105378905Y-101913555D01*
X105462725Y-101468931D01*
X105546546Y-101024307D01*
X106471994Y-101024307D01*
X106555814Y-101468931D01*
D16*
%TO.C,C1*%
X84290000Y-100736252D02*
X84290000Y-100213748D01*
X85710000Y-100736252D02*
X85710000Y-100213748D01*
%TO.C,C2*%
X97710000Y-103736252D02*
X97710000Y-103213748D01*
X96290000Y-103736252D02*
X96290000Y-103213748D01*
%TO.C,C4*%
X100290000Y-103736252D02*
X100290000Y-103213748D01*
X101710000Y-103736252D02*
X101710000Y-103213748D01*
%TO.C,C5*%
X116410000Y-103910000D02*
X116410000Y-101560000D01*
X116410000Y-97090000D02*
X116410000Y-99440000D01*
X110654437Y-97090000D02*
X116410000Y-97090000D01*
X110654437Y-103910000D02*
X116410000Y-103910000D01*
X109590000Y-102845563D02*
X109590000Y-101560000D01*
X109590000Y-98154437D02*
X109590000Y-99440000D01*
X109590000Y-98154437D02*
X110654437Y-97090000D01*
X109590000Y-102845563D02*
X110654437Y-103910000D01*
X108562500Y-98652500D02*
X109350000Y-98652500D01*
X108956250Y-98258750D02*
X108956250Y-99046250D01*
%TO.C,C6*%
X91990000Y-118203733D02*
X91990000Y-118546267D01*
X93010000Y-118203733D02*
X93010000Y-118546267D01*
%TO.C,C8*%
X95236252Y-109210000D02*
X94713748Y-109210000D01*
X95236252Y-107790000D02*
X94713748Y-107790000D01*
%TO.C,C9*%
X99710000Y-103736252D02*
X99710000Y-103213748D01*
X98290000Y-103736252D02*
X98290000Y-103213748D01*
%TO.C,C10*%
X98490000Y-111546267D02*
X98490000Y-111203733D01*
X99510000Y-111546267D02*
X99510000Y-111203733D01*
%TO.C,C11*%
X98490000Y-115328733D02*
X98490000Y-115671267D01*
X99510000Y-115328733D02*
X99510000Y-115671267D01*
%TO.C,C12*%
X92710000Y-103736252D02*
X92710000Y-103213748D01*
X91290000Y-103736252D02*
X91290000Y-103213748D01*
%TO.C,C13*%
X96336252Y-116990000D02*
X95813748Y-116990000D01*
X96336252Y-118410000D02*
X95813748Y-118410000D01*
%TO.C,C14*%
X94710000Y-122263748D02*
X94710000Y-122786252D01*
X93290000Y-122263748D02*
X93290000Y-122786252D01*
%TO.C,C15*%
X99040000Y-122263748D02*
X99040000Y-122786252D01*
X100460000Y-122263748D02*
X100460000Y-122786252D01*
%TO.C,C16*%
X89710000Y-122263748D02*
X89710000Y-122786252D01*
X88290000Y-122263748D02*
X88290000Y-122786252D01*
%TO.C,C17*%
X108956250Y-108258750D02*
X108956250Y-109046250D01*
X108562500Y-108652500D02*
X109350000Y-108652500D01*
X109590000Y-112845563D02*
X110654437Y-113910000D01*
X109590000Y-108154437D02*
X110654437Y-107090000D01*
X109590000Y-108154437D02*
X109590000Y-109440000D01*
X109590000Y-112845563D02*
X109590000Y-111560000D01*
X110654437Y-113910000D02*
X116410000Y-113910000D01*
X110654437Y-107090000D02*
X116410000Y-107090000D01*
X116410000Y-107090000D02*
X116410000Y-109440000D01*
X116410000Y-113910000D02*
X116410000Y-111560000D01*
%TO.C,C18*%
X95540000Y-122263748D02*
X95540000Y-122786252D01*
X96960000Y-122263748D02*
X96960000Y-122786252D01*
%TO.C,C19*%
X108956250Y-118258750D02*
X108956250Y-119046250D01*
X108562500Y-118652500D02*
X109350000Y-118652500D01*
X109590000Y-122845563D02*
X110654437Y-123910000D01*
X109590000Y-118154437D02*
X110654437Y-117090000D01*
X109590000Y-118154437D02*
X109590000Y-119440000D01*
X109590000Y-122845563D02*
X109590000Y-121560000D01*
X110654437Y-123910000D02*
X116410000Y-123910000D01*
X110654437Y-117090000D02*
X116410000Y-117090000D01*
X116410000Y-117090000D02*
X116410000Y-119440000D01*
X116410000Y-123910000D02*
X116410000Y-121560000D01*
%TO.C,C20*%
X102710000Y-122263748D02*
X102710000Y-122786252D01*
X101290000Y-122263748D02*
X101290000Y-122786252D01*
%TO.C,C21*%
X78861252Y-126790000D02*
X78338748Y-126790000D01*
X78861252Y-128210000D02*
X78338748Y-128210000D01*
%TO.C,FB1*%
X87690000Y-104614564D02*
X87690000Y-103410436D01*
X89510000Y-104614564D02*
X89510000Y-103410436D01*
%TO.C,FB2*%
X105910000Y-123589564D02*
X105910000Y-122385436D01*
X104090000Y-123589564D02*
X104090000Y-122385436D01*
%TO.C,L1*%
X100725000Y-116775000D02*
X101985500Y-116775000D01*
X100725000Y-110225000D02*
X100725000Y-116775000D01*
X101985500Y-110225000D02*
X100725000Y-110225000D01*
X107275000Y-116775000D02*
X106014500Y-116775000D01*
X107275000Y-110225000D02*
X107275000Y-116775000D01*
X106014500Y-110225000D02*
X107275000Y-110225000D01*
%TO.C,R3*%
X88510000Y-118203733D02*
X88510000Y-118546267D01*
X87490000Y-118203733D02*
X87490000Y-118546267D01*
%TO.C,R4*%
X89490000Y-118203733D02*
X89490000Y-118546267D01*
X90510000Y-118203733D02*
X90510000Y-118546267D01*
%TO.C,U1*%
X96676400Y-112292259D02*
X96676400Y-111823600D01*
X96207741Y-115176400D02*
X96676400Y-115176400D01*
X93323600Y-114707741D02*
X93323600Y-115176400D01*
X93792259Y-111823600D02*
X93323600Y-111823600D01*
X96676400Y-111823600D02*
X96207741Y-111823600D01*
X96676400Y-115176400D02*
X96676400Y-114707741D01*
X93323600Y-115176400D02*
X93792259Y-115176400D01*
X93323600Y-111823600D02*
X93323600Y-112292259D01*
%TO.C,C22*%
X89763748Y-98790000D02*
X90286252Y-98790000D01*
X89763748Y-100210000D02*
X90286252Y-100210000D01*
%TO.C,C23*%
X110613748Y-128210000D02*
X111136252Y-128210000D01*
X110613748Y-126790000D02*
X111136252Y-126790000D01*
%TO.C,C3*%
D18*
X84433333Y-112357142D02*
X84385714Y-112404761D01*
X84242857Y-112452380D01*
X84147619Y-112452380D01*
X84004761Y-112404761D01*
X83909523Y-112309523D01*
X83861904Y-112214285D01*
X83814285Y-112023809D01*
X83814285Y-111880952D01*
X83861904Y-111690476D01*
X83909523Y-111595238D01*
X84004761Y-111500000D01*
X84147619Y-111452380D01*
X84242857Y-111452380D01*
X84385714Y-111500000D01*
X84433333Y-111547619D01*
X84766666Y-111452380D02*
X85385714Y-111452380D01*
X85052380Y-111833333D01*
X85195238Y-111833333D01*
X85290476Y-111880952D01*
X85338095Y-111928571D01*
X85385714Y-112023809D01*
X85385714Y-112261904D01*
X85338095Y-112357142D01*
X85290476Y-112404761D01*
X85195238Y-112452380D01*
X84909523Y-112452380D01*
X84814285Y-112404761D01*
X84766666Y-112357142D01*
%TO.C,R1*%
X84433333Y-113952380D02*
X84100000Y-113476190D01*
X83861904Y-113952380D02*
X83861904Y-112952380D01*
X84242857Y-112952380D01*
X84338095Y-113000000D01*
X84385714Y-113047619D01*
X84433333Y-113142857D01*
X84433333Y-113285714D01*
X84385714Y-113380952D01*
X84338095Y-113428571D01*
X84242857Y-113476190D01*
X83861904Y-113476190D01*
X85385714Y-113952380D02*
X84814285Y-113952380D01*
X85100000Y-113952380D02*
X85100000Y-112952380D01*
X85004761Y-113095238D01*
X84909523Y-113190476D01*
X84814285Y-113238095D01*
%TO.C,R2*%
X85233333Y-116152380D02*
X84900000Y-115676190D01*
X84661904Y-116152380D02*
X84661904Y-115152380D01*
X85042857Y-115152380D01*
X85138095Y-115200000D01*
X85185714Y-115247619D01*
X85233333Y-115342857D01*
X85233333Y-115485714D01*
X85185714Y-115580952D01*
X85138095Y-115628571D01*
X85042857Y-115676190D01*
X84661904Y-115676190D01*
X85614285Y-115247619D02*
X85661904Y-115200000D01*
X85757142Y-115152380D01*
X85995238Y-115152380D01*
X86090476Y-115200000D01*
X86138095Y-115247619D01*
X86185714Y-115342857D01*
X86185714Y-115438095D01*
X86138095Y-115580952D01*
X85566666Y-116152380D01*
X86185714Y-116152380D01*
%TO.C,C5*%
X112833333Y-96507142D02*
X112785714Y-96554761D01*
X112642857Y-96602380D01*
X112547619Y-96602380D01*
X112404761Y-96554761D01*
X112309523Y-96459523D01*
X112261904Y-96364285D01*
X112214285Y-96173809D01*
X112214285Y-96030952D01*
X112261904Y-95840476D01*
X112309523Y-95745238D01*
X112404761Y-95650000D01*
X112547619Y-95602380D01*
X112642857Y-95602380D01*
X112785714Y-95650000D01*
X112833333Y-95697619D01*
X113738095Y-95602380D02*
X113261904Y-95602380D01*
X113214285Y-96078571D01*
X113261904Y-96030952D01*
X113357142Y-95983333D01*
X113595238Y-95983333D01*
X113690476Y-96030952D01*
X113738095Y-96078571D01*
X113785714Y-96173809D01*
X113785714Y-96411904D01*
X113738095Y-96507142D01*
X113690476Y-96554761D01*
X113595238Y-96602380D01*
X113357142Y-96602380D01*
X113261904Y-96554761D01*
X113214285Y-96507142D01*
%TO.C,C6*%
X92133333Y-116357142D02*
X92085714Y-116404761D01*
X91942857Y-116452380D01*
X91847619Y-116452380D01*
X91704761Y-116404761D01*
X91609523Y-116309523D01*
X91561904Y-116214285D01*
X91514285Y-116023809D01*
X91514285Y-115880952D01*
X91561904Y-115690476D01*
X91609523Y-115595238D01*
X91704761Y-115500000D01*
X91847619Y-115452380D01*
X91942857Y-115452380D01*
X92085714Y-115500000D01*
X92133333Y-115547619D01*
X92990476Y-115452380D02*
X92800000Y-115452380D01*
X92704761Y-115500000D01*
X92657142Y-115547619D01*
X92561904Y-115690476D01*
X92514285Y-115880952D01*
X92514285Y-116261904D01*
X92561904Y-116357142D01*
X92609523Y-116404761D01*
X92704761Y-116452380D01*
X92895238Y-116452380D01*
X92990476Y-116404761D01*
X93038095Y-116357142D01*
X93085714Y-116261904D01*
X93085714Y-116023809D01*
X93038095Y-115928571D01*
X92990476Y-115880952D01*
X92895238Y-115833333D01*
X92704761Y-115833333D01*
X92609523Y-115880952D01*
X92561904Y-115928571D01*
X92514285Y-116023809D01*
%TO.C,C17*%
X112357142Y-106507142D02*
X112309523Y-106554761D01*
X112166666Y-106602380D01*
X112071428Y-106602380D01*
X111928571Y-106554761D01*
X111833333Y-106459523D01*
X111785714Y-106364285D01*
X111738095Y-106173809D01*
X111738095Y-106030952D01*
X111785714Y-105840476D01*
X111833333Y-105745238D01*
X111928571Y-105650000D01*
X112071428Y-105602380D01*
X112166666Y-105602380D01*
X112309523Y-105650000D01*
X112357142Y-105697619D01*
X113309523Y-106602380D02*
X112738095Y-106602380D01*
X113023809Y-106602380D02*
X113023809Y-105602380D01*
X112928571Y-105745238D01*
X112833333Y-105840476D01*
X112738095Y-105888095D01*
X113642857Y-105602380D02*
X114309523Y-105602380D01*
X113880952Y-106602380D01*
%TO.C,C19*%
X112357142Y-116507142D02*
X112309523Y-116554761D01*
X112166666Y-116602380D01*
X112071428Y-116602380D01*
X111928571Y-116554761D01*
X111833333Y-116459523D01*
X111785714Y-116364285D01*
X111738095Y-116173809D01*
X111738095Y-116030952D01*
X111785714Y-115840476D01*
X111833333Y-115745238D01*
X111928571Y-115650000D01*
X112071428Y-115602380D01*
X112166666Y-115602380D01*
X112309523Y-115650000D01*
X112357142Y-115697619D01*
X113309523Y-116602380D02*
X112738095Y-116602380D01*
X113023809Y-116602380D02*
X113023809Y-115602380D01*
X112928571Y-115745238D01*
X112833333Y-115840476D01*
X112738095Y-115888095D01*
X113785714Y-116602380D02*
X113976190Y-116602380D01*
X114071428Y-116554761D01*
X114119047Y-116507142D01*
X114214285Y-116364285D01*
X114261904Y-116173809D01*
X114261904Y-115792857D01*
X114214285Y-115697619D01*
X114166666Y-115650000D01*
X114071428Y-115602380D01*
X113880952Y-115602380D01*
X113785714Y-115650000D01*
X113738095Y-115697619D01*
X113690476Y-115792857D01*
X113690476Y-116030952D01*
X113738095Y-116126190D01*
X113785714Y-116173809D01*
X113880952Y-116221428D01*
X114071428Y-116221428D01*
X114166666Y-116173809D01*
X114214285Y-116126190D01*
X114261904Y-116030952D01*
%TO.C,FB1*%
D19*
X85066666Y-104028571D02*
X84733333Y-104028571D01*
X84733333Y-104552380D02*
X84733333Y-103552380D01*
X85209523Y-103552380D01*
X85923809Y-104028571D02*
X86066666Y-104076190D01*
X86114285Y-104123809D01*
X86161904Y-104219047D01*
X86161904Y-104361904D01*
X86114285Y-104457142D01*
X86066666Y-104504761D01*
X85971428Y-104552380D01*
X85590476Y-104552380D01*
X85590476Y-103552380D01*
X85923809Y-103552380D01*
X86019047Y-103600000D01*
X86066666Y-103647619D01*
X86114285Y-103742857D01*
X86114285Y-103838095D01*
X86066666Y-103933333D01*
X86019047Y-103980952D01*
X85923809Y-104028571D01*
X85590476Y-104028571D01*
X87114285Y-104552380D02*
X86542857Y-104552380D01*
X86828571Y-104552380D02*
X86828571Y-103552380D01*
X86733333Y-103695238D01*
X86638095Y-103790476D01*
X86542857Y-103838095D01*
%TO.C,FB2*%
X107066666Y-124228571D02*
X106733333Y-124228571D01*
X106733333Y-124752380D02*
X106733333Y-123752380D01*
X107209523Y-123752380D01*
X107923809Y-124228571D02*
X108066666Y-124276190D01*
X108114285Y-124323809D01*
X108161904Y-124419047D01*
X108161904Y-124561904D01*
X108114285Y-124657142D01*
X108066666Y-124704761D01*
X107971428Y-124752380D01*
X107590476Y-124752380D01*
X107590476Y-123752380D01*
X107923809Y-123752380D01*
X108019047Y-123800000D01*
X108066666Y-123847619D01*
X108114285Y-123942857D01*
X108114285Y-124038095D01*
X108066666Y-124133333D01*
X108019047Y-124180952D01*
X107923809Y-124228571D01*
X107590476Y-124228571D01*
X108542857Y-123847619D02*
X108590476Y-123800000D01*
X108685714Y-123752380D01*
X108923809Y-123752380D01*
X109019047Y-123800000D01*
X109066666Y-123847619D01*
X109114285Y-123942857D01*
X109114285Y-124038095D01*
X109066666Y-124180952D01*
X108495238Y-124752380D01*
X109114285Y-124752380D01*
%TO.C,L1*%
D11*
X100716666Y-107669047D02*
X99907142Y-107669047D01*
X99907142Y-105969047D01*
X102173809Y-107669047D02*
X101202380Y-107669047D01*
X101688095Y-107669047D02*
X101688095Y-105969047D01*
X101526190Y-106211904D01*
X101364285Y-106373809D01*
X101202380Y-106454761D01*
%TO.C,R3*%
D18*
X85752380Y-118166666D02*
X85276190Y-118500000D01*
X85752380Y-118738095D02*
X84752380Y-118738095D01*
X84752380Y-118357142D01*
X84800000Y-118261904D01*
X84847619Y-118214285D01*
X84942857Y-118166666D01*
X85085714Y-118166666D01*
X85180952Y-118214285D01*
X85228571Y-118261904D01*
X85276190Y-118357142D01*
X85276190Y-118738095D01*
X84752380Y-117833333D02*
X84752380Y-117214285D01*
X85133333Y-117547619D01*
X85133333Y-117404761D01*
X85180952Y-117309523D01*
X85228571Y-117261904D01*
X85323809Y-117214285D01*
X85561904Y-117214285D01*
X85657142Y-117261904D01*
X85704761Y-117309523D01*
X85752380Y-117404761D01*
X85752380Y-117690476D01*
X85704761Y-117785714D01*
X85657142Y-117833333D01*
%TO.C,R4*%
X90833333Y-121352380D02*
X90500000Y-120876190D01*
X90261904Y-121352380D02*
X90261904Y-120352380D01*
X90642857Y-120352380D01*
X90738095Y-120400000D01*
X90785714Y-120447619D01*
X90833333Y-120542857D01*
X90833333Y-120685714D01*
X90785714Y-120780952D01*
X90738095Y-120828571D01*
X90642857Y-120876190D01*
X90261904Y-120876190D01*
X91690476Y-120685714D02*
X91690476Y-121352380D01*
X91452380Y-120304761D02*
X91214285Y-121019047D01*
X91833333Y-121019047D01*
%TO.C,U1*%
D12*
X90285714Y-112242857D02*
X90285714Y-113214285D01*
X90342857Y-113328571D01*
X90400000Y-113385714D01*
X90514285Y-113442857D01*
X90742857Y-113442857D01*
X90857142Y-113385714D01*
X90914285Y-113328571D01*
X90971428Y-113214285D01*
X90971428Y-112242857D01*
X92171428Y-113442857D02*
X91485714Y-113442857D01*
X91828571Y-113442857D02*
X91828571Y-112242857D01*
X91714285Y-112414285D01*
X91600000Y-112528571D01*
X91485714Y-112585714D01*
%TD*%
M02*
