%TF.GenerationSoftware,KiCad,Pcbnew,(5.1.6)-1*%
%TF.CreationDate,2022-04-15T15:17:14-04:00*%
%TF.ProjectId,MP28167 - Breakout,4d503238-3136-4372-902d-20427265616b,V1.0*%
%TF.SameCoordinates,Original*%
%TF.FileFunction,Legend,Bot*%
%TF.FilePolarity,Positive*%
%FSLAX46Y46*%
G04 Gerber Fmt 4.6, Leading zero omitted, Abs format (unit mm)*
G04 Created by KiCad (PCBNEW (5.1.6)-1) date 2022-04-15 15:17:14*
%MOMM*%
%LPD*%
G01*
G04 APERTURE LIST*
%ADD10C,0.350000*%
%ADD11C,0.250000*%
%ADD12C,0.300000*%
%ADD13C,0.220000*%
%ADD14C,0.010000*%
%ADD15C,0.120000*%
G04 APERTURE END LIST*
D10*
X112769047Y-98930952D02*
X112688095Y-98769047D01*
X112607142Y-98688095D01*
X112445238Y-98607142D01*
X111959523Y-98607142D01*
X111797619Y-98688095D01*
X111716666Y-98769047D01*
X111635714Y-98930952D01*
X111635714Y-99173809D01*
X111716666Y-99335714D01*
X111797619Y-99416666D01*
X111959523Y-99497619D01*
X112445238Y-99497619D01*
X112607142Y-99416666D01*
X112688095Y-99335714D01*
X112769047Y-99173809D01*
X112769047Y-98930952D01*
X112688095Y-100145238D02*
X112769047Y-100307142D01*
X112769047Y-100630952D01*
X112688095Y-100792857D01*
X112526190Y-100873809D01*
X112445238Y-100873809D01*
X112283333Y-100792857D01*
X112202380Y-100630952D01*
X112202380Y-100388095D01*
X112121428Y-100226190D01*
X111959523Y-100145238D01*
X111878571Y-100145238D01*
X111716666Y-100226190D01*
X111635714Y-100388095D01*
X111635714Y-100630952D01*
X111716666Y-100792857D01*
X112769047Y-101602380D02*
X111069047Y-101602380D01*
X112769047Y-102330952D02*
X111878571Y-102330952D01*
X111716666Y-102250000D01*
X111635714Y-102088095D01*
X111635714Y-101845238D01*
X111716666Y-101683333D01*
X111797619Y-101602380D01*
X111635714Y-102978571D02*
X112769047Y-103302380D01*
X111959523Y-103626190D01*
X112769047Y-103950000D01*
X111635714Y-104273809D01*
D11*
X112871428Y-135042857D02*
X112871428Y-133842857D01*
X112471428Y-134700000D01*
X112071428Y-133842857D01*
X112071428Y-135042857D01*
X111614285Y-133842857D02*
X110871428Y-133842857D01*
X111271428Y-134300000D01*
X111100000Y-134300000D01*
X110985714Y-134357142D01*
X110928571Y-134414285D01*
X110871428Y-134528571D01*
X110871428Y-134814285D01*
X110928571Y-134928571D01*
X110985714Y-134985714D01*
X111100000Y-135042857D01*
X111442857Y-135042857D01*
X111557142Y-134985714D01*
X111614285Y-134928571D01*
X76971428Y-135042857D02*
X76971428Y-133842857D01*
X76571428Y-134700000D01*
X76171428Y-133842857D01*
X76171428Y-135042857D01*
X75714285Y-133842857D02*
X74971428Y-133842857D01*
X75371428Y-134300000D01*
X75200000Y-134300000D01*
X75085714Y-134357142D01*
X75028571Y-134414285D01*
X74971428Y-134528571D01*
X74971428Y-134814285D01*
X75028571Y-134928571D01*
X75085714Y-134985714D01*
X75200000Y-135042857D01*
X75542857Y-135042857D01*
X75657142Y-134985714D01*
X75714285Y-134928571D01*
X112971428Y-92142857D02*
X112971428Y-90942857D01*
X112571428Y-91800000D01*
X112171428Y-90942857D01*
X112171428Y-92142857D01*
X111714285Y-90942857D02*
X110971428Y-90942857D01*
X111371428Y-91400000D01*
X111200000Y-91400000D01*
X111085714Y-91457142D01*
X111028571Y-91514285D01*
X110971428Y-91628571D01*
X110971428Y-91914285D01*
X111028571Y-92028571D01*
X111085714Y-92085714D01*
X111200000Y-92142857D01*
X111542857Y-92142857D01*
X111657142Y-92085714D01*
X111714285Y-92028571D01*
X76971428Y-92242857D02*
X76971428Y-91042857D01*
X76571428Y-91900000D01*
X76171428Y-91042857D01*
X76171428Y-92242857D01*
X75714285Y-91042857D02*
X74971428Y-91042857D01*
X75371428Y-91500000D01*
X75200000Y-91500000D01*
X75085714Y-91557142D01*
X75028571Y-91614285D01*
X74971428Y-91728571D01*
X74971428Y-92014285D01*
X75028571Y-92128571D01*
X75085714Y-92185714D01*
X75200000Y-92242857D01*
X75542857Y-92242857D01*
X75657142Y-92185714D01*
X75714285Y-92128571D01*
D12*
X117592857Y-121600000D02*
X117664285Y-121814285D01*
X117735714Y-121885714D01*
X117878571Y-121957142D01*
X118092857Y-121957142D01*
X118235714Y-121885714D01*
X118307142Y-121814285D01*
X118378571Y-121671428D01*
X118378571Y-121100000D01*
X116878571Y-121100000D01*
X116878571Y-121600000D01*
X116950000Y-121742857D01*
X117021428Y-121814285D01*
X117164285Y-121885714D01*
X117307142Y-121885714D01*
X117450000Y-121814285D01*
X117521428Y-121742857D01*
X117592857Y-121600000D01*
X117592857Y-121100000D01*
X117592857Y-123100000D02*
X117664285Y-123314285D01*
X117735714Y-123385714D01*
X117878571Y-123457142D01*
X118092857Y-123457142D01*
X118235714Y-123385714D01*
X118307142Y-123314285D01*
X118378571Y-123171428D01*
X118378571Y-122600000D01*
X116878571Y-122600000D01*
X116878571Y-123100000D01*
X116950000Y-123242857D01*
X117021428Y-123314285D01*
X117164285Y-123385714D01*
X117307142Y-123385714D01*
X117450000Y-123314285D01*
X117521428Y-123242857D01*
X117592857Y-123100000D01*
X117592857Y-122600000D01*
X117807142Y-124100000D02*
X117807142Y-125242857D01*
X116878571Y-126242857D02*
X116878571Y-126385714D01*
X116950000Y-126528571D01*
X117021428Y-126600000D01*
X117164285Y-126671428D01*
X117450000Y-126742857D01*
X117807142Y-126742857D01*
X118092857Y-126671428D01*
X118235714Y-126600000D01*
X118307142Y-126528571D01*
X118378571Y-126385714D01*
X118378571Y-126242857D01*
X118307142Y-126100000D01*
X118235714Y-126028571D01*
X118092857Y-125957142D01*
X117807142Y-125885714D01*
X117450000Y-125885714D01*
X117164285Y-125957142D01*
X117021428Y-126028571D01*
X116950000Y-126100000D01*
X116878571Y-126242857D01*
X118378571Y-128171428D02*
X118378571Y-127314285D01*
X118378571Y-127742857D02*
X116878571Y-127742857D01*
X117092857Y-127600000D01*
X117235714Y-127457142D01*
X117307142Y-127314285D01*
D10*
X114723809Y-112961904D02*
X116323809Y-113495238D01*
X114723809Y-114028571D01*
X116323809Y-115400000D02*
X116323809Y-114485714D01*
X116323809Y-114942857D02*
X114723809Y-114942857D01*
X114952380Y-114790476D01*
X115104761Y-114638095D01*
X115180952Y-114485714D01*
X116171428Y-116085714D02*
X116247619Y-116161904D01*
X116323809Y-116085714D01*
X116247619Y-116009523D01*
X116171428Y-116085714D01*
X116323809Y-116085714D01*
X114723809Y-117152380D02*
X114723809Y-117304761D01*
X114800000Y-117457142D01*
X114876190Y-117533333D01*
X115028571Y-117609523D01*
X115333333Y-117685714D01*
X115714285Y-117685714D01*
X116019047Y-117609523D01*
X116171428Y-117533333D01*
X116247619Y-117457142D01*
X116323809Y-117304761D01*
X116323809Y-117152380D01*
X116247619Y-117000000D01*
X116171428Y-116923809D01*
X116019047Y-116847619D01*
X115714285Y-116771428D01*
X115333333Y-116771428D01*
X115028571Y-116847619D01*
X114876190Y-116923809D01*
X114800000Y-117000000D01*
X114723809Y-117152380D01*
D13*
X109767380Y-110571428D02*
X109715000Y-110623809D01*
X109662619Y-110728571D01*
X109662619Y-110990476D01*
X109715000Y-111095238D01*
X109767380Y-111147619D01*
X109872142Y-111200000D01*
X109976904Y-111200000D01*
X110134047Y-111147619D01*
X110762619Y-110519047D01*
X110762619Y-111200000D01*
X109767380Y-111619047D02*
X109715000Y-111671428D01*
X109662619Y-111776190D01*
X109662619Y-112038095D01*
X109715000Y-112142857D01*
X109767380Y-112195238D01*
X109872142Y-112247619D01*
X109976904Y-112247619D01*
X110134047Y-112195238D01*
X110762619Y-111566666D01*
X110762619Y-112247619D01*
X109662619Y-112561904D02*
X110762619Y-112928571D01*
X109662619Y-113295238D01*
X110762619Y-114500000D02*
X109662619Y-114500000D01*
X110762619Y-115023809D02*
X109662619Y-115023809D01*
X110762619Y-115652380D01*
X109662619Y-115652380D01*
X110762619Y-117852380D02*
X109662619Y-117852380D01*
X110448333Y-118219047D01*
X109662619Y-118585714D01*
X110762619Y-118585714D01*
X110448333Y-119057142D02*
X110448333Y-119580952D01*
X110762619Y-118952380D02*
X109662619Y-119319047D01*
X110762619Y-119685714D01*
X109662619Y-119947619D02*
X110762619Y-120680952D01*
X109662619Y-120680952D02*
X110762619Y-119947619D01*
X111637380Y-109838095D02*
X111585000Y-109890476D01*
X111532619Y-109995238D01*
X111532619Y-110257142D01*
X111585000Y-110361904D01*
X111637380Y-110414285D01*
X111742142Y-110466666D01*
X111846904Y-110466666D01*
X112004047Y-110414285D01*
X112632619Y-109785714D01*
X112632619Y-110466666D01*
X111532619Y-111147619D02*
X111532619Y-111252380D01*
X111585000Y-111357142D01*
X111637380Y-111409523D01*
X111742142Y-111461904D01*
X111951666Y-111514285D01*
X112213571Y-111514285D01*
X112423095Y-111461904D01*
X112527857Y-111409523D01*
X112580238Y-111357142D01*
X112632619Y-111252380D01*
X112632619Y-111147619D01*
X112580238Y-111042857D01*
X112527857Y-110990476D01*
X112423095Y-110938095D01*
X112213571Y-110885714D01*
X111951666Y-110885714D01*
X111742142Y-110938095D01*
X111637380Y-110990476D01*
X111585000Y-111042857D01*
X111532619Y-111147619D01*
X111532619Y-111828571D02*
X112632619Y-112195238D01*
X111532619Y-112561904D01*
X111532619Y-113976190D02*
X111532619Y-114185714D01*
X111585000Y-114290476D01*
X111689761Y-114395238D01*
X111899285Y-114447619D01*
X112265952Y-114447619D01*
X112475476Y-114395238D01*
X112580238Y-114290476D01*
X112632619Y-114185714D01*
X112632619Y-113976190D01*
X112580238Y-113871428D01*
X112475476Y-113766666D01*
X112265952Y-113714285D01*
X111899285Y-113714285D01*
X111689761Y-113766666D01*
X111585000Y-113871428D01*
X111532619Y-113976190D01*
X111532619Y-114919047D02*
X112423095Y-114919047D01*
X112527857Y-114971428D01*
X112580238Y-115023809D01*
X112632619Y-115128571D01*
X112632619Y-115338095D01*
X112580238Y-115442857D01*
X112527857Y-115495238D01*
X112423095Y-115547619D01*
X111532619Y-115547619D01*
X111532619Y-115914285D02*
X111532619Y-116542857D01*
X112632619Y-116228571D02*
X111532619Y-116228571D01*
X112632619Y-118585714D02*
X111532619Y-118585714D01*
X112318333Y-118952380D01*
X111532619Y-119319047D01*
X112632619Y-119319047D01*
X112318333Y-119790476D02*
X112318333Y-120314285D01*
X112632619Y-119685714D02*
X111532619Y-120052380D01*
X112632619Y-120419047D01*
X111532619Y-120680952D02*
X112632619Y-121414285D01*
X111532619Y-121414285D02*
X112632619Y-120680952D01*
D11*
X80300000Y-110371428D02*
X80300000Y-110942857D01*
X80642857Y-110257142D02*
X79442857Y-110657142D01*
X80642857Y-111057142D01*
X80642857Y-112028571D02*
X80642857Y-111457142D01*
X79442857Y-111457142D01*
X79442857Y-112257142D02*
X79442857Y-112942857D01*
X80642857Y-112600000D02*
X79442857Y-112600000D01*
X71485714Y-108814285D02*
X71085714Y-108814285D01*
X70914285Y-109442857D02*
X71485714Y-109442857D01*
X71485714Y-108242857D01*
X70914285Y-108242857D01*
X70400000Y-109442857D02*
X70400000Y-108242857D01*
X69714285Y-109442857D01*
X69714285Y-108242857D01*
X71485714Y-112642857D02*
X71542857Y-112814285D01*
X71542857Y-113100000D01*
X71485714Y-113214285D01*
X71428571Y-113271428D01*
X71314285Y-113328571D01*
X71200000Y-113328571D01*
X71085714Y-113271428D01*
X71028571Y-113214285D01*
X70971428Y-113100000D01*
X70914285Y-112871428D01*
X70857142Y-112757142D01*
X70800000Y-112700000D01*
X70685714Y-112642857D01*
X70571428Y-112642857D01*
X70457142Y-112700000D01*
X70400000Y-112757142D01*
X70342857Y-112871428D01*
X70342857Y-113157142D01*
X70400000Y-113328571D01*
X71542857Y-113842857D02*
X70342857Y-113842857D01*
X70342857Y-114128571D01*
X70400000Y-114300000D01*
X70514285Y-114414285D01*
X70628571Y-114471428D01*
X70857142Y-114528571D01*
X71028571Y-114528571D01*
X71257142Y-114471428D01*
X71371428Y-114414285D01*
X71485714Y-114300000D01*
X71542857Y-114128571D01*
X71542857Y-113842857D01*
X71200000Y-114985714D02*
X71200000Y-115557142D01*
X71542857Y-114871428D02*
X70342857Y-115271428D01*
X71542857Y-115671428D01*
X73885714Y-110071428D02*
X73942857Y-110242857D01*
X73942857Y-110528571D01*
X73885714Y-110642857D01*
X73828571Y-110700000D01*
X73714285Y-110757142D01*
X73600000Y-110757142D01*
X73485714Y-110700000D01*
X73428571Y-110642857D01*
X73371428Y-110528571D01*
X73314285Y-110300000D01*
X73257142Y-110185714D01*
X73200000Y-110128571D01*
X73085714Y-110071428D01*
X72971428Y-110071428D01*
X72857142Y-110128571D01*
X72800000Y-110185714D01*
X72742857Y-110300000D01*
X72742857Y-110585714D01*
X72800000Y-110757142D01*
X73828571Y-111957142D02*
X73885714Y-111900000D01*
X73942857Y-111728571D01*
X73942857Y-111614285D01*
X73885714Y-111442857D01*
X73771428Y-111328571D01*
X73657142Y-111271428D01*
X73428571Y-111214285D01*
X73257142Y-111214285D01*
X73028571Y-111271428D01*
X72914285Y-111328571D01*
X72800000Y-111442857D01*
X72742857Y-111614285D01*
X72742857Y-111728571D01*
X72800000Y-111900000D01*
X72857142Y-111957142D01*
X73942857Y-113042857D02*
X73942857Y-112471428D01*
X72742857Y-112471428D01*
X79642857Y-115685714D02*
X80842857Y-116085714D01*
X79642857Y-116485714D01*
X79642857Y-117114285D02*
X79642857Y-117342857D01*
X79700000Y-117457142D01*
X79814285Y-117571428D01*
X80042857Y-117628571D01*
X80442857Y-117628571D01*
X80671428Y-117571428D01*
X80785714Y-117457142D01*
X80842857Y-117342857D01*
X80842857Y-117114285D01*
X80785714Y-117000000D01*
X80671428Y-116885714D01*
X80442857Y-116828571D01*
X80042857Y-116828571D01*
X79814285Y-116885714D01*
X79700000Y-117000000D01*
X79642857Y-117114285D01*
X79642857Y-118142857D02*
X80614285Y-118142857D01*
X80728571Y-118200000D01*
X80785714Y-118257142D01*
X80842857Y-118371428D01*
X80842857Y-118600000D01*
X80785714Y-118714285D01*
X80728571Y-118771428D01*
X80614285Y-118828571D01*
X79642857Y-118828571D01*
X79642857Y-119228571D02*
X79642857Y-119914285D01*
X80842857Y-119571428D02*
X79642857Y-119571428D01*
X79442857Y-103685714D02*
X80642857Y-104085714D01*
X79442857Y-104485714D01*
X80642857Y-104885714D02*
X79442857Y-104885714D01*
X80642857Y-105457142D02*
X79442857Y-105457142D01*
X80642857Y-106142857D01*
X79442857Y-106142857D01*
X70400000Y-104085714D02*
X70342857Y-103971428D01*
X70342857Y-103800000D01*
X70400000Y-103628571D01*
X70514285Y-103514285D01*
X70628571Y-103457142D01*
X70857142Y-103400000D01*
X71028571Y-103400000D01*
X71257142Y-103457142D01*
X71371428Y-103514285D01*
X71485714Y-103628571D01*
X71542857Y-103800000D01*
X71542857Y-103914285D01*
X71485714Y-104085714D01*
X71428571Y-104142857D01*
X71028571Y-104142857D01*
X71028571Y-103914285D01*
X71542857Y-104657142D02*
X70342857Y-104657142D01*
X71542857Y-105342857D01*
X70342857Y-105342857D01*
X71542857Y-105914285D02*
X70342857Y-105914285D01*
X70342857Y-106200000D01*
X70400000Y-106371428D01*
X70514285Y-106485714D01*
X70628571Y-106542857D01*
X70857142Y-106600000D01*
X71028571Y-106600000D01*
X71257142Y-106542857D01*
X71371428Y-106485714D01*
X71485714Y-106371428D01*
X71542857Y-106200000D01*
X71542857Y-105914285D01*
X84414285Y-108400000D02*
X84528571Y-108342857D01*
X84700000Y-108342857D01*
X84871428Y-108400000D01*
X84985714Y-108514285D01*
X85042857Y-108628571D01*
X85100000Y-108857142D01*
X85100000Y-109028571D01*
X85042857Y-109257142D01*
X84985714Y-109371428D01*
X84871428Y-109485714D01*
X84700000Y-109542857D01*
X84585714Y-109542857D01*
X84414285Y-109485714D01*
X84357142Y-109428571D01*
X84357142Y-109028571D01*
X84585714Y-109028571D01*
X83842857Y-109542857D02*
X83842857Y-108342857D01*
X83157142Y-109542857D01*
X83157142Y-108342857D01*
X82585714Y-109542857D02*
X82585714Y-108342857D01*
X82300000Y-108342857D01*
X82128571Y-108400000D01*
X82014285Y-108514285D01*
X81957142Y-108628571D01*
X81900000Y-108857142D01*
X81900000Y-109028571D01*
X81957142Y-109257142D01*
X82014285Y-109371428D01*
X82128571Y-109485714D01*
X82300000Y-109542857D01*
X82585714Y-109542857D01*
X72800000Y-116885714D02*
X72742857Y-116771428D01*
X72742857Y-116600000D01*
X72800000Y-116428571D01*
X72914285Y-116314285D01*
X73028571Y-116257142D01*
X73257142Y-116200000D01*
X73428571Y-116200000D01*
X73657142Y-116257142D01*
X73771428Y-116314285D01*
X73885714Y-116428571D01*
X73942857Y-116600000D01*
X73942857Y-116714285D01*
X73885714Y-116885714D01*
X73828571Y-116942857D01*
X73428571Y-116942857D01*
X73428571Y-116714285D01*
X73942857Y-117457142D02*
X72742857Y-117457142D01*
X73942857Y-118142857D01*
X72742857Y-118142857D01*
X73942857Y-118714285D02*
X72742857Y-118714285D01*
X72742857Y-119000000D01*
X72800000Y-119171428D01*
X72914285Y-119285714D01*
X73028571Y-119342857D01*
X73257142Y-119400000D01*
X73428571Y-119400000D01*
X73657142Y-119342857D01*
X73771428Y-119285714D01*
X73885714Y-119171428D01*
X73942857Y-119000000D01*
X73942857Y-118714285D01*
X89942857Y-90985714D02*
X91142857Y-91385714D01*
X89942857Y-91785714D01*
X91142857Y-92185714D02*
X89942857Y-92185714D01*
X91142857Y-92757142D02*
X89942857Y-92757142D01*
X91142857Y-93442857D01*
X89942857Y-93442857D01*
X87342857Y-90985714D02*
X88542857Y-91385714D01*
X87342857Y-91785714D01*
X88542857Y-92185714D02*
X87342857Y-92185714D01*
X88542857Y-92757142D02*
X87342857Y-92757142D01*
X88542857Y-93442857D01*
X87342857Y-93442857D01*
X106000000Y-90871428D02*
X106000000Y-91442857D01*
X106342857Y-90757142D02*
X105142857Y-91157142D01*
X106342857Y-91557142D01*
X106342857Y-92528571D02*
X106342857Y-91957142D01*
X105142857Y-91957142D01*
X105142857Y-92757142D02*
X105142857Y-93442857D01*
X106342857Y-93100000D02*
X105142857Y-93100000D01*
X103114285Y-91414285D02*
X103114285Y-91814285D01*
X103742857Y-91985714D02*
X103742857Y-91414285D01*
X102542857Y-91414285D01*
X102542857Y-91985714D01*
X103742857Y-92500000D02*
X102542857Y-92500000D01*
X103742857Y-93185714D01*
X102542857Y-93185714D01*
X100100000Y-91385714D02*
X100042857Y-91271428D01*
X100042857Y-91100000D01*
X100100000Y-90928571D01*
X100214285Y-90814285D01*
X100328571Y-90757142D01*
X100557142Y-90700000D01*
X100728571Y-90700000D01*
X100957142Y-90757142D01*
X101071428Y-90814285D01*
X101185714Y-90928571D01*
X101242857Y-91100000D01*
X101242857Y-91214285D01*
X101185714Y-91385714D01*
X101128571Y-91442857D01*
X100728571Y-91442857D01*
X100728571Y-91214285D01*
X101242857Y-91957142D02*
X100042857Y-91957142D01*
X101242857Y-92642857D01*
X100042857Y-92642857D01*
X101242857Y-93214285D02*
X100042857Y-93214285D01*
X100042857Y-93500000D01*
X100100000Y-93671428D01*
X100214285Y-93785714D01*
X100328571Y-93842857D01*
X100557142Y-93900000D01*
X100728571Y-93900000D01*
X100957142Y-93842857D01*
X101071428Y-93785714D01*
X101185714Y-93671428D01*
X101242857Y-93500000D01*
X101242857Y-93214285D01*
X97500000Y-91385714D02*
X97442857Y-91271428D01*
X97442857Y-91100000D01*
X97500000Y-90928571D01*
X97614285Y-90814285D01*
X97728571Y-90757142D01*
X97957142Y-90700000D01*
X98128571Y-90700000D01*
X98357142Y-90757142D01*
X98471428Y-90814285D01*
X98585714Y-90928571D01*
X98642857Y-91100000D01*
X98642857Y-91214285D01*
X98585714Y-91385714D01*
X98528571Y-91442857D01*
X98128571Y-91442857D01*
X98128571Y-91214285D01*
X98642857Y-91957142D02*
X97442857Y-91957142D01*
X98642857Y-92642857D01*
X97442857Y-92642857D01*
X98642857Y-93214285D02*
X97442857Y-93214285D01*
X97442857Y-93500000D01*
X97500000Y-93671428D01*
X97614285Y-93785714D01*
X97728571Y-93842857D01*
X97957142Y-93900000D01*
X98128571Y-93900000D01*
X98357142Y-93842857D01*
X98471428Y-93785714D01*
X98585714Y-93671428D01*
X98642857Y-93500000D01*
X98642857Y-93214285D01*
X95000000Y-91385714D02*
X94942857Y-91271428D01*
X94942857Y-91100000D01*
X95000000Y-90928571D01*
X95114285Y-90814285D01*
X95228571Y-90757142D01*
X95457142Y-90700000D01*
X95628571Y-90700000D01*
X95857142Y-90757142D01*
X95971428Y-90814285D01*
X96085714Y-90928571D01*
X96142857Y-91100000D01*
X96142857Y-91214285D01*
X96085714Y-91385714D01*
X96028571Y-91442857D01*
X95628571Y-91442857D01*
X95628571Y-91214285D01*
X96142857Y-91957142D02*
X94942857Y-91957142D01*
X96142857Y-92642857D01*
X94942857Y-92642857D01*
X96142857Y-93214285D02*
X94942857Y-93214285D01*
X94942857Y-93500000D01*
X95000000Y-93671428D01*
X95114285Y-93785714D01*
X95228571Y-93842857D01*
X95457142Y-93900000D01*
X95628571Y-93900000D01*
X95857142Y-93842857D01*
X95971428Y-93785714D01*
X96085714Y-93671428D01*
X96142857Y-93500000D01*
X96142857Y-93214285D01*
X92500000Y-91385714D02*
X92442857Y-91271428D01*
X92442857Y-91100000D01*
X92500000Y-90928571D01*
X92614285Y-90814285D01*
X92728571Y-90757142D01*
X92957142Y-90700000D01*
X93128571Y-90700000D01*
X93357142Y-90757142D01*
X93471428Y-90814285D01*
X93585714Y-90928571D01*
X93642857Y-91100000D01*
X93642857Y-91214285D01*
X93585714Y-91385714D01*
X93528571Y-91442857D01*
X93128571Y-91442857D01*
X93128571Y-91214285D01*
X93642857Y-91957142D02*
X92442857Y-91957142D01*
X93642857Y-92642857D01*
X92442857Y-92642857D01*
X93642857Y-93214285D02*
X92442857Y-93214285D01*
X92442857Y-93500000D01*
X92500000Y-93671428D01*
X92614285Y-93785714D01*
X92728571Y-93842857D01*
X92957142Y-93900000D01*
X93128571Y-93900000D01*
X93357142Y-93842857D01*
X93471428Y-93785714D01*
X93585714Y-93671428D01*
X93642857Y-93500000D01*
X93642857Y-93214285D01*
X105242857Y-129785714D02*
X106442857Y-130185714D01*
X105242857Y-130585714D01*
X105242857Y-131214285D02*
X105242857Y-131442857D01*
X105300000Y-131557142D01*
X105414285Y-131671428D01*
X105642857Y-131728571D01*
X106042857Y-131728571D01*
X106271428Y-131671428D01*
X106385714Y-131557142D01*
X106442857Y-131442857D01*
X106442857Y-131214285D01*
X106385714Y-131100000D01*
X106271428Y-130985714D01*
X106042857Y-130928571D01*
X105642857Y-130928571D01*
X105414285Y-130985714D01*
X105300000Y-131100000D01*
X105242857Y-131214285D01*
X105242857Y-132242857D02*
X106214285Y-132242857D01*
X106328571Y-132300000D01*
X106385714Y-132357142D01*
X106442857Y-132471428D01*
X106442857Y-132700000D01*
X106385714Y-132814285D01*
X106328571Y-132871428D01*
X106214285Y-132928571D01*
X105242857Y-132928571D01*
X105242857Y-133328571D02*
X105242857Y-134014285D01*
X106442857Y-133671428D02*
X105242857Y-133671428D01*
X102842857Y-129785714D02*
X104042857Y-130185714D01*
X102842857Y-130585714D01*
X102842857Y-131214285D02*
X102842857Y-131442857D01*
X102900000Y-131557142D01*
X103014285Y-131671428D01*
X103242857Y-131728571D01*
X103642857Y-131728571D01*
X103871428Y-131671428D01*
X103985714Y-131557142D01*
X104042857Y-131442857D01*
X104042857Y-131214285D01*
X103985714Y-131100000D01*
X103871428Y-130985714D01*
X103642857Y-130928571D01*
X103242857Y-130928571D01*
X103014285Y-130985714D01*
X102900000Y-131100000D01*
X102842857Y-131214285D01*
X102842857Y-132242857D02*
X103814285Y-132242857D01*
X103928571Y-132300000D01*
X103985714Y-132357142D01*
X104042857Y-132471428D01*
X104042857Y-132700000D01*
X103985714Y-132814285D01*
X103928571Y-132871428D01*
X103814285Y-132928571D01*
X102842857Y-132928571D01*
X102842857Y-133328571D02*
X102842857Y-134014285D01*
X104042857Y-133671428D02*
X102842857Y-133671428D01*
X100200000Y-130585714D02*
X100142857Y-130471428D01*
X100142857Y-130300000D01*
X100200000Y-130128571D01*
X100314285Y-130014285D01*
X100428571Y-129957142D01*
X100657142Y-129900000D01*
X100828571Y-129900000D01*
X101057142Y-129957142D01*
X101171428Y-130014285D01*
X101285714Y-130128571D01*
X101342857Y-130300000D01*
X101342857Y-130414285D01*
X101285714Y-130585714D01*
X101228571Y-130642857D01*
X100828571Y-130642857D01*
X100828571Y-130414285D01*
X101342857Y-131157142D02*
X100142857Y-131157142D01*
X101342857Y-131842857D01*
X100142857Y-131842857D01*
X101342857Y-132414285D02*
X100142857Y-132414285D01*
X100142857Y-132700000D01*
X100200000Y-132871428D01*
X100314285Y-132985714D01*
X100428571Y-133042857D01*
X100657142Y-133100000D01*
X100828571Y-133100000D01*
X101057142Y-133042857D01*
X101171428Y-132985714D01*
X101285714Y-132871428D01*
X101342857Y-132700000D01*
X101342857Y-132414285D01*
X97700000Y-130585714D02*
X97642857Y-130471428D01*
X97642857Y-130300000D01*
X97700000Y-130128571D01*
X97814285Y-130014285D01*
X97928571Y-129957142D01*
X98157142Y-129900000D01*
X98328571Y-129900000D01*
X98557142Y-129957142D01*
X98671428Y-130014285D01*
X98785714Y-130128571D01*
X98842857Y-130300000D01*
X98842857Y-130414285D01*
X98785714Y-130585714D01*
X98728571Y-130642857D01*
X98328571Y-130642857D01*
X98328571Y-130414285D01*
X98842857Y-131157142D02*
X97642857Y-131157142D01*
X98842857Y-131842857D01*
X97642857Y-131842857D01*
X98842857Y-132414285D02*
X97642857Y-132414285D01*
X97642857Y-132700000D01*
X97700000Y-132871428D01*
X97814285Y-132985714D01*
X97928571Y-133042857D01*
X98157142Y-133100000D01*
X98328571Y-133100000D01*
X98557142Y-133042857D01*
X98671428Y-132985714D01*
X98785714Y-132871428D01*
X98842857Y-132700000D01*
X98842857Y-132414285D01*
X95100000Y-130585714D02*
X95042857Y-130471428D01*
X95042857Y-130300000D01*
X95100000Y-130128571D01*
X95214285Y-130014285D01*
X95328571Y-129957142D01*
X95557142Y-129900000D01*
X95728571Y-129900000D01*
X95957142Y-129957142D01*
X96071428Y-130014285D01*
X96185714Y-130128571D01*
X96242857Y-130300000D01*
X96242857Y-130414285D01*
X96185714Y-130585714D01*
X96128571Y-130642857D01*
X95728571Y-130642857D01*
X95728571Y-130414285D01*
X96242857Y-131157142D02*
X95042857Y-131157142D01*
X96242857Y-131842857D01*
X95042857Y-131842857D01*
X96242857Y-132414285D02*
X95042857Y-132414285D01*
X95042857Y-132700000D01*
X95100000Y-132871428D01*
X95214285Y-132985714D01*
X95328571Y-133042857D01*
X95557142Y-133100000D01*
X95728571Y-133100000D01*
X95957142Y-133042857D01*
X96071428Y-132985714D01*
X96185714Y-132871428D01*
X96242857Y-132700000D01*
X96242857Y-132414285D01*
X92500000Y-130585714D02*
X92442857Y-130471428D01*
X92442857Y-130300000D01*
X92500000Y-130128571D01*
X92614285Y-130014285D01*
X92728571Y-129957142D01*
X92957142Y-129900000D01*
X93128571Y-129900000D01*
X93357142Y-129957142D01*
X93471428Y-130014285D01*
X93585714Y-130128571D01*
X93642857Y-130300000D01*
X93642857Y-130414285D01*
X93585714Y-130585714D01*
X93528571Y-130642857D01*
X93128571Y-130642857D01*
X93128571Y-130414285D01*
X93642857Y-131157142D02*
X92442857Y-131157142D01*
X93642857Y-131842857D01*
X92442857Y-131842857D01*
X93642857Y-132414285D02*
X92442857Y-132414285D01*
X92442857Y-132700000D01*
X92500000Y-132871428D01*
X92614285Y-132985714D01*
X92728571Y-133042857D01*
X92957142Y-133100000D01*
X93128571Y-133100000D01*
X93357142Y-133042857D01*
X93471428Y-132985714D01*
X93585714Y-132871428D01*
X93642857Y-132700000D01*
X93642857Y-132414285D01*
X91085714Y-130071428D02*
X91142857Y-130242857D01*
X91142857Y-130528571D01*
X91085714Y-130642857D01*
X91028571Y-130700000D01*
X90914285Y-130757142D01*
X90800000Y-130757142D01*
X90685714Y-130700000D01*
X90628571Y-130642857D01*
X90571428Y-130528571D01*
X90514285Y-130300000D01*
X90457142Y-130185714D01*
X90400000Y-130128571D01*
X90285714Y-130071428D01*
X90171428Y-130071428D01*
X90057142Y-130128571D01*
X90000000Y-130185714D01*
X89942857Y-130300000D01*
X89942857Y-130585714D01*
X90000000Y-130757142D01*
X91028571Y-131957142D02*
X91085714Y-131900000D01*
X91142857Y-131728571D01*
X91142857Y-131614285D01*
X91085714Y-131442857D01*
X90971428Y-131328571D01*
X90857142Y-131271428D01*
X90628571Y-131214285D01*
X90457142Y-131214285D01*
X90228571Y-131271428D01*
X90114285Y-131328571D01*
X90000000Y-131442857D01*
X89942857Y-131614285D01*
X89942857Y-131728571D01*
X90000000Y-131900000D01*
X90057142Y-131957142D01*
X91142857Y-133042857D02*
X91142857Y-132471428D01*
X89942857Y-132471428D01*
X88485714Y-130042857D02*
X88542857Y-130214285D01*
X88542857Y-130500000D01*
X88485714Y-130614285D01*
X88428571Y-130671428D01*
X88314285Y-130728571D01*
X88200000Y-130728571D01*
X88085714Y-130671428D01*
X88028571Y-130614285D01*
X87971428Y-130500000D01*
X87914285Y-130271428D01*
X87857142Y-130157142D01*
X87800000Y-130100000D01*
X87685714Y-130042857D01*
X87571428Y-130042857D01*
X87457142Y-130100000D01*
X87400000Y-130157142D01*
X87342857Y-130271428D01*
X87342857Y-130557142D01*
X87400000Y-130728571D01*
X88542857Y-131242857D02*
X87342857Y-131242857D01*
X87342857Y-131528571D01*
X87400000Y-131700000D01*
X87514285Y-131814285D01*
X87628571Y-131871428D01*
X87857142Y-131928571D01*
X88028571Y-131928571D01*
X88257142Y-131871428D01*
X88371428Y-131814285D01*
X88485714Y-131700000D01*
X88542857Y-131528571D01*
X88542857Y-131242857D01*
X88200000Y-132385714D02*
X88200000Y-132957142D01*
X88542857Y-132271428D02*
X87342857Y-132671428D01*
X88542857Y-133071428D01*
D13*
X118397619Y-105254761D02*
X117297619Y-105254761D01*
X117402380Y-105726190D02*
X117350000Y-105778571D01*
X117297619Y-105883333D01*
X117297619Y-106145238D01*
X117350000Y-106250000D01*
X117402380Y-106302380D01*
X117507142Y-106354761D01*
X117611904Y-106354761D01*
X117769047Y-106302380D01*
X118397619Y-105673809D01*
X118397619Y-106354761D01*
X118292857Y-107454761D02*
X118345238Y-107402380D01*
X118397619Y-107245238D01*
X118397619Y-107140476D01*
X118345238Y-106983333D01*
X118240476Y-106878571D01*
X118135714Y-106826190D01*
X117926190Y-106773809D01*
X117769047Y-106773809D01*
X117559523Y-106826190D01*
X117454761Y-106878571D01*
X117350000Y-106983333D01*
X117297619Y-107140476D01*
X117297619Y-107245238D01*
X117350000Y-107402380D01*
X117402380Y-107454761D01*
X117821428Y-109130952D02*
X117873809Y-109288095D01*
X117926190Y-109340476D01*
X118030952Y-109392857D01*
X118188095Y-109392857D01*
X118292857Y-109340476D01*
X118345238Y-109288095D01*
X118397619Y-109183333D01*
X118397619Y-108764285D01*
X117297619Y-108764285D01*
X117297619Y-109130952D01*
X117350000Y-109235714D01*
X117402380Y-109288095D01*
X117507142Y-109340476D01*
X117611904Y-109340476D01*
X117716666Y-109288095D01*
X117769047Y-109235714D01*
X117821428Y-109130952D01*
X117821428Y-108764285D01*
X117297619Y-109864285D02*
X118188095Y-109864285D01*
X118292857Y-109916666D01*
X118345238Y-109969047D01*
X118397619Y-110073809D01*
X118397619Y-110283333D01*
X118345238Y-110388095D01*
X118292857Y-110440476D01*
X118188095Y-110492857D01*
X117297619Y-110492857D01*
X118292857Y-111645238D02*
X118345238Y-111592857D01*
X118397619Y-111435714D01*
X118397619Y-111330952D01*
X118345238Y-111173809D01*
X118240476Y-111069047D01*
X118135714Y-111016666D01*
X117926190Y-110964285D01*
X117769047Y-110964285D01*
X117559523Y-111016666D01*
X117454761Y-111069047D01*
X117350000Y-111173809D01*
X117297619Y-111330952D01*
X117297619Y-111435714D01*
X117350000Y-111592857D01*
X117402380Y-111645238D01*
X118397619Y-112116666D02*
X117297619Y-112116666D01*
X118397619Y-112745238D02*
X117769047Y-112273809D01*
X117297619Y-112745238D02*
X117926190Y-112116666D01*
X117978571Y-113216666D02*
X117978571Y-114054761D01*
X117821428Y-114945238D02*
X117873809Y-115102380D01*
X117926190Y-115154761D01*
X118030952Y-115207142D01*
X118188095Y-115207142D01*
X118292857Y-115154761D01*
X118345238Y-115102380D01*
X118397619Y-114997619D01*
X118397619Y-114578571D01*
X117297619Y-114578571D01*
X117297619Y-114945238D01*
X117350000Y-115050000D01*
X117402380Y-115102380D01*
X117507142Y-115154761D01*
X117611904Y-115154761D01*
X117716666Y-115102380D01*
X117769047Y-115050000D01*
X117821428Y-114945238D01*
X117821428Y-114578571D01*
X117297619Y-115888095D02*
X117297619Y-116097619D01*
X117350000Y-116202380D01*
X117454761Y-116307142D01*
X117664285Y-116359523D01*
X118030952Y-116359523D01*
X118240476Y-116307142D01*
X118345238Y-116202380D01*
X118397619Y-116097619D01*
X118397619Y-115888095D01*
X118345238Y-115783333D01*
X118240476Y-115678571D01*
X118030952Y-115626190D01*
X117664285Y-115626190D01*
X117454761Y-115678571D01*
X117350000Y-115783333D01*
X117297619Y-115888095D01*
X117297619Y-117040476D02*
X117297619Y-117250000D01*
X117350000Y-117354761D01*
X117454761Y-117459523D01*
X117664285Y-117511904D01*
X118030952Y-117511904D01*
X118240476Y-117459523D01*
X118345238Y-117354761D01*
X118397619Y-117250000D01*
X118397619Y-117040476D01*
X118345238Y-116935714D01*
X118240476Y-116830952D01*
X118030952Y-116778571D01*
X117664285Y-116778571D01*
X117454761Y-116830952D01*
X117350000Y-116935714D01*
X117297619Y-117040476D01*
X118345238Y-117930952D02*
X118397619Y-118088095D01*
X118397619Y-118350000D01*
X118345238Y-118454761D01*
X118292857Y-118507142D01*
X118188095Y-118559523D01*
X118083333Y-118559523D01*
X117978571Y-118507142D01*
X117926190Y-118454761D01*
X117873809Y-118350000D01*
X117821428Y-118140476D01*
X117769047Y-118035714D01*
X117716666Y-117983333D01*
X117611904Y-117930952D01*
X117507142Y-117930952D01*
X117402380Y-117983333D01*
X117350000Y-118035714D01*
X117297619Y-118140476D01*
X117297619Y-118402380D01*
X117350000Y-118559523D01*
X117297619Y-118873809D02*
X117297619Y-119502380D01*
X118397619Y-119188095D02*
X117297619Y-119188095D01*
D14*
%TO.C,LOGO1*%
G36*
X105468931Y-102155814D02*
G01*
X105913555Y-102239635D01*
X106041053Y-102548920D01*
X106168551Y-102858206D01*
X105916246Y-103229246D01*
X105845996Y-103333157D01*
X105783272Y-103427087D01*
X105730938Y-103506652D01*
X105691857Y-103567470D01*
X105668893Y-103605157D01*
X105663942Y-103615421D01*
X105676676Y-103633910D01*
X105711882Y-103673420D01*
X105765062Y-103729522D01*
X105831718Y-103797787D01*
X105907354Y-103873786D01*
X105987472Y-103953092D01*
X106067574Y-104031275D01*
X106143164Y-104103907D01*
X106209745Y-104166559D01*
X106262818Y-104214803D01*
X106297887Y-104244210D01*
X106309623Y-104251241D01*
X106331260Y-104241123D01*
X106378662Y-104212759D01*
X106447193Y-104169129D01*
X106532215Y-104113218D01*
X106629093Y-104048006D01*
X106684350Y-104010219D01*
X106785248Y-103941343D01*
X106876299Y-103880140D01*
X106952970Y-103829578D01*
X107010728Y-103792628D01*
X107045043Y-103772258D01*
X107052254Y-103769197D01*
X107072748Y-103776136D01*
X107120513Y-103795051D01*
X107188832Y-103823087D01*
X107270989Y-103857391D01*
X107360270Y-103895109D01*
X107449958Y-103933387D01*
X107533338Y-103969370D01*
X107603694Y-104000206D01*
X107654310Y-104023039D01*
X107678471Y-104035017D01*
X107679422Y-104035724D01*
X107684036Y-104054531D01*
X107694328Y-104104618D01*
X107709287Y-104180793D01*
X107727901Y-104277865D01*
X107749159Y-104390643D01*
X107761418Y-104456442D01*
X107784362Y-104576950D01*
X107806195Y-104685797D01*
X107825722Y-104777476D01*
X107841748Y-104846481D01*
X107853079Y-104887304D01*
X107856674Y-104895511D01*
X107881006Y-104903548D01*
X107935959Y-104910033D01*
X108015108Y-104914970D01*
X108112026Y-104918364D01*
X108220287Y-104920218D01*
X108333465Y-104920538D01*
X108445135Y-104919327D01*
X108548868Y-104916590D01*
X108638241Y-104912331D01*
X108706826Y-104906555D01*
X108748197Y-104899267D01*
X108756810Y-104894895D01*
X108767133Y-104868764D01*
X108781892Y-104813393D01*
X108799352Y-104736107D01*
X108817780Y-104644230D01*
X108823741Y-104612158D01*
X108852066Y-104457524D01*
X108874876Y-104335375D01*
X108893080Y-104241673D01*
X108907583Y-104172384D01*
X108919292Y-104123471D01*
X108929115Y-104090897D01*
X108937956Y-104070628D01*
X108946724Y-104058626D01*
X108948457Y-104056947D01*
X108976371Y-104040184D01*
X109030695Y-104014614D01*
X109104777Y-103982788D01*
X109191965Y-103947260D01*
X109285608Y-103910583D01*
X109379052Y-103875311D01*
X109465647Y-103843996D01*
X109538740Y-103819193D01*
X109591678Y-103803454D01*
X109617811Y-103799332D01*
X109618726Y-103799676D01*
X109640086Y-103813641D01*
X109687084Y-103845322D01*
X109754827Y-103891391D01*
X109838423Y-103948518D01*
X109932982Y-104013373D01*
X109959854Y-104031843D01*
X110057275Y-104097699D01*
X110146163Y-104155650D01*
X110221412Y-104202538D01*
X110277920Y-104235207D01*
X110310581Y-104250500D01*
X110314593Y-104251241D01*
X110335684Y-104238392D01*
X110377464Y-104202888D01*
X110435445Y-104149293D01*
X110505135Y-104082171D01*
X110582045Y-104006087D01*
X110661683Y-103925604D01*
X110739561Y-103845287D01*
X110811186Y-103769699D01*
X110872070Y-103703405D01*
X110917721Y-103650969D01*
X110943650Y-103616955D01*
X110947883Y-103607545D01*
X110937912Y-103585643D01*
X110911020Y-103540800D01*
X110871736Y-103480321D01*
X110840117Y-103433789D01*
X110782098Y-103349475D01*
X110713784Y-103249626D01*
X110645579Y-103149473D01*
X110609075Y-103095627D01*
X110485800Y-102913371D01*
X110568520Y-102760381D01*
X110604759Y-102690682D01*
X110632926Y-102631414D01*
X110648991Y-102591311D01*
X110651226Y-102581103D01*
X110634722Y-102568829D01*
X110588082Y-102544613D01*
X110515609Y-102510263D01*
X110421606Y-102467588D01*
X110310374Y-102418394D01*
X110186215Y-102364490D01*
X110053432Y-102307684D01*
X109916327Y-102249782D01*
X109779202Y-102192593D01*
X109646358Y-102137924D01*
X109522098Y-102087584D01*
X109410725Y-102043380D01*
X109316539Y-102007119D01*
X109243844Y-101980609D01*
X109196941Y-101965658D01*
X109180833Y-101963254D01*
X109160286Y-101982311D01*
X109126933Y-102024036D01*
X109087702Y-102079706D01*
X109084599Y-102084378D01*
X108969423Y-102228264D01*
X108835053Y-102344283D01*
X108685784Y-102431430D01*
X108525913Y-102488699D01*
X108359737Y-102515086D01*
X108191552Y-102509585D01*
X108025655Y-102471190D01*
X107866342Y-102398895D01*
X107831487Y-102377626D01*
X107690737Y-102266996D01*
X107577714Y-102136302D01*
X107493003Y-101990064D01*
X107437194Y-101832808D01*
X107410874Y-101669057D01*
X107414630Y-101503333D01*
X107449050Y-101340162D01*
X107514723Y-101184065D01*
X107612235Y-101039567D01*
X107651813Y-100994869D01*
X107775703Y-100881112D01*
X107906124Y-100798218D01*
X108052315Y-100741356D01*
X108197088Y-100709687D01*
X108359860Y-100701869D01*
X108523440Y-100727938D01*
X108682298Y-100785245D01*
X108830906Y-100871144D01*
X108963735Y-100982986D01*
X109075256Y-101118123D01*
X109087011Y-101135883D01*
X109125508Y-101192150D01*
X109158863Y-101234923D01*
X109180160Y-101255372D01*
X109180833Y-101255669D01*
X109203871Y-101251279D01*
X109256157Y-101233876D01*
X109333390Y-101205268D01*
X109431268Y-101167265D01*
X109545491Y-101121674D01*
X109671758Y-101070303D01*
X109805767Y-101014962D01*
X109943218Y-100957458D01*
X110079808Y-100899601D01*
X110211237Y-100843198D01*
X110333205Y-100790058D01*
X110441409Y-100741990D01*
X110531549Y-100700801D01*
X110599323Y-100668301D01*
X110640430Y-100646297D01*
X110651226Y-100637436D01*
X110642819Y-100610360D01*
X110620272Y-100559697D01*
X110587613Y-100494183D01*
X110568520Y-100458159D01*
X110485800Y-100305168D01*
X110609075Y-100122912D01*
X110672228Y-100029875D01*
X110741727Y-99928015D01*
X110807165Y-99832562D01*
X110840117Y-99784750D01*
X110885273Y-99717505D01*
X110921057Y-99660564D01*
X110942938Y-99621354D01*
X110947563Y-99608619D01*
X110935085Y-99590083D01*
X110900252Y-99549059D01*
X110846678Y-99489525D01*
X110777983Y-99415458D01*
X110697781Y-99330835D01*
X110646286Y-99277315D01*
X110554286Y-99183681D01*
X110471999Y-99102759D01*
X110402945Y-99037823D01*
X110350644Y-98992142D01*
X110318616Y-98968989D01*
X110312116Y-98966768D01*
X110287394Y-98977076D01*
X110237405Y-99005561D01*
X110167212Y-99049063D01*
X110081875Y-99104423D01*
X109986456Y-99168480D01*
X109959854Y-99186697D01*
X109863167Y-99253073D01*
X109776117Y-99312622D01*
X109703595Y-99362016D01*
X109650493Y-99397925D01*
X109621703Y-99417019D01*
X109618726Y-99418864D01*
X109595782Y-99416105D01*
X109545336Y-99401462D01*
X109474041Y-99377487D01*
X109388547Y-99346734D01*
X109295507Y-99311756D01*
X109201574Y-99275107D01*
X109113399Y-99239339D01*
X109037634Y-99207006D01*
X108980931Y-99180662D01*
X108949943Y-99162858D01*
X108948457Y-99161593D01*
X108939601Y-99150706D01*
X108930843Y-99132318D01*
X108921277Y-99102394D01*
X108909996Y-99056897D01*
X108896093Y-98991791D01*
X108878663Y-98903039D01*
X108856798Y-98786607D01*
X108829591Y-98638458D01*
X108823741Y-98606382D01*
X108805374Y-98511314D01*
X108787405Y-98428435D01*
X108771569Y-98365070D01*
X108759600Y-98328542D01*
X108756810Y-98323644D01*
X108732072Y-98315573D01*
X108676790Y-98309013D01*
X108597389Y-98303967D01*
X108500296Y-98300441D01*
X108391938Y-98298439D01*
X108278740Y-98297964D01*
X108167128Y-98299023D01*
X108063529Y-98301618D01*
X107974368Y-98305754D01*
X107906072Y-98311437D01*
X107865066Y-98318669D01*
X107856674Y-98323029D01*
X107848208Y-98347302D01*
X107834435Y-98402574D01*
X107816550Y-98483338D01*
X107795748Y-98584088D01*
X107773223Y-98699317D01*
X107761418Y-98762098D01*
X107739151Y-98881213D01*
X107718979Y-98987435D01*
X107701915Y-99075573D01*
X107688969Y-99140434D01*
X107681155Y-99176826D01*
X107679422Y-99182816D01*
X107659890Y-99192939D01*
X107612843Y-99214338D01*
X107545003Y-99244161D01*
X107463091Y-99279555D01*
X107373828Y-99317668D01*
X107283935Y-99355647D01*
X107200135Y-99390640D01*
X107129147Y-99419794D01*
X107077694Y-99440257D01*
X107052497Y-99449177D01*
X107051396Y-99449343D01*
X107031519Y-99439231D01*
X106985777Y-99410883D01*
X106918717Y-99367277D01*
X106834884Y-99311394D01*
X106738826Y-99246213D01*
X106683650Y-99208321D01*
X106582481Y-99139275D01*
X106490630Y-99077950D01*
X106412744Y-99027337D01*
X106353469Y-98990429D01*
X106317451Y-98970218D01*
X106309377Y-98967299D01*
X106290584Y-98979847D01*
X106250457Y-99014537D01*
X106193493Y-99066937D01*
X106124185Y-99132616D01*
X106047031Y-99207144D01*
X105966525Y-99286087D01*
X105887163Y-99365017D01*
X105813440Y-99439500D01*
X105749852Y-99505106D01*
X105700894Y-99557404D01*
X105671061Y-99591961D01*
X105663942Y-99603522D01*
X105673953Y-99622346D01*
X105702078Y-99667369D01*
X105745454Y-99734213D01*
X105801218Y-99818501D01*
X105866506Y-99915856D01*
X105916246Y-99989293D01*
X106168551Y-100360333D01*
X105913555Y-100978905D01*
X105468931Y-101062725D01*
X105024307Y-101146546D01*
X105024307Y-102071994D01*
X105468931Y-102155814D01*
G37*
X105468931Y-102155814D02*
X105913555Y-102239635D01*
X106041053Y-102548920D01*
X106168551Y-102858206D01*
X105916246Y-103229246D01*
X105845996Y-103333157D01*
X105783272Y-103427087D01*
X105730938Y-103506652D01*
X105691857Y-103567470D01*
X105668893Y-103605157D01*
X105663942Y-103615421D01*
X105676676Y-103633910D01*
X105711882Y-103673420D01*
X105765062Y-103729522D01*
X105831718Y-103797787D01*
X105907354Y-103873786D01*
X105987472Y-103953092D01*
X106067574Y-104031275D01*
X106143164Y-104103907D01*
X106209745Y-104166559D01*
X106262818Y-104214803D01*
X106297887Y-104244210D01*
X106309623Y-104251241D01*
X106331260Y-104241123D01*
X106378662Y-104212759D01*
X106447193Y-104169129D01*
X106532215Y-104113218D01*
X106629093Y-104048006D01*
X106684350Y-104010219D01*
X106785248Y-103941343D01*
X106876299Y-103880140D01*
X106952970Y-103829578D01*
X107010728Y-103792628D01*
X107045043Y-103772258D01*
X107052254Y-103769197D01*
X107072748Y-103776136D01*
X107120513Y-103795051D01*
X107188832Y-103823087D01*
X107270989Y-103857391D01*
X107360270Y-103895109D01*
X107449958Y-103933387D01*
X107533338Y-103969370D01*
X107603694Y-104000206D01*
X107654310Y-104023039D01*
X107678471Y-104035017D01*
X107679422Y-104035724D01*
X107684036Y-104054531D01*
X107694328Y-104104618D01*
X107709287Y-104180793D01*
X107727901Y-104277865D01*
X107749159Y-104390643D01*
X107761418Y-104456442D01*
X107784362Y-104576950D01*
X107806195Y-104685797D01*
X107825722Y-104777476D01*
X107841748Y-104846481D01*
X107853079Y-104887304D01*
X107856674Y-104895511D01*
X107881006Y-104903548D01*
X107935959Y-104910033D01*
X108015108Y-104914970D01*
X108112026Y-104918364D01*
X108220287Y-104920218D01*
X108333465Y-104920538D01*
X108445135Y-104919327D01*
X108548868Y-104916590D01*
X108638241Y-104912331D01*
X108706826Y-104906555D01*
X108748197Y-104899267D01*
X108756810Y-104894895D01*
X108767133Y-104868764D01*
X108781892Y-104813393D01*
X108799352Y-104736107D01*
X108817780Y-104644230D01*
X108823741Y-104612158D01*
X108852066Y-104457524D01*
X108874876Y-104335375D01*
X108893080Y-104241673D01*
X108907583Y-104172384D01*
X108919292Y-104123471D01*
X108929115Y-104090897D01*
X108937956Y-104070628D01*
X108946724Y-104058626D01*
X108948457Y-104056947D01*
X108976371Y-104040184D01*
X109030695Y-104014614D01*
X109104777Y-103982788D01*
X109191965Y-103947260D01*
X109285608Y-103910583D01*
X109379052Y-103875311D01*
X109465647Y-103843996D01*
X109538740Y-103819193D01*
X109591678Y-103803454D01*
X109617811Y-103799332D01*
X109618726Y-103799676D01*
X109640086Y-103813641D01*
X109687084Y-103845322D01*
X109754827Y-103891391D01*
X109838423Y-103948518D01*
X109932982Y-104013373D01*
X109959854Y-104031843D01*
X110057275Y-104097699D01*
X110146163Y-104155650D01*
X110221412Y-104202538D01*
X110277920Y-104235207D01*
X110310581Y-104250500D01*
X110314593Y-104251241D01*
X110335684Y-104238392D01*
X110377464Y-104202888D01*
X110435445Y-104149293D01*
X110505135Y-104082171D01*
X110582045Y-104006087D01*
X110661683Y-103925604D01*
X110739561Y-103845287D01*
X110811186Y-103769699D01*
X110872070Y-103703405D01*
X110917721Y-103650969D01*
X110943650Y-103616955D01*
X110947883Y-103607545D01*
X110937912Y-103585643D01*
X110911020Y-103540800D01*
X110871736Y-103480321D01*
X110840117Y-103433789D01*
X110782098Y-103349475D01*
X110713784Y-103249626D01*
X110645579Y-103149473D01*
X110609075Y-103095627D01*
X110485800Y-102913371D01*
X110568520Y-102760381D01*
X110604759Y-102690682D01*
X110632926Y-102631414D01*
X110648991Y-102591311D01*
X110651226Y-102581103D01*
X110634722Y-102568829D01*
X110588082Y-102544613D01*
X110515609Y-102510263D01*
X110421606Y-102467588D01*
X110310374Y-102418394D01*
X110186215Y-102364490D01*
X110053432Y-102307684D01*
X109916327Y-102249782D01*
X109779202Y-102192593D01*
X109646358Y-102137924D01*
X109522098Y-102087584D01*
X109410725Y-102043380D01*
X109316539Y-102007119D01*
X109243844Y-101980609D01*
X109196941Y-101965658D01*
X109180833Y-101963254D01*
X109160286Y-101982311D01*
X109126933Y-102024036D01*
X109087702Y-102079706D01*
X109084599Y-102084378D01*
X108969423Y-102228264D01*
X108835053Y-102344283D01*
X108685784Y-102431430D01*
X108525913Y-102488699D01*
X108359737Y-102515086D01*
X108191552Y-102509585D01*
X108025655Y-102471190D01*
X107866342Y-102398895D01*
X107831487Y-102377626D01*
X107690737Y-102266996D01*
X107577714Y-102136302D01*
X107493003Y-101990064D01*
X107437194Y-101832808D01*
X107410874Y-101669057D01*
X107414630Y-101503333D01*
X107449050Y-101340162D01*
X107514723Y-101184065D01*
X107612235Y-101039567D01*
X107651813Y-100994869D01*
X107775703Y-100881112D01*
X107906124Y-100798218D01*
X108052315Y-100741356D01*
X108197088Y-100709687D01*
X108359860Y-100701869D01*
X108523440Y-100727938D01*
X108682298Y-100785245D01*
X108830906Y-100871144D01*
X108963735Y-100982986D01*
X109075256Y-101118123D01*
X109087011Y-101135883D01*
X109125508Y-101192150D01*
X109158863Y-101234923D01*
X109180160Y-101255372D01*
X109180833Y-101255669D01*
X109203871Y-101251279D01*
X109256157Y-101233876D01*
X109333390Y-101205268D01*
X109431268Y-101167265D01*
X109545491Y-101121674D01*
X109671758Y-101070303D01*
X109805767Y-101014962D01*
X109943218Y-100957458D01*
X110079808Y-100899601D01*
X110211237Y-100843198D01*
X110333205Y-100790058D01*
X110441409Y-100741990D01*
X110531549Y-100700801D01*
X110599323Y-100668301D01*
X110640430Y-100646297D01*
X110651226Y-100637436D01*
X110642819Y-100610360D01*
X110620272Y-100559697D01*
X110587613Y-100494183D01*
X110568520Y-100458159D01*
X110485800Y-100305168D01*
X110609075Y-100122912D01*
X110672228Y-100029875D01*
X110741727Y-99928015D01*
X110807165Y-99832562D01*
X110840117Y-99784750D01*
X110885273Y-99717505D01*
X110921057Y-99660564D01*
X110942938Y-99621354D01*
X110947563Y-99608619D01*
X110935085Y-99590083D01*
X110900252Y-99549059D01*
X110846678Y-99489525D01*
X110777983Y-99415458D01*
X110697781Y-99330835D01*
X110646286Y-99277315D01*
X110554286Y-99183681D01*
X110471999Y-99102759D01*
X110402945Y-99037823D01*
X110350644Y-98992142D01*
X110318616Y-98968989D01*
X110312116Y-98966768D01*
X110287394Y-98977076D01*
X110237405Y-99005561D01*
X110167212Y-99049063D01*
X110081875Y-99104423D01*
X109986456Y-99168480D01*
X109959854Y-99186697D01*
X109863167Y-99253073D01*
X109776117Y-99312622D01*
X109703595Y-99362016D01*
X109650493Y-99397925D01*
X109621703Y-99417019D01*
X109618726Y-99418864D01*
X109595782Y-99416105D01*
X109545336Y-99401462D01*
X109474041Y-99377487D01*
X109388547Y-99346734D01*
X109295507Y-99311756D01*
X109201574Y-99275107D01*
X109113399Y-99239339D01*
X109037634Y-99207006D01*
X108980931Y-99180662D01*
X108949943Y-99162858D01*
X108948457Y-99161593D01*
X108939601Y-99150706D01*
X108930843Y-99132318D01*
X108921277Y-99102394D01*
X108909996Y-99056897D01*
X108896093Y-98991791D01*
X108878663Y-98903039D01*
X108856798Y-98786607D01*
X108829591Y-98638458D01*
X108823741Y-98606382D01*
X108805374Y-98511314D01*
X108787405Y-98428435D01*
X108771569Y-98365070D01*
X108759600Y-98328542D01*
X108756810Y-98323644D01*
X108732072Y-98315573D01*
X108676790Y-98309013D01*
X108597389Y-98303967D01*
X108500296Y-98300441D01*
X108391938Y-98298439D01*
X108278740Y-98297964D01*
X108167128Y-98299023D01*
X108063529Y-98301618D01*
X107974368Y-98305754D01*
X107906072Y-98311437D01*
X107865066Y-98318669D01*
X107856674Y-98323029D01*
X107848208Y-98347302D01*
X107834435Y-98402574D01*
X107816550Y-98483338D01*
X107795748Y-98584088D01*
X107773223Y-98699317D01*
X107761418Y-98762098D01*
X107739151Y-98881213D01*
X107718979Y-98987435D01*
X107701915Y-99075573D01*
X107688969Y-99140434D01*
X107681155Y-99176826D01*
X107679422Y-99182816D01*
X107659890Y-99192939D01*
X107612843Y-99214338D01*
X107545003Y-99244161D01*
X107463091Y-99279555D01*
X107373828Y-99317668D01*
X107283935Y-99355647D01*
X107200135Y-99390640D01*
X107129147Y-99419794D01*
X107077694Y-99440257D01*
X107052497Y-99449177D01*
X107051396Y-99449343D01*
X107031519Y-99439231D01*
X106985777Y-99410883D01*
X106918717Y-99367277D01*
X106834884Y-99311394D01*
X106738826Y-99246213D01*
X106683650Y-99208321D01*
X106582481Y-99139275D01*
X106490630Y-99077950D01*
X106412744Y-99027337D01*
X106353469Y-98990429D01*
X106317451Y-98970218D01*
X106309377Y-98967299D01*
X106290584Y-98979847D01*
X106250457Y-99014537D01*
X106193493Y-99066937D01*
X106124185Y-99132616D01*
X106047031Y-99207144D01*
X105966525Y-99286087D01*
X105887163Y-99365017D01*
X105813440Y-99439500D01*
X105749852Y-99505106D01*
X105700894Y-99557404D01*
X105671061Y-99591961D01*
X105663942Y-99603522D01*
X105673953Y-99622346D01*
X105702078Y-99667369D01*
X105745454Y-99734213D01*
X105801218Y-99818501D01*
X105866506Y-99915856D01*
X105916246Y-99989293D01*
X106168551Y-100360333D01*
X105913555Y-100978905D01*
X105468931Y-101062725D01*
X105024307Y-101146546D01*
X105024307Y-102071994D01*
X105468931Y-102155814D01*
D15*
%TO.C,J1*%
X107110000Y-126170000D02*
X107110000Y-128830000D01*
X89270000Y-126170000D02*
X107110000Y-126170000D01*
X89270000Y-128830000D02*
X107110000Y-128830000D01*
X89270000Y-126170000D02*
X89270000Y-128830000D01*
X88000000Y-126170000D02*
X86670000Y-126170000D01*
X86670000Y-126170000D02*
X86670000Y-127500000D01*
%TO.C,J2*%
X86670000Y-94170000D02*
X86670000Y-95500000D01*
X88000000Y-94170000D02*
X86670000Y-94170000D01*
X89270000Y-94170000D02*
X89270000Y-96830000D01*
X89270000Y-96830000D02*
X107110000Y-96830000D01*
X89270000Y-94170000D02*
X107110000Y-94170000D01*
X107110000Y-94170000D02*
X107110000Y-96830000D01*
%TO.C,J4*%
X81655000Y-98280000D02*
X79115000Y-98280000D01*
X81655000Y-98280000D02*
X81655000Y-100820000D01*
X81405000Y-98530000D02*
X72055000Y-98530000D01*
X81405000Y-124470000D02*
X81405000Y-98530000D01*
X72055000Y-124470000D02*
X81405000Y-124470000D01*
X72055000Y-98530000D02*
X72055000Y-124470000D01*
%TO.C,J1*%
D12*
X83404761Y-126833333D02*
X84833333Y-126833333D01*
X85119047Y-126738095D01*
X85309523Y-126547619D01*
X85404761Y-126261904D01*
X85404761Y-126071428D01*
X85404761Y-128833333D02*
X85404761Y-127690476D01*
X85404761Y-128261904D02*
X83404761Y-128261904D01*
X83690476Y-128071428D01*
X83880952Y-127880952D01*
X83976190Y-127690476D01*
%TO.C,J2*%
D10*
X83504761Y-94833333D02*
X84933333Y-94833333D01*
X85219047Y-94738095D01*
X85409523Y-94547619D01*
X85504761Y-94261904D01*
X85504761Y-94071428D01*
X83695238Y-95690476D02*
X83600000Y-95785714D01*
X83504761Y-95976190D01*
X83504761Y-96452380D01*
X83600000Y-96642857D01*
X83695238Y-96738095D01*
X83885714Y-96833333D01*
X84076190Y-96833333D01*
X84361904Y-96738095D01*
X85504761Y-95595238D01*
X85504761Y-96833333D01*
%TO.C,J4*%
D12*
X77604761Y-94833333D02*
X79033333Y-94833333D01*
X79319047Y-94738095D01*
X79509523Y-94547619D01*
X79604761Y-94261904D01*
X79604761Y-94071428D01*
X78271428Y-96642857D02*
X79604761Y-96642857D01*
X77509523Y-96166666D02*
X78938095Y-95690476D01*
X78938095Y-96928571D01*
%TD*%
M02*
